<?xml version="1.0" encoding="UTF-8"?>
<svg id="a" data-name="Layer 1" xmlns="http://www.w3.org/2000/svg" viewBox="0 0 556.6 355.24">
  <defs>
    <style>
      .b {
        stroke-linejoin: round;
      }

      .b, .c {
        fill: none;
        stroke: #000;
        stroke-linecap: round;
      }

      .c {
        stroke-linejoin: bevel;
      }
    </style>
  </defs>
  <polygon class="c" points="318.38 49.1 318.26 46.1 317.78 43.1 317.06 40.1 315.98 37.34 314.78 34.58 313.22 31.94 311.42 29.54 309.38 27.26 307.1 25.22 304.7 23.42 302.06 21.86 299.3 20.66 296.54 19.58 293.54 18.86 290.54 18.38 287.54 18.26 284.54 18.38 281.54 18.86 278.54 19.58 275.78 20.66 273.02 21.86 270.38 23.42 267.98 25.22 265.7 27.26 263.66 29.54 261.86 31.94 260.3 34.58 259.1 37.34 258.02 40.1 257.3 43.1 256.82 46.1 256.7 49.1 256.82 52.1 257.3 55.1 258.02 58.1 259.1 60.86 260.3 63.62 261.86 66.26 263.66 68.66 265.7 70.94 267.98 72.98 270.38 74.78 273.02 76.34 275.78 77.54 278.54 78.62 281.54 79.34 284.54 79.82 287.54 79.94 290.54 79.82 293.54 79.34 296.54 78.62 299.3 77.54 302.06 76.34 304.7 74.78 307.1 72.98 309.38 70.94 311.42 68.66 313.22 66.26 314.78 63.62 315.98 60.86 317.06 58.1 317.78 55.1 318.26 52.1 318.38 49.1"/>
  <polygon class="c" points="382.34 94.46 382.22 91.46 381.74 88.46 381.02 85.46 379.94 82.7 378.74 79.94 377.18 77.3 375.38 74.9 373.34 72.62 371.06 70.58 368.66 68.78 366.02 67.22 363.26 66.02 360.5 64.94 357.5 64.22 354.5 63.74 351.5 63.62 348.5 63.74 345.5 64.22 342.5 64.94 339.74 66.02 336.98 67.22 334.34 68.78 331.94 70.58 329.66 72.62 327.62 74.9 325.82 77.3 324.26 79.94 323.06 82.7 321.98 85.46 321.26 88.46 320.78 91.46 320.66 94.46 320.78 97.46 321.26 100.46 321.98 103.46 323.06 106.22 324.26 108.98 325.82 111.62 327.62 114.02 329.66 116.3 331.94 118.34 334.34 120.14 336.98 121.7 339.74 122.9 342.5 123.98 345.5 124.7 348.5 125.18 351.5 125.3 354.5 125.18 357.5 124.7 360.5 123.98 363.26 122.9 366.02 121.7 368.66 120.14 371.06 118.34 373.34 116.3 375.38 114.02 377.18 111.62 378.74 108.98 379.94 106.22 381.02 103.46 381.74 100.46 382.22 97.46 382.34 94.46"/>
  <polygon class="c" points="461.18 96.74 461.06 93.74 460.58 90.74 459.86 87.74 458.78 84.98 457.58 82.22 456.02 79.58 454.22 77.18 452.18 74.9 449.9 72.86 447.5 71.06 444.86 69.5 442.1 68.3 439.34 67.22 436.34 66.5 433.34 66.02 430.34 65.9 427.34 66.02 424.34 66.5 421.34 67.22 418.58 68.3 415.82 69.5 413.18 71.06 410.78 72.86 408.5 74.9 406.46 77.18 404.66 79.58 403.1 82.22 401.9 84.98 400.82 87.74 400.1 90.74 399.62 93.74 399.5 96.74 399.62 99.74 400.1 102.74 400.82 105.74 401.9 108.5 403.1 111.26 404.66 113.9 406.46 116.3 408.5 118.58 410.78 120.62 413.18 122.42 415.82 123.98 418.58 125.18 421.34 126.26 424.34 126.98 427.34 127.46 430.34 127.58 433.34 127.46 436.34 126.98 439.34 126.26 442.1 125.18 444.86 123.98 447.5 122.42 449.9 120.62 452.18 118.58 454.22 116.3 456.02 113.9 457.58 111.26 458.78 108.5 459.86 105.74 460.58 102.74 461.06 99.74 461.18 96.74"/>
  <polygon class="c" points="540.62 110.66 540.5 107.66 540.02 104.66 539.3 101.66 538.22 98.9 537.02 96.14 535.46 93.5 533.66 91.1 531.62 88.82 529.34 86.78 526.94 84.98 524.3 83.42 521.54 82.22 518.78 81.14 515.78 80.42 512.78 79.94 509.78 79.82 506.78 79.94 503.78 80.42 500.78 81.14 498.02 82.22 495.26 83.42 492.62 84.98 490.22 86.78 487.94 88.82 485.9 91.1 484.1 93.5 482.54 96.14 481.34 98.9 480.26 101.66 479.54 104.66 479.06 107.66 478.94 110.66 479.06 113.66 479.54 116.66 480.26 119.66 481.34 122.42 482.54 125.18 484.1 127.82 485.9 130.22 487.94 132.5 490.22 134.54 492.62 136.34 495.26 137.9 498.02 139.1 500.78 140.18 503.78 140.9 506.78 141.38 509.78 141.5 512.78 141.38 515.78 140.9 518.78 140.18 521.54 139.1 524.3 137.9 526.94 136.34 529.34 134.54 531.62 132.5 533.66 130.22 535.46 127.82 537.02 125.18 538.22 122.42 539.3 119.66 540.02 116.66 540.5 113.66 540.62 110.66"/>
  <polygon class="c" points="539.78 190.46 539.66 187.46 539.18 184.46 538.46 181.46 537.38 178.7 536.18 175.94 534.62 173.3 532.82 170.9 530.78 168.62 528.5 166.58 526.1 164.78 523.46 163.22 520.7 162.02 517.94 160.94 514.94 160.22 511.94 159.74 508.94 159.62 505.94 159.74 502.94 160.22 499.94 160.94 497.18 162.02 494.42 163.22 491.78 164.78 489.38 166.58 487.1 168.62 485.06 170.9 483.26 173.3 481.7 175.94 480.5 178.7 479.42 181.46 478.7 184.46 478.22 187.46 478.1 190.46 478.22 193.46 478.7 196.46 479.42 199.46 480.5 202.22 481.7 204.98 483.26 207.62 485.06 210.02 487.1 212.3 489.38 214.34 491.78 216.14 494.42 217.7 497.18 218.9 499.94 219.98 502.94 220.7 505.94 221.18 508.94 221.3 511.94 221.18 514.94 220.7 517.94 219.98 520.7 218.9 523.46 217.7 526.1 216.14 528.5 214.34 530.78 212.3 532.82 210.02 534.62 207.62 536.18 204.98 537.38 202.22 538.46 199.46 539.18 196.46 539.66 193.46 539.78 190.46"/>
  <polygon class="c" points="460.58 176.78 460.46 173.78 459.98 170.78 459.26 167.78 458.18 165.02 456.98 162.26 455.42 159.62 453.62 157.22 451.58 154.94 449.3 152.9 446.9 151.1 444.26 149.54 441.5 148.34 438.74 147.26 435.74 146.54 432.74 146.06 429.74 145.94 426.74 146.06 423.74 146.54 420.74 147.26 417.98 148.34 415.22 149.54 412.58 151.1 410.18 152.9 407.9 154.94 405.86 157.22 404.06 159.62 402.5 162.26 401.3 165.02 400.22 167.78 399.5 170.78 399.02 173.78 398.9 176.78 399.02 179.78 399.5 182.78 400.22 185.78 401.3 188.54 402.5 191.3 404.06 193.94 405.86 196.34 407.9 198.62 410.18 200.66 412.58 202.46 415.22 204.02 417.98 205.22 420.74 206.3 423.74 207.02 426.74 207.5 429.74 207.62 432.74 207.5 435.74 207.02 438.74 206.3 441.5 205.22 444.26 204.02 446.9 202.46 449.3 200.66 451.58 198.62 453.62 196.34 455.42 193.94 456.98 191.3 458.18 188.54 459.26 185.78 459.98 182.78 460.46 179.78 460.58 176.78"/>
  <polygon class="c" points="377.9 176.78 377.78 173.78 377.3 170.78 376.58 167.78 375.5 165.02 374.3 162.26 372.74 159.62 370.94 157.22 368.9 154.94 366.62 152.9 364.22 151.1 361.58 149.54 358.82 148.34 356.06 147.26 353.06 146.54 350.06 146.06 347.06 145.94 344.06 146.06 341.06 146.54 338.06 147.26 335.3 148.34 332.54 149.54 329.9 151.1 327.5 152.9 325.22 154.94 323.18 157.22 321.38 159.62 319.82 162.26 318.62 165.02 317.54 167.78 316.82 170.78 316.34 173.78 316.22 176.78 316.34 179.78 316.82 182.78 317.54 185.78 318.62 188.54 319.82 191.3 321.38 193.94 323.18 196.34 325.22 198.62 327.5 200.66 329.9 202.46 332.54 204.02 335.3 205.22 338.06 206.3 341.06 207.02 344.06 207.5 347.06 207.62 350.06 207.5 353.06 207.02 356.06 206.3 358.82 205.22 361.58 204.02 364.22 202.46 366.62 200.66 368.9 198.62 370.94 196.34 372.74 193.94 374.3 191.3 375.5 188.54 376.58 185.78 377.3 182.78 377.78 179.78 377.9 176.78"/>
  <polygon class="c" points="308.3 126.86 308.18 123.86 307.7 120.86 306.98 117.86 305.9 115.1 304.7 112.34 303.14 109.7 301.34 107.3 299.3 105.02 297.02 102.98 294.62 101.18 291.98 99.62 289.22 98.42 286.46 97.34 283.46 96.62 280.46 96.14 277.46 96.02 274.46 96.14 271.46 96.62 268.46 97.34 265.7 98.42 262.94 99.62 260.3 101.18 257.9 102.98 255.62 105.02 253.58 107.3 251.78 109.7 250.22 112.34 249.02 115.1 247.94 117.86 247.22 120.86 246.74 123.86 246.62 126.86 246.74 129.86 247.22 132.86 247.94 135.86 249.02 138.62 250.22 141.38 251.78 144.02 253.58 146.42 255.62 148.7 257.9 150.74 260.3 152.54 262.94 154.1 265.7 155.3 268.46 156.38 271.46 157.1 274.46 157.58 277.46 157.7 280.46 157.58 283.46 157.1 286.46 156.38 289.22 155.3 291.98 154.1 294.62 152.54 297.02 150.74 299.3 148.7 301.34 146.42 303.14 144.02 304.7 141.38 305.9 138.62 306.98 135.86 307.7 132.86 308.18 129.86 308.3 126.86"/>
  <polygon class="c" points="300.98 207.5 300.86 204.5 300.38 201.5 299.66 198.5 298.58 195.74 297.38 192.98 295.82 190.34 294.02 187.94 291.98 185.66 289.7 183.62 287.3 181.82 284.66 180.26 281.9 179.06 279.14 177.98 276.14 177.26 273.14 176.78 270.14 176.66 267.14 176.78 264.14 177.26 261.14 177.98 258.38 179.06 255.62 180.26 252.98 181.82 250.58 183.62 248.3 185.66 246.26 187.94 244.46 190.34 242.9 192.98 241.7 195.74 240.62 198.5 239.9 201.5 239.42 204.5 239.3 207.5 239.42 210.5 239.9 213.5 240.62 216.5 241.7 219.26 242.9 222.02 244.46 224.66 246.26 227.06 248.3 229.34 250.58 231.38 252.98 233.18 255.62 234.74 258.38 235.94 261.14 237.02 264.14 237.74 267.14 238.22 270.14 238.34 273.14 238.22 276.14 237.74 279.14 237.02 281.9 235.94 284.66 234.74 287.3 233.18 289.7 231.38 291.98 229.34 294.02 227.06 295.82 224.66 297.38 222.02 298.58 219.26 299.66 216.5 300.38 213.5 300.86 210.5 300.98 207.5"/>
  <polygon class="c" points="231.5 159.5 231.38 156.5 230.9 153.5 230.18 150.5 229.1 147.74 227.9 144.98 226.34 142.34 224.54 139.94 222.5 137.66 220.22 135.62 217.82 133.82 215.18 132.26 212.42 131.06 209.66 129.98 206.66 129.26 203.66 128.78 200.66 128.66 197.66 128.78 194.66 129.26 191.66 129.98 188.9 131.06 186.14 132.26 183.5 133.82 181.1 135.62 178.82 137.66 176.78 139.94 174.98 142.34 173.42 144.98 172.22 147.74 171.14 150.5 170.42 153.5 169.94 156.5 169.82 159.5 169.94 162.5 170.42 165.5 171.14 168.5 172.22 171.26 173.42 174.02 174.98 176.66 176.78 179.06 178.82 181.34 181.1 183.38 183.5 185.18 186.14 186.74 188.9 187.94 191.66 189.02 194.66 189.74 197.66 190.22 200.66 190.34 203.66 190.22 206.66 189.74 209.66 189.02 212.42 187.94 215.18 186.74 217.82 185.18 220.22 183.38 222.5 181.34 224.54 179.06 226.34 176.66 227.9 174.02 229.1 171.26 230.18 168.5 230.9 165.5 231.38 162.5 231.5 159.5"/>
  <polygon class="c" points="159.26 124.1 159.14 121.1 158.66 118.1 157.94 115.1 156.86 112.34 155.66 109.58 154.1 106.94 152.3 104.54 150.26 102.26 147.98 100.22 145.58 98.42 142.94 96.86 140.18 95.66 137.42 94.58 134.42 93.86 131.42 93.38 128.42 93.26 125.42 93.38 122.42 93.86 119.42 94.58 116.66 95.66 113.9 96.86 111.26 98.42 108.86 100.22 106.58 102.26 104.54 104.54 102.74 106.94 101.18 109.58 99.98 112.34 98.9 115.1 98.18 118.1 97.7 121.1 97.58 124.1 97.7 127.1 98.18 130.1 98.9 133.1 99.98 135.86 101.18 138.62 102.74 141.26 104.54 143.66 106.58 145.94 108.86 147.98 111.26 149.78 113.9 151.34 116.66 152.54 119.42 153.62 122.42 154.34 125.42 154.82 128.42 154.94 131.42 154.82 134.42 154.34 137.42 153.62 140.18 152.54 142.94 151.34 145.58 149.78 147.98 147.98 150.26 145.94 152.3 143.66 154.1 141.26 155.66 138.62 156.86 135.86 157.94 133.1 158.66 130.1 159.14 127.1 159.26 124.1"/>
  <polygon class="c" points="78.5 124.22 78.38 121.22 77.9 118.22 77.18 115.22 76.1 112.46 74.9 109.7 73.34 107.06 71.54 104.66 69.5 102.38 67.22 100.34 64.82 98.54 62.18 96.98 59.42 95.78 56.66 94.7 53.66 93.98 50.66 93.5 47.66 93.38 44.66 93.5 41.66 93.98 38.66 94.7 35.9 95.78 33.14 96.98 30.5 98.54 28.1 100.34 25.82 102.38 23.78 104.66 21.98 107.06 20.42 109.7 19.22 112.46 18.14 115.22 17.42 118.22 16.94 121.22 16.82 124.22 16.94 127.22 17.42 130.22 18.14 133.22 19.22 135.98 20.42 138.74 21.98 141.38 23.78 143.78 25.82 146.06 28.1 148.1 30.5 149.9 33.14 151.46 35.9 152.66 38.66 153.74 41.66 154.46 44.66 154.94 47.66 155.06 50.66 154.94 53.66 154.46 56.66 153.74 59.42 152.66 62.18 151.46 64.82 149.9 67.22 148.1 69.5 146.06 71.54 143.78 73.34 141.38 74.9 138.74 76.1 135.98 77.18 133.22 77.9 130.22 78.38 127.22 78.5 124.22"/>
  <polygon class="c" points="182.9 296.3 182.78 293.3 182.3 290.3 181.58 287.3 180.5 284.54 179.3 281.78 177.74 279.14 175.94 276.74 173.9 274.46 171.62 272.42 169.22 270.62 166.58 269.06 163.82 267.86 161.06 266.78 158.06 266.06 155.06 265.58 152.06 265.46 149.06 265.58 146.06 266.06 143.06 266.78 140.3 267.86 137.54 269.06 134.9 270.62 132.5 272.42 130.22 274.46 128.18 276.74 126.38 279.14 124.82 281.78 123.62 284.54 122.54 287.3 121.82 290.3 121.34 293.3 121.22 296.3 121.34 299.3 121.82 302.3 122.54 305.3 123.62 308.06 124.82 310.82 126.38 313.46 128.18 315.86 130.22 318.14 132.5 320.18 134.9 321.98 137.54 323.54 140.3 324.74 143.06 325.82 146.06 326.54 149.06 327.02 152.06 327.14 155.06 327.02 158.06 326.54 161.06 325.82 163.82 324.74 166.58 323.54 169.22 321.98 171.62 320.18 173.9 318.14 175.94 315.86 177.74 313.46 179.3 310.82 180.5 308.06 181.58 305.3 182.3 302.3 182.78 299.3 182.9 296.3"/>
  <polygon class="c" points="281.9 303.86 281.78 300.5 281.3 297.02 280.58 293.78 279.5 290.42 278.18 287.3 276.62 284.3 274.7 281.42 272.66 278.78 270.26 276.26 267.74 273.98 264.98 271.94 262.1 270.14 258.98 268.58 255.86 267.38 252.62 266.3 249.26 265.7 245.78 265.34 242.42 265.22 238.94 265.46 235.58 265.94 232.34 266.78 229.1 267.98 225.98 269.3 222.98 270.98 220.1 272.9 217.46 275.06 215.06 277.46 212.78 280.1 210.86 282.86 209.06 285.74 207.62 288.86 206.42 292.1 205.58 295.34 204.98 298.7 204.62 302.18 204.62 305.54 204.98 309.02 205.58 312.38 206.42 315.62 207.62 318.86 209.06 321.98 210.86 324.86 212.78 327.62 215.06 330.26 217.46 332.66 220.1 334.82 222.98 336.74 225.98 338.42 229.1 339.74 232.34 340.94 235.58 341.78 238.94 342.26 242.42 342.5 245.78 342.38 249.26 342.02 252.62 341.42 255.86 340.34 258.98 339.14 262.1 337.58 264.98 335.78 267.74 333.74 270.26 331.46 272.66 328.94 274.7 326.3 276.62 323.42 278.18 320.42 279.5 317.3 280.58 313.94 281.3 310.7 281.78 307.22 281.9 303.86"/>
  <polygon class="c" points="365.9 258.74 365.78 255.74 365.3 252.74 364.58 249.74 363.5 246.98 362.3 244.22 360.74 241.58 358.94 239.18 356.9 236.9 354.62 234.86 352.22 233.06 349.58 231.5 346.82 230.3 344.06 229.22 341.06 228.5 338.06 228.02 335.06 227.9 332.06 228.02 329.06 228.5 326.06 229.22 323.3 230.3 320.54 231.5 317.9 233.06 315.5 234.86 313.22 236.9 311.18 239.18 309.38 241.58 307.82 244.22 306.62 246.98 305.54 249.74 304.82 252.74 304.34 255.74 304.22 258.74 304.34 261.74 304.82 264.74 305.54 267.74 306.62 270.5 307.82 273.26 309.38 275.9 311.18 278.3 313.22 280.58 315.5 282.62 317.9 284.42 320.54 285.98 323.3 287.18 326.06 288.26 329.06 288.98 332.06 289.46 335.06 289.58 338.06 289.46 341.06 288.98 344.06 288.26 346.82 287.18 349.58 285.98 352.22 284.42 354.62 282.62 356.9 280.58 358.94 278.3 360.74 275.9 362.3 273.26 363.5 270.5 364.58 267.74 365.3 264.74 365.78 261.74 365.9 258.74"/>
  <polygon class="c" points="402.74 28.7 402.62 27.02 402.14 25.34 401.42 23.78 400.46 22.34 399.26 21.14 397.82 20.18 396.26 19.46 394.58 18.98 392.9 18.86 391.22 18.98 389.54 19.46 387.98 20.18 386.54 21.14 385.34 22.34 384.38 23.78 383.66 25.34 383.18 27.02 383.06 28.7 383.18 30.38 383.66 32.06 384.38 33.62 385.34 35.06 386.54 36.26 387.98 37.22 389.54 37.94 391.22 38.42 392.9 38.54 394.58 38.42 396.26 37.94 397.82 37.22 399.26 36.26 400.46 35.06 401.42 33.62 402.14 32.06 402.62 30.38 402.74 28.7"/>
  <polygon class="c" points="436.58 28.7 436.46 27.02 435.98 25.34 435.26 23.78 434.3 22.34 433.1 21.14 431.66 20.18 430.1 19.46 428.42 18.98 426.74 18.86 425.06 18.98 423.38 19.46 421.82 20.18 420.38 21.14 419.18 22.34 418.22 23.78 417.5 25.34 417.02 27.02 416.9 28.7 417.02 30.38 417.5 32.06 418.22 33.62 419.18 35.06 420.38 36.26 421.82 37.22 423.38 37.94 425.06 38.42 426.74 38.54 428.42 38.42 430.1 37.94 431.66 37.22 433.1 36.26 434.3 35.06 435.26 33.62 435.98 32.06 436.46 30.38 436.58 28.7"/>
  <polygon class="c" points="470.78 28.7 470.66 27.02 470.18 25.34 469.46 23.78 468.5 22.34 467.3 21.14 465.86 20.18 464.3 19.46 462.62 18.98 460.94 18.86 459.26 18.98 457.58 19.46 456.02 20.18 454.58 21.14 453.38 22.34 452.42 23.78 451.7 25.34 451.22 27.02 451.1 28.7 451.22 30.38 451.7 32.06 452.42 33.62 453.38 35.06 454.58 36.26 456.02 37.22 457.58 37.94 459.26 38.42 460.94 38.54 462.62 38.42 464.3 37.94 465.86 37.22 467.3 36.26 468.5 35.06 469.46 33.62 470.18 32.06 470.66 30.38 470.78 28.7"/>
  <polygon class="c" points="504.74 28.82 504.62 27.14 504.14 25.46 503.42 23.9 502.46 22.46 501.26 21.26 499.82 20.3 498.26 19.58 496.58 19.1 494.9 18.98 493.22 19.1 491.54 19.58 489.98 20.3 488.54 21.26 487.34 22.46 486.38 23.9 485.66 25.46 485.18 27.14 485.06 28.82 485.18 30.5 485.66 32.18 486.38 33.74 487.34 35.18 488.54 36.38 489.98 37.34 491.54 38.06 493.22 38.54 494.9 38.66 496.58 38.54 498.26 38.06 499.82 37.34 501.26 36.38 502.46 35.18 503.42 33.74 504.14 32.18 504.62 30.5 504.74 28.82"/>
  <polygon class="c" points="33.86 326.66 33.74 325.46 33.26 324.26 32.54 323.3 31.58 322.46 30.5 321.98 29.3 321.74 27.98 321.86 26.9 322.22 25.82 322.82 24.98 323.78 24.38 324.86 24.02 326.06 24.02 327.26 24.38 328.46 24.98 329.54 25.82 330.5 26.9 331.1 27.98 331.46 29.3 331.58 30.5 331.34 31.58 330.86 32.54 330.02 33.26 329.06 33.74 327.86 33.86 326.66"/>
  <polygon class="c" points="297.38 326.42 297.26 325.22 296.78 324.02 296.06 323.06 295.1 322.22 294.02 321.74 292.82 321.5 291.5 321.62 290.42 321.98 289.34 322.58 288.5 323.54 287.9 324.62 287.54 325.82 287.54 327.02 287.9 328.22 288.5 329.3 289.34 330.26 290.42 330.86 291.5 331.22 292.82 331.34 294.02 331.1 295.1 330.62 296.06 329.78 296.78 328.82 297.26 327.62 297.38 326.42"/>
  <polygon class="c" points="532.7 326.66 532.58 325.46 532.1 324.26 531.38 323.3 530.42 322.46 529.34 321.98 528.14 321.74 526.82 321.86 525.74 322.22 524.66 322.82 523.82 323.78 523.22 324.86 522.86 326.06 522.86 327.26 523.22 328.46 523.82 329.54 524.66 330.5 525.74 331.1 526.82 331.46 528.14 331.58 529.34 331.34 530.42 330.86 531.38 330.02 532.1 329.06 532.58 327.86 532.7 326.66"/>
  <polygon class="c" points="532.7 28.82 532.58 27.62 532.1 26.42 531.38 25.46 530.42 24.62 529.34 24.14 528.14 23.9 526.82 24.02 525.74 24.38 524.66 24.98 523.82 25.94 523.22 27.02 522.86 28.22 522.86 29.42 523.22 30.62 523.82 31.7 524.66 32.66 525.74 33.26 526.82 33.62 528.14 33.74 529.34 33.5 530.42 33.02 531.38 32.18 532.1 31.22 532.58 30.02 532.7 28.82"/>
  <polygon class="c" points="33.86 28.82 33.74 27.62 33.26 26.42 32.54 25.46 31.58 24.62 30.5 24.14 29.3 23.9 27.98 24.02 26.9 24.38 25.82 24.98 24.98 25.94 24.38 27.02 24.02 28.22 24.02 29.42 24.38 30.62 24.98 31.7 25.82 32.66 26.9 33.26 27.98 33.62 29.3 33.74 30.5 33.5 31.58 33.02 32.54 32.18 33.26 31.22 33.74 30.02 33.86 28.82"/>
  <polygon class="b" points="42.98 354.74 513.62 354.74 517.34 354.62 520.94 354.14 524.66 353.3 528.14 352.22 531.62 350.78 534.86 349.1 537.98 347.06 540.98 344.78 543.62 342.26 546.14 339.62 548.42 336.62 550.46 333.5 552.14 330.26 553.58 326.78 554.66 323.3 555.5 319.58 555.98 315.98 556.1 312.26 556.1 42.98 555.98 39.26 555.5 35.66 554.66 31.94 553.58 28.46 552.14 24.98 550.46 21.74 548.42 18.62 546.14 15.62 543.62 12.98 540.98 10.46 537.98 8.18 534.86 6.14 531.62 4.46 528.14 3.02 524.66 1.94 520.94 1.1 517.34 .62 513.62 .5 42.98 .5 39.26 .62 35.66 1.1 31.94 1.94 28.46 3.02 24.98 4.46 21.74 6.14 18.62 8.18 15.62 10.46 12.98 12.98 10.46 15.62 8.18 18.62 6.14 21.74 4.46 24.98 3.02 28.46 1.94 31.94 1.1 35.66 .62 39.26 .5 42.98 .5 312.26 .62 315.98 1.1 319.58 1.94 323.3 3.02 326.78 4.46 330.26 6.14 333.5 8.18 336.62 10.46 339.62 12.98 342.26 15.62 344.78 18.62 347.06 21.74 349.1 24.98 350.78 28.46 352.22 31.94 353.3 35.66 354.14 39.26 354.62 42.98 354.74"/>
  <polygon class="c" points="250.82 28.82 250.7 27.62 250.22 26.42 249.5 25.46 248.54 24.62 247.46 24.14 246.26 23.9 244.94 24.02 243.86 24.38 242.78 24.98 241.94 25.94 241.34 27.02 240.98 28.22 240.98 29.42 241.34 30.62 241.94 31.7 242.78 32.66 243.86 33.26 244.94 33.62 246.26 33.74 247.46 33.5 248.54 33.02 249.5 32.18 250.22 31.22 250.7 30.02 250.82 28.82"/>
  <polygon class="c" points="200.3 59.06 200.18 56.06 199.7 53.06 198.98 50.06 197.9 47.3 196.7 44.54 195.14 41.9 193.34 39.5 191.3 37.22 189.02 35.18 186.62 33.38 183.98 31.82 181.22 30.62 178.46 29.54 175.46 28.82 172.46 28.34 169.46 28.22 166.46 28.34 163.46 28.82 160.46 29.54 157.7 30.62 154.94 31.82 152.3 33.38 149.9 35.18 147.62 37.22 145.58 39.5 143.78 41.9 142.22 44.54 141.02 47.3 139.94 50.06 139.22 53.06 138.74 56.06 138.62 59.06 138.74 62.06 139.22 65.06 139.94 68.06 141.02 70.82 142.22 73.58 143.78 76.22 145.58 78.62 147.62 80.9 149.9 82.94 152.3 84.74 154.94 86.3 157.7 87.5 160.46 88.58 163.46 89.3 166.46 89.78 169.46 89.9 172.46 89.78 175.46 89.3 178.46 88.58 181.22 87.5 183.98 86.3 186.62 84.74 189.02 82.94 191.3 80.9 193.34 78.62 195.14 76.22 196.7 73.58 197.9 70.82 198.98 68.06 199.7 65.06 200.18 62.06 200.3 59.06"/>
  <polygon class="c" points="34.82 48.98 34.7 47.3 34.22 45.62 33.5 44.06 32.54 42.62 31.34 41.42 29.9 40.46 28.34 39.74 26.66 39.26 24.98 39.14 23.3 39.26 21.62 39.74 20.06 40.46 18.62 41.42 17.42 42.62 16.46 44.06 15.74 45.62 15.26 47.3 15.14 48.98 15.26 50.66 15.74 52.34 16.46 53.9 17.42 55.34 18.62 56.54 20.06 57.5 21.62 58.22 23.3 58.7 24.98 58.82 26.66 58.7 28.34 58.22 29.9 57.5 31.34 56.54 32.54 55.34 33.5 53.9 34.22 52.34 34.7 50.66 34.82 48.98"/>
  <rect class="b" x="57.98" y="30.02" width="61.68" height="31.68"/>
</svg>