<?xml version="1.0" encoding="UTF-8"?>
<svg id="a" data-name="Layer 1" xmlns="http://www.w3.org/2000/svg" viewBox="0 0 556.24 354.64">
  <defs>
    <style>
      .b {
        fill: none;
        stroke: #000;
        stroke-linecap: round;
        stroke-linejoin: bevel;
      }
    </style>
  </defs>
  <polygon class="b" points="532.46 326.42 532.34 325.22 531.86 324.02 531.14 323.06 530.18 322.22 529.1 321.74 527.9 321.5 526.58 321.62 525.5 321.98 524.42 322.58 523.58 323.54 522.98 324.62 522.62 325.82 522.62 327.02 522.98 328.22 523.58 329.3 524.42 330.26 525.5 330.86 526.58 331.22 527.9 331.34 529.1 331.1 530.18 330.62 531.14 329.78 531.86 328.82 532.34 327.62 532.46 326.42"/>
  <polygon class="b" points="268.82 326.18 268.7 324.98 268.22 323.78 267.5 322.82 266.54 321.98 265.46 321.5 264.26 321.26 262.94 321.38 261.86 321.74 260.78 322.34 259.94 323.3 259.34 324.38 258.98 325.58 258.98 326.78 259.34 327.98 259.94 329.06 260.78 330.02 261.86 330.62 262.94 330.98 264.26 331.1 265.46 330.86 266.54 330.38 267.5 329.54 268.22 328.58 268.7 327.38 268.82 326.18"/>
  <polygon class="b" points="33.62 326.42 33.5 325.22 33.02 324.02 32.3 323.06 31.34 322.22 30.26 321.74 29.06 321.5 27.74 321.62 26.66 321.98 25.58 322.58 24.74 323.54 24.14 324.62 23.78 325.82 23.78 327.02 24.14 328.22 24.74 329.3 25.58 330.26 26.66 330.86 27.74 331.22 29.06 331.34 30.26 331.1 31.34 330.62 32.3 329.78 33.02 328.82 33.5 327.62 33.62 326.42"/>
  <polygon class="b" points="33.62 28.46 33.5 27.26 33.02 26.06 32.3 25.1 31.34 24.26 30.26 23.78 29.06 23.54 27.74 23.66 26.66 24.02 25.58 24.62 24.74 25.58 24.14 26.66 23.78 27.86 23.78 29.06 24.14 30.26 24.74 31.34 25.58 32.3 26.66 32.9 27.74 33.26 29.06 33.38 30.26 33.14 31.34 32.66 32.3 31.82 33.02 30.86 33.5 29.66 33.62 28.46"/>
  <polygon class="b" points="532.46 28.46 532.34 27.26 531.86 26.06 531.14 25.1 530.18 24.26 529.1 23.78 527.9 23.54 526.58 23.66 525.5 24.02 524.42 24.62 523.58 25.58 522.98 26.66 522.62 27.86 522.62 29.06 522.98 30.26 523.58 31.34 524.42 32.3 525.5 32.9 526.58 33.26 527.9 33.38 529.1 33.14 530.18 32.66 531.14 31.82 531.86 30.86 532.34 29.66 532.46 28.46"/>
  <polygon class="b" points="555.74 311.66 555.62 315.38 555.14 318.98 554.3 322.7 553.22 326.18 551.78 329.66 550.1 332.9 548.06 336.02 545.78 339.02 543.26 341.66 540.62 344.18 537.62 346.46 534.5 348.5 531.26 350.18 527.78 351.62 524.3 352.7 520.58 353.54 516.98 354.02 513.26 354.14 42.98 354.14 39.26 354.02 35.66 353.54 31.94 352.7 28.46 351.62 24.98 350.18 21.74 348.5 18.62 346.46 15.62 344.18 12.98 341.66 10.46 339.02 8.18 336.02 6.14 332.9 4.46 329.66 3.02 326.18 1.94 322.7 1.1 318.98 .62 315.38 .5 311.66 .5 42.98 .62 39.26 1.1 35.66 1.94 31.94 3.02 28.46 4.46 24.98 6.14 21.74 8.18 18.62 10.46 15.62 12.98 12.98 15.62 10.46 18.62 8.18 21.74 6.14 24.98 4.46 28.46 3.02 31.94 1.94 35.66 1.1 39.26 .62 42.98 .5 513.26 .5 516.98 .62 520.58 1.1 524.3 1.94 527.78 3.02 531.26 4.46 534.5 6.14 537.62 8.18 540.62 10.46 543.26 12.98 545.78 15.62 548.06 18.62 550.1 21.74 551.78 24.98 553.22 28.46 554.3 31.94 555.14 35.66 555.62 39.26 555.74 42.98 555.74 311.66"/>
  <polygon class="b" points="315.38 28.46 315.26 27.26 314.78 26.06 314.06 25.1 313.1 24.26 312.02 23.78 310.82 23.54 309.5 23.66 308.42 24.02 307.34 24.62 306.5 25.58 305.9 26.66 305.54 27.86 305.54 29.06 305.9 30.26 306.5 31.34 307.34 32.3 308.42 32.9 309.5 33.26 310.82 33.38 312.02 33.14 313.1 32.66 314.06 31.82 314.78 30.86 315.26 29.66 315.38 28.46"/>
  <polygon class="b" points="513.62 79.22 513.5 78.14 513.02 77.3 512.3 76.46 511.46 75.98 510.38 75.74 509.42 75.86 508.34 76.22 507.62 76.82 507.02 77.66 506.66 78.74 506.66 79.7 507.02 80.78 507.62 81.62 508.34 82.22 509.42 82.58 510.38 82.7 511.46 82.46 512.3 81.98 513.02 81.14 513.5 80.3 513.62 79.22"/>
</svg>