<?xml version="1.0" encoding="UTF-8"?>
<svg id="a" data-name="Layer 1" xmlns="http://www.w3.org/2000/svg" viewBox="0 0 840.06 556.59">
  <defs>
    <style>
      .b {
        fill: none;
        stroke: #000;
        stroke-linecap: round;
        stroke-linejoin: round;
      }
    </style>
  </defs>
  <path class="b" d="M28.84,556.09c-15.66,0-28.34-12.69-28.34-28.35l.06-498.9C.56,13.19,13.25.5,28.91.5c0,0,782.3,0,782.3,0,15.66,0,28.35,12.69,28.35,28.35v498.9c0,15.66-12.69,28.35-28.35,28.35H28.85"/>
  <path class="b" d="M756.36,28.85c0-5.17,4.19-9.35,9.35-9.35s9.35,4.19,9.35,9.35-4.19,9.35-9.35,9.35-9.35-4.19-9.35-9.35h0Z"/>
  <path class="b" d="M708.17,28.85c0-5.17,4.19-9.35,9.35-9.35s9.35,4.19,9.35,9.35-4.19,9.35-9.35,9.35-9.35-4.19-9.35-9.35h0Z"/>
  <path class="b" d="M659.98,28.85c0-5.17,4.19-9.35,9.35-9.35s9.35,4.19,9.35,9.35-4.19,9.35-9.35,9.35-9.35-4.19-9.35-9.35h0Z"/>
  <path class="b" d="M611.79,28.85c0-5.17,4.19-9.35,9.35-9.35s9.35,4.19,9.35,9.35-4.19,9.35-9.35,9.35-9.35-4.19-9.35-9.35h0Z"/>
  <path class="b" d="M64.85,28.85c0-5.17,4.19-9.35,9.35-9.35s9.35,4.19,9.35,9.35-4.19,9.35-9.35,9.35-9.35-4.19-9.35-9.35h0Z"/>
  <path class="b" d="M461.5,137.16c0-21.92,17.77-39.69,39.69-39.69s39.69,17.77,39.69,39.69-17.77,39.69-39.69,39.69-39.69-17.77-39.69-39.69h0Z"/>
  <path class="b" d="M554.6,139.25c0-21.92,17.77-39.69,39.69-39.69s39.69,17.77,39.69,39.69-17.77,39.69-39.69,39.69-39.69-17.77-39.69-39.69h0Z"/>
  <path class="b" d="M646.89,148.47c0-21.92,17.77-39.69,39.69-39.69s39.69,17.77,39.69,39.69-17.77,39.69-39.69,39.69-39.69-17.77-39.69-39.69h0Z"/>
  <path class="b" d="M638.53,240.93c0-21.92,17.77-39.69,39.69-39.69s39.69,17.77,39.69,39.69-17.77,39.69-39.69,39.69-39.69-17.77-39.69-39.69h0Z"/>
  <path class="b" d="M546.12,231.38c0-21.92,17.77-39.69,39.69-39.69s39.69,17.77,39.69,39.69-17.77,39.69-39.69,39.69-39.69-17.77-39.69-39.69h0Z"/>
  <path class="b" d="M453.16,229.4c0-21.92,17.77-39.69,39.69-39.69s39.69,17.77,39.69,39.69-17.77,39.69-39.69,39.69-39.69-17.77-39.69-39.69h0Z"/>
  <path class="b" d="M376.17,174.01c0-21.92,17.77-39.69,39.69-39.69s39.69,17.77,39.69,39.69-17.77,39.69-39.69,39.69-39.69-17.77-39.69-39.69h0Z"/>
  <path class="b" d="M368.35,266.48c0-21.92,17.77-39.69,39.69-39.69s39.69,17.77,39.69,39.69-17.77,39.69-39.69,39.69-39.69-17.77-39.69-39.69h0Z"/>
  <path class="b" d="M291.05,212.08c0-21.92,17.77-39.69,39.69-39.69s39.69,17.77,39.69,39.69-17.77,39.69-39.69,39.69-39.69-17.77-39.69-39.69h0Z"/>
  <path class="b" d="M207,173.73c0-21.92,17.77-39.69,39.69-39.69s39.69,17.77,39.69,39.69-17.77,39.69-39.69,39.69-39.69-17.77-39.69-39.69h0Z"/>
  <path class="b" d="M114,171.8c0-21.92,17.77-39.69,39.69-39.69s39.69,17.77,39.69,39.69-17.77,39.69-39.69,39.69-39.69-17.77-39.69-39.69h0Z"/>
  <path class="b" d="M334.36,380.26c0-21.92,17.77-39.69,39.69-39.69s39.69,17.77,39.69,39.69-17.77,39.69-39.69,39.69-39.69-17.77-39.69-39.69h0Z"/>
  <path class="b" d="M563.6,28.85c0-5.17,4.19-9.35,9.35-9.35s9.35,4.19,9.35,9.35-4.19,9.35-9.35,9.35-9.35-4.19-9.35-9.35h0Z"/>
  <path class="b" d="M515.41,28.85c0-5.17,4.19-9.35,9.35-9.35s9.35,4.19,9.35,9.35-4.19,9.35-9.35,9.35-9.35-4.19-9.35-9.35h0Z"/>
  <rect class="b" x="116.84" y="33.08" width="62.19" height="31.35"/>
  <path class="b" d="M23.89,28.85c0-2.74,2.22-4.96,4.96-4.96s4.96,2.22,4.96,4.96-2.22,4.96-4.96,4.96-4.96-2.22-4.96-4.96h0Z"/>
  <path class="b" d="M358.37,28.85c0-2.74,2.22-4.96,4.96-4.96s4.96,2.22,4.96,4.96-2.22,4.96-4.96,4.96-4.96-2.22-4.96-4.96h0Z"/>
  <path class="b" d="M471.76,28.85c0-2.74,2.22-4.96,4.96-4.96s4.96,2.22,4.96,4.96-2.22,4.96-4.96,4.96-4.96-2.22-4.96-4.96h0Z"/>
  <path class="b" d="M806.25,28.85c0-2.74,2.22-4.96,4.96-4.96s4.96,2.22,4.96,4.96-2.22,4.96-4.96,4.96-4.96-2.22-4.96-4.96h0Z"/>
  <path class="b" d="M806.25,278.3c0-2.74,2.22-4.96,4.96-4.96s4.96,2.22,4.96,4.96-2.22,4.96-4.96,4.96-4.96-2.22-4.96-4.96h0Z"/>
  <path class="b" d="M806.25,527.74c0-2.74,2.22-4.96,4.96-4.96s4.96,2.22,4.96,4.96-2.22,4.96-4.96,4.96-4.96-2.22-4.96-4.96h0Z"/>
  <path class="b" d="M415.07,527.74c0-2.74,2.22-4.96,4.96-4.96s4.96,2.22,4.96,4.96-2.22,4.96-4.96,4.96-4.96-2.22-4.96-4.96h0Z"/>
  <path class="b" d="M23.89,527.74c0-2.74,2.22-4.96,4.96-4.96s4.96,2.22,4.96,4.96-2.22,4.96-4.96,4.96-4.96-2.22-4.96-4.96h0Z"/>
  <path class="b" d="M23.89,278.3c0-2.74,2.22-4.96,4.96-4.96s4.96,2.22,4.96,4.96-2.22,4.96-4.96,4.96-4.96-2.22-4.96-4.96h0Z"/>
</svg>