<?xml version="1.0" encoding="UTF-8"?>
<svg id="a" data-name="Layer 1" xmlns="http://www.w3.org/2000/svg" viewBox="0 0 840.06 556.59">
  <defs>
    <style>
      .b {
        fill: none;
        stroke: #000;
        stroke-linecap: round;
        stroke-linejoin: round;
      }
    </style>
  </defs>
  <path class="b" d="M756.36,28.85c0-5.17,4.19-9.35,9.35-9.35s9.35,4.19,9.35,9.35-4.19,9.35-9.35,9.35-9.35-4.19-9.35-9.35h0Z"/>
  <path class="b" d="M708.17,28.85c0-5.17,4.19-9.35,9.35-9.35s9.35,4.19,9.35,9.35-4.19,9.35-9.35,9.35-9.35-4.19-9.35-9.35h0Z"/>
  <path class="b" d="M659.98,28.85c0-5.17,4.19-9.35,9.35-9.35s9.35,4.19,9.35,9.35-4.19,9.35-9.35,9.35-9.35-4.19-9.35-9.35h0Z"/>
  <path class="b" d="M611.79,28.85c0-5.17,4.19-9.35,9.35-9.35s9.35,4.19,9.35,9.35-4.19,9.35-9.35,9.35-9.35-4.19-9.35-9.35h0Z"/>
  <path class="b" d="M64.85,28.85c0-5.17,4.19-9.35,9.35-9.35s9.35,4.19,9.35,9.35-4.19,9.35-9.35,9.35-9.35-4.19-9.35-9.35h0Z"/>
  <path class="b" d="M816.49,32.21c.16.37.16.79,0,1.16-.32.74-1.18,1.09-1.93.77-.71-.3-1.47-.46-2.24-.46h-2.23c-.77,0-1.53.16-2.24.46-.37.16-.79.16-1.16,0-.74-.32-1.09-1.18-.77-1.93.3-.71.46-1.47.46-2.24v-2.23c0-.77-.16-1.53-.46-2.24-.16-.37-.16-.79,0-1.16.32-.74,1.18-1.09,1.93-.77s1.47.46,2.24.46h2.23c.77,0,1.53-.16,2.24-.46.37-.16.79-.16,1.16,0,.74.32,1.09,1.18.77,1.93-.3.71-.46,1.47-.46,2.24v2.23c0,.77.16,1.53.46,2.24Z"/>
  <path class="b" d="M816.49,281.66c.16.37.16.79,0,1.16-.32.74-1.18,1.09-1.93.77-.71-.3-1.47-.46-2.24-.46h-2.23c-.77,0-1.53.16-2.24.46-.37.16-.79.16-1.16,0-.74-.32-1.09-1.18-.77-1.93.3-.71.46-1.47.46-2.24v-2.23c0-.77-.16-1.53-.46-2.24-.16-.37-.16-.79,0-1.16.32-.74,1.18-1.09,1.93-.77.71.3,1.47.46,2.24.46h2.23c.77,0,1.53-.16,2.24-.46.37-.16.79-.16,1.16,0,.74.32,1.09,1.18.77,1.93-.3.71-.46,1.47-.46,2.24v2.23c0,.77.16,1.53.46,2.24Z"/>
  <path class="b" d="M816.49,531.1c.16.37.16.79,0,1.16-.32.74-1.18,1.09-1.93.77-.71-.3-1.47-.46-2.24-.46h-2.23c-.77,0-1.53.16-2.24.46-.37.16-.79.16-1.16,0-.74-.32-1.09-1.18-.77-1.93.3-.71.46-1.47.46-2.24v-2.23c0-.77-.16-1.53-.46-2.24-.16-.37-.16-.79,0-1.16.32-.74,1.18-1.09,1.93-.77s1.47.46,2.24.46c0,0,2.23,0,2.23,0,.77,0,1.53-.16,2.24-.46.37-.16.79-.16,1.16,0,.74.32,1.09,1.18.77,1.93-.3.71-.46,1.47-.46,2.24v2.23c0,.77.16,1.53.46,2.24Z"/>
  <path class="b" d="M425.31,531.1c.16.37.16.79,0,1.16-.32.74-1.18,1.09-1.93.77s-1.47-.46-2.24-.46h-2.23c-.77,0-1.53.16-2.24.46-.37.16-.79.16-1.16,0-.74-.32-1.09-1.18-.77-1.93.3-.71.46-1.47.46-2.24v-2.23c0-.77-.16-1.53-.46-2.24-.16-.37-.16-.79,0-1.16.32-.74,1.18-1.09,1.93-.77.71.3,1.47.46,2.24.46h2.23c.77,0,1.53-.16,2.24-.46.37-.16.79-.16,1.16,0,.74.32,1.09,1.18.77,1.93-.3.71-.46,1.47-.46,2.24v2.23c0,.77.16,1.53.46,2.24Z"/>
  <path class="b" d="M34.13,531.1c.16.37.16.79,0,1.16-.32.74-1.18,1.09-1.93.77-.71-.3-1.47-.46-2.24-.46h-2.23c-.77,0-1.53.16-2.24.46-.37.16-.79.16-1.16,0-.74-.32-1.09-1.18-.77-1.93.3-.71.46-1.47.46-2.24v-2.23c0-.77-.16-1.53-.46-2.24-.16-.37-.16-.79,0-1.16.32-.74,1.18-1.09,1.93-.77.71.3,1.47.46,2.24.46h2.23c.77,0,1.53-.16,2.24-.46.37-.16.79-.16,1.16,0,.74.32,1.09,1.18.77,1.93-.3.71-.46,1.47-.46,2.24v2.23c0,.77.16,1.53.46,2.24Z"/>
  <path class="b" d="M34.13,281.66c.16.37.16.79,0,1.16-.32.74-1.18,1.09-1.93.77-.71-.3-1.47-.46-2.24-.46h-2.23c-.77,0-1.53.16-2.24.46-.37.16-.79.16-1.16,0-.74-.32-1.09-1.18-.77-1.93.3-.71.46-1.47.46-2.24v-2.23c0-.77-.16-1.53-.46-2.24-.16-.37-.16-.79,0-1.16.32-.74,1.18-1.09,1.93-.77.71.3,1.47.46,2.24.46h2.23c.77,0,1.53-.16,2.24-.46.37-.16.79-.16,1.16,0,.74.32,1.09,1.18.77,1.93-.3.71-.46,1.47-.46,2.24v2.23c0,.77.16,1.53.46,2.24Z"/>
  <path class="b" d="M34.13,32.21c.16.37.16.79,0,1.16-.32.74-1.18,1.09-1.93.77-.71-.3-1.47-.46-2.24-.46h-2.23c-.77,0-1.53.16-2.24.46-.37.16-.79.16-1.16,0-.74-.32-1.09-1.18-.77-1.93.3-.71.46-1.47.46-2.24v-2.23c0-.77-.16-1.53-.46-2.24-.16-.37-.16-.79,0-1.16.32-.74,1.18-1.09,1.93-.77.71.3,1.47.46,2.24.46h2.23c.77,0,1.53-.16,2.24-.46.37-.16.79-.16,1.16,0,.74.32,1.09,1.18.77,1.93-.3.71-.46,1.47-.46,2.24v2.23c0,.77.16,1.53.46,2.24Z"/>
  <path class="b" d="M811.21,556.09H28.84c-15.66,0-28.34-12.69-28.34-28.35,0,0,.06-498.9.06-498.9C.56,13.19,13.25.5,28.91.5c0,0,782.3,0,782.3,0,15.66,0,28.35,12.69,28.35,28.35,0,0,0,498.9,0,498.9,0,15.66-12.69,28.35-28.35,28.35Z"/>
  <path class="b" d="M699.85,267.34c.43.04.77.41.77.85v1.54c0,.47.38.85.85.85h3.4c.47,0,.85-.38.85-.85v-1.54c0-.44.33-.8.77-.85,18.46-1.83,31.94-18.28,30.11-36.74-1.56-15.72-13.86-28.23-29.56-30.05-.43-.05-.75-.41-.75-.84v-2.17c0-.47-.38-.85-.85-.85h-4.54c-.47,0-.85.38-.85.85v2.17c0,.43-.32.79-.75.84-18.43,2.14-31.63,18.81-29.5,37.24,1.82,15.69,14.33,28,30.05,29.56Z"/>
  <path class="b" d="M708.34,181.68c.43.04.77.41.77.85v1.54c0,.47.38.85.85.85,0,0,3.4,0,3.4,0,.47,0,.85-.38.85-.85v-1.54c0-.44.33-.8.77-.85,18.46-1.83,31.94-18.28,30.11-36.74-1.56-15.72-13.86-28.23-29.56-30.05-.43-.05-.75-.41-.75-.84v-2.17c0-.47-.38-.85-.85-.85h-4.54c-.47,0-.85.38-.85.85v2.17c0,.43-.32.79-.75.84-18.43,2.14-31.63,18.81-29.5,37.24,1.82,15.69,14.33,28,30.05,29.56Z"/>
  <path class="b" d="M614.7,191.85c-18.43,2.14-31.63,18.81-29.5,37.24,1.82,15.69,14.33,28,30.05,29.56.43.04.77.41.77.85v1.54c0,.47.38.85.85.85,0,0,3.4,0,3.4,0,.47,0,.85-.38.85-.85v-1.54c0-.44.33-.8.77-.85,18.46-1.83,31.94-18.28,30.11-36.74-1.56-15.72-13.86-28.23-29.56-30.05-.43-.05-.75-.41-.75-.84v-2.17c0-.47-.38-.85-.85-.85h-4.54c-.47,0-.85.38-.85.85v2.17c0,.43-.32.79-.75.84Z"/>
  <path class="b" d="M529.67,190.85c-18.43,2.14-31.63,18.81-29.5,37.24,1.82,15.69,14.33,28,30.05,29.56.43.04.77.41.77.85v1.54c0,.47.38.85.85.85h3.4c.47,0,.85-.38.85-.85v-1.54c0-.44.33-.8.77-.85,18.46-1.83,31.94-18.28,30.11-36.74-1.56-15.72-13.86-28.23-29.56-30.05-.43-.05-.75-.41-.75-.84v-2.17c0-.47-.38-.85-.85-.85h-4.54c-.47,0-.85.38-.85.85v2.17c0,.43-.32.79-.75.84Z"/>
  <path class="b" d="M461.22,207.94c.43.04.77.41.77.85v1.54c0,.47.38.85.85.85,0,0,3.4,0,3.4,0,.47,0,.85-.38.85-.85v-1.54c0-.44.33-.8.77-.85,18.46-1.83,31.94-18.28,30.11-36.74-1.56-15.72-13.86-28.23-29.56-30.05-.43-.05-.75-.41-.75-.84v-2.17c0-.47-.38-.85-.85-.85h-4.54c-.47,0-.85.38-.85.85v2.17c0,.43-.32.79-.75.84-18.43,2.14-31.63,18.81-29.5,37.24,1.82,15.69,14.33,28,30.05,29.56Z"/>
  <path class="b" d="M469.76,123.36c-15.72-1.56-28.23-13.86-30.05-29.56-2.14-18.43,11.07-35.1,29.5-37.24.43-.05.75-.41.75-.84v-2.17c0-.47.38-.85.85-.85h4.54c.47,0,.85.38.85.85v2.17c0,.43.32.79.75.84,15.69,1.82,28,14.33,29.56,30.05,1.83,18.46-11.65,34.91-30.11,36.74-.43.04-.77.41-.77.85v1.54c0,.47-.38.85-.85.85h-3.4c-.47,0-.85-.38-.85-.85v-1.54c0-.44-.33-.8-.77-.85Z"/>
  <path class="b" d="M538.19,106.25c-18.43,2.14-31.63,18.81-29.5,37.24,1.82,15.69,14.33,28,30.05,29.56.43.04.77.41.77.85v1.54c0,.47.38.85.85.85,0,0,3.4,0,3.4,0,.47,0,.85-.38.85-.85,0,0,0-1.54,0-1.54,0-.44.33-.8.77-.85,18.46-1.83,31.94-18.28,30.11-36.74-1.56-15.72-13.86-28.23-29.56-30.05-.43-.05-.75-.41-.75-.84v-2.17c0-.47-.38-.85-.85-.85h-4.54c-.47,0-.85.38-.85.85v2.17c0,.43-.32.79-.75.84Z"/>
  <path class="b" d="M623.23,105.89c.43-.05.75-.41.75-.84v-2.17c0-.47.38-.85.85-.85h4.54c.47,0,.85.38.85.85v2.17c0,.43.32.79.75.84,15.69,1.82,28,14.33,29.56,30.05,1.83,18.46-11.65,34.91-30.11,36.74-.43.04-.77.41-.77.85,0,0,0,1.54,0,1.54,0,.47-.38.85-.85.85,0,0-3.4,0-3.4,0-.47,0-.85-.38-.85-.85v-1.54c0-.44-.33-.8-.77-.85-15.72-1.56-28.23-13.86-30.05-29.56-2.14-18.43,11.07-35.1,29.5-37.24Z"/>
  <path class="b" d="M482,32.2c-.3-.71-.46-1.47-.46-2.24v-2.23c0-.77.16-1.53.46-2.24.32-.74-.02-1.61-.77-1.93-.37-.16-.79-.16-1.16,0-.71.3-1.47.46-2.24.46,0,0-2.23,0-2.23,0-.77,0-1.53-.16-2.24-.46-.74-.32-1.61.02-1.93.77-.16.37-.16.79,0,1.16.3.71.46,1.47.46,2.24v2.23c0,.77-.16,1.53-.46,2.24-.32.74.02,1.61.77,1.93.37.16.79.16,1.16,0,.71-.3,1.47-.46,2.24-.46h2.23c.77,0,1.53.16,2.24.46.74.32,1.61-.02,1.93-.77.16-.37.16-.79,0-1.16Z"/>
  <path class="b" d="M368.61,32.2c-.3-.71-.46-1.47-.46-2.24v-2.23c0-.77.16-1.53.46-2.24.32-.74-.02-1.61-.77-1.93-.37-.16-.79-.16-1.16,0-.71.3-1.47.46-2.24.46h-2.23c-.77,0-1.53-.16-2.24-.46-.74-.32-1.61.02-1.93.77-.16.37-.16.79,0,1.16.3.71.46,1.47.46,2.24v2.23c0,.77-.16,1.53-.46,2.24-.32.74.02,1.61.77,1.93.37.16.79.16,1.16,0,.71-.3,1.47-.46,2.24-.46h2.23c.77,0,1.53.16,2.24.46.74.32,1.61-.02,1.93-.77.16-.37.16-.79,0-1.16Z"/>
  <path class="b" d="M310.63,57.81c.43-.05.75-.41.75-.84v-2.17c0-.47.38-.85.85-.85,0,0,4.54,0,4.54,0,.47,0,.85.38.85.85v2.17c0,.43.32.79.75.84,15.69,1.82,28,14.33,29.56,30.05,1.83,18.46-11.65,34.91-30.11,36.74-.43.04-.77.41-.77.85,0,0,0,1.54,0,1.54,0,.47-.38.85-.85.85h-3.4c-.47,0-.85-.38-.85-.85v-1.54c0-.44-.33-.8-.77-.85-15.72-1.56-28.23-13.86-30.05-29.56-2.14-18.43,11.07-35.1,29.5-37.24Z"/>
  <path class="b" d="M291.98,140.78c.43-.05.75-.41.75-.84v-2.17c0-.47.38-.85.85-.85h4.54c.47,0,.85.38.85.85v2.17c0,.43.32.79.75.84,15.69,1.82,28,14.33,29.56,30.05,1.83,18.46-11.65,34.91-30.11,36.74-.43.04-.77.41-.77.85v1.54c0,.47-.38.85-.85.85h-3.4c-.47,0-.85-.38-.85-.85v-1.54c0-.44-.33-.8-.77-.85-15.72-1.56-28.23-13.86-30.05-29.56-2.14-18.43,11.07-35.1,29.5-37.24Z"/>
  <path class="b" d="M207.52,205.27c.43.04.77.41.77.85v1.54c0,.47.38.85.85.85,0,0,3.4,0,3.4,0,.47,0,.85-.38.85-.85v-1.54c0-.44.33-.8.77-.85,18.46-1.83,31.94-18.28,30.11-36.74-1.56-15.72-13.86-28.23-29.56-30.05-.43-.05-.75-.41-.75-.84v-2.17c0-.47-.38-.85-.85-.85h-4.54c-.47,0-.85.38-.85.85v2.17c0,.43-.32.79-.75.84-18.43,2.14-31.63,18.81-29.5,37.24,1.82,15.69,14.33,28,30.05,29.56Z"/>
  <path class="b" d="M124.57,159.5c-18.43,2.14-31.63,18.81-29.5,37.24,1.82,15.69,14.33,28,30.05,29.56.43.04.77.41.77.85v1.54c0,.47.38.85.85.85h3.4c.47,0,.85-.38.85-.85v-1.54c0-.44.33-.8.77-.85,18.46-1.83,31.94-18.28,30.11-36.74-1.56-15.72-13.86-28.23-29.56-30.05-.43-.05-.75-.41-.75-.84v-2.17c0-.47-.38-.85-.85-.85h-4.54c-.47,0-.85.38-.85.85,0,0,0,2.17,0,2.17,0,.43-.32.79-.75.84Z"/>
  <rect class="b" x="117.12" y="33.37" width="61.63" height="30.78"/>
  <path class="b" d="M368.64,245.5c-15.72-1.56-28.23-13.86-30.05-29.56-2.14-18.43,11.07-35.1,29.5-37.24.43-.05.75-.41.75-.84,0,0,0-2.17,0-2.17,0-.47.38-.85.85-.85h4.54c.47,0,.85.38.85.85v2.17c0,.43.32.79.75.84,15.69,1.82,28,14.33,29.56,30.05,1.83,18.46-11.65,34.91-30.11,36.74-.43.04-.77.41-.77.85v1.54c0,.47-.38.85-.85.85h-3.4c-.47,0-.85-.38-.85-.85v-1.54c0-.44-.33-.8-.77-.85Z"/>
  <path class="b" d="M452.68,292.55c-15.72-1.56-28.23-13.86-30.05-29.56-2.14-18.43,11.07-35.1,29.5-37.24.43-.05.75-.41.75-.84v-2.17c0-.47.38-.85.85-.85,0,0,4.54,0,4.54,0,.47,0,.85.38.85.85v2.17c0,.43.32.79.75.84,15.69,1.82,28,14.33,29.56,30.05,1.83,18.46-11.65,34.91-30.11,36.74-.43.04-.77.41-.77.85v1.54c0,.47-.38.85-.85.85h-3.4c-.47,0-.85-.38-.85-.85v-1.54c0-.44-.33-.8-.77-.85Z"/>
  <path class="b" d="M521.13,275.46c.43-.05.75-.41.75-.84v-2.17c0-.47.38-.85.85-.85h4.54c.47,0,.85.38.85.85v2.17c0,.43.32.79.75.84,15.69,1.82,28,14.33,29.56,30.05,1.83,18.46-11.65,34.91-30.11,36.74-.43.04-.77.41-.77.85v1.54c0,.47-.38.85-.85.85h-3.4c-.47,0-.85-.38-.85-.85v-1.54c0-.44-.33-.8-.77-.85-15.72-1.56-28.23-13.86-30.05-29.56-2.14-18.43,11.07-35.1,29.5-37.24Z"/>
  <path class="b" d="M426.25,405.09c-.44.04-.77.41-.77.85v2.22c0,.47-.38.85-.85.85h-4.54c-.47,0-.85-.38-.85-.85v-2.22c0-.44-.33-.81-.77-.85-20.13-1.87-36.08-17.82-37.95-37.95-2.15-23.11,14.84-43.58,37.95-45.73,23.11-2.15,43.58,14.84,45.73,37.95,2.15,23.11-14.84,43.58-37.95,45.73Z"/>
</svg>