<?xml version="1.0" encoding="UTF-8"?>
<svg id="a" data-name="Layer 1" xmlns="http://www.w3.org/2000/svg" viewBox="0 0 719.6 359.49">
  <defs>
    <style>
      .b {
        fill: none;
        stroke: #000;
        stroke-miterlimit: 10;
      }
    </style>
  </defs>
  <path class="b" d="M683.38.5h-282.94v.02l-21.21,46.32c-3.69,8.07-11.75,13.24-20.62,13.24h-228.95c-8.8,0-16.8-5.09-20.54-13.06L87.34.52v-.02h-51.12C16.49.5.5,16.49.5,36.22v287.05c0,19.73,15.99,35.72,35.72,35.72h647.17c19.72,0,35.71-15.99,35.71-35.71V36.22c0-19.73-15.99-35.72-35.72-35.72Z"/>
  <path class="b" d="M303.2,302.42c-.31-23.25,18.83-43.75,43.72-43.77,23.71-.02,43.81,18.93,43.82,43.73.02,25.5-20.73,43.96-43.9,43.89-24.75-.08-44.05-20.61-43.64-43.85Z"/>
  <path class="b" d="M546.16,105.52c-20.29,0-36.61-16.3-36.6-36.58,0-20.24,16.37-36.62,36.6-36.62,20.23,0,36.61,16.38,36.61,36.62,0,20.27-16.32,36.58-36.61,36.58Z"/>
  <path class="b" d="M546.63,194.75c-19,.31-36.52-15.29-36.54-36.62-.02-19.54,15.62-36.61,36.68-36.54,22,.07,36.76,18.23,36.55,36.92-.24,20.66-17.33,36.6-36.69,36.23Z"/>
  <path class="b" d="M424.58,157.66c-.34-18.35,14.55-36.55,36.62-36.53,20.5.01,36.59,16.32,36.54,36.67-.05,21.69-17.92,36.6-36.67,36.55-20-.06-36.77-16.55-36.48-36.68Z"/>
  <path class="b" d="M267.24,108.27c.41,20.21-16.73,36.68-36.42,36.73-18.16.05-36.72-14.24-36.7-36.75.02-20.38,16.11-36.44,36.49-36.47,22.46-.03,37.02,18.5,36.64,36.49Z"/>
  <path class="b" d="M143.34,144.91c-19.79.28-36.51-16.51-36.44-36.71.06-18.16,14.49-36.52,36.79-36.42,20.76.09,36.44,16.54,36.43,36.54-.02,22.31-18.42,37.1-36.78,36.59Z"/>
  <path class="b" d="M631.45,221.7c-20.21.4-36.65-16.68-36.68-36.45-.03-19.78,16.33-36.61,36.55-36.67,18.42-.05,36.62,14.5,36.66,36.54.04,22.05-18.12,36.97-36.53,36.57Z"/>
  <path class="b" d="M343.48,151.96c.28,19.22-15.61,36.53-36.65,36.51-19.43-.02-36.57-15.57-36.5-36.72.06-21.34,17.56-36.72,36.95-36.51,20.6.22,36.57,17.32,36.2,36.72Z"/>
  <path class="b" d="M384.08,77.26c18.82-.33,36.5,15.16,36.47,36.67-.03,19.24-15.12,36.52-36.75,36.45-22.34-.08-36.69-18.6-36.49-36.97.23-19.93,16.87-36.59,36.76-36.14Z"/>
  <path class="b" d="M379.14,164.98c18.55-.44,36.6,14.8,36.6,36.52,0,21.86-18.18,36.64-36.6,36.61-19.9-.03-36.62-16.48-36.62-36.61,0-20.12,16.7-36.88,36.62-36.53Z"/>
  <path class="b" d="M459.08,105.51c-20.72.03-36.65-17.21-36.46-36.71.2-20.29,16.38-36.52,36.71-36.49,20.15.03,36.69,16.57,36.5,36.74-.2,21.51-17.81,36.73-36.76,36.45Z"/>
  <path class="b" d="M667.37,97.59c.23,20-16.9,36.62-37.01,36.38-19.48-.23-36.26-16.62-36.12-36.86.12-18.46,14.77-36.5,36.84-36.36,21.91.14,36.73,18.19,36.29,36.83Z"/>
  <path class="b" d="M700.81,24.15c-.03,7.07-5.77,12.77-12.82,12.75-7.13-.02-12.95-5.88-12.88-13,.07-7.16,5.87-12.77,13.12-12.71,7.06.06,12.61,5.77,12.57,12.95Z"/>
  <path class="b" d="M31.69,11.2c7.19,0,12.9,5.78,12.84,12.97-.06,7.03-5.83,12.74-12.88,12.73-7.15,0-12.89-5.83-12.84-13.01.05-7.07,5.76-12.71,12.87-12.7Z"/>
  <path class="b" d="M688.04,348.32c-7.36.21-12.87-5.84-12.92-12.64-.06-7.16,5.55-12.72,12.69-12.91,7.45-.2,13.04,6.13,13.04,12.8,0,6.59-5.53,12.99-12.81,12.76Z"/>
  <path class="b" d="M31.67,348.32c-7.65.19-12.89-6.36-12.87-12.7.02-7.08,5.81-12.93,12.99-12.88,6.71.05,12.76,5.53,12.74,12.88-.02,6.93-5.68,12.91-12.86,12.71Z"/>
</svg>