<?xml version="1.0" encoding="UTF-8"?>
<svg id="a" data-name="Layer 1" xmlns="http://www.w3.org/2000/svg" viewBox="0 0 839.49 556.02">
  <defs>
    <style>
      .b {
        fill: none;
        stroke: #000;
        stroke-linecap: round;
        stroke-linejoin: round;
      }
    </style>
  </defs>
  <path class="b" d="M28.56,555.52c-15.5,0-28.06-12.57-28.06-28.07l.06-498.9C.56,13.06,13.13.5,28.63.5c0,0,782.3,0,782.3,0,15.5,0,28.06,12.56,28.06,28.06,0,0,0,498.9,0,498.9,0,15.5-12.56,28.06-28.06,28.06H28.56"/>
  <path class="b" d="M23.6,28.56c0-2.74,2.22-4.96,4.96-4.96s4.96,2.22,4.96,4.96-2.22,4.96-4.96,4.96-4.96-2.22-4.96-4.96h0Z"/>
  <path class="b" d="M358.09,28.56c0-2.74,2.22-4.96,4.96-4.96s4.96,2.22,4.96,4.96-2.22,4.96-4.96,4.96-4.96-2.22-4.96-4.96h0Z"/>
  <path class="b" d="M471.48,28.56c0-2.74,2.22-4.96,4.96-4.96s4.96,2.22,4.96,4.96-2.22,4.96-4.96,4.96-4.96-2.22-4.96-4.96h0Z"/>
  <path class="b" d="M805.96,28.56c0-2.74,2.22-4.96,4.96-4.96s4.96,2.22,4.96,4.96-2.22,4.96-4.96,4.96-4.96-2.22-4.96-4.96h0Z"/>
  <path class="b" d="M805.96,278.01c0-2.74,2.22-4.96,4.96-4.96s4.96,2.22,4.96,4.96-2.22,4.96-4.96,4.96-4.96-2.22-4.96-4.96h0Z"/>
  <path class="b" d="M805.96,527.46c0-2.74,2.22-4.96,4.96-4.96s4.96,2.22,4.96,4.96-2.22,4.96-4.96,4.96-4.96-2.22-4.96-4.96h0Z"/>
  <path class="b" d="M414.78,527.46c0-2.74,2.22-4.96,4.96-4.96s4.96,2.22,4.96,4.96-2.22,4.96-4.96,4.96-4.96-2.22-4.96-4.96h0Z"/>
  <path class="b" d="M23.6,527.46c0-2.74,2.22-4.96,4.96-4.96s4.96,2.22,4.96,4.96-2.22,4.96-4.96,4.96-4.96-2.22-4.96-4.96h0Z"/>
  <path class="b" d="M755.51,28.56c0-5.48,4.44-9.92,9.92-9.92s9.92,4.44,9.92,9.92-4.44,9.92-9.92,9.92-9.92-4.44-9.92-9.92h0Z"/>
  <path class="b" d="M707.32,28.56c0-5.48,4.44-9.92,9.92-9.92s9.92,4.44,9.92,9.92-4.44,9.92-9.92,9.92-9.92-4.44-9.92-9.92h0Z"/>
  <path class="b" d="M659.13,28.56c0-5.48,4.44-9.92,9.92-9.92s9.92,4.44,9.92,9.92-4.44,9.92-9.92,9.92-9.92-4.44-9.92-9.92h0Z"/>
  <path class="b" d="M610.94,28.56c0-5.48,4.44-9.92,9.92-9.92s9.92,4.44,9.92,9.92-4.44,9.92-9.92,9.92-9.92-4.44-9.92-9.92h0Z"/>
  <path class="b" d="M64,28.56c0-5.48,4.44-9.92,9.92-9.92s9.92,4.44,9.92,9.92-4.44,9.92-9.92,9.92-9.92-4.44-9.92-9.92h0Z"/>
  <path class="b" d="M226.59,83.98c0-22.31,18.08-40.39,40.39-40.39s40.39,18.08,40.39,40.39-18.08,40.39-40.39,40.39-40.39-18.08-40.39-40.39h0Z"/>
  <path class="b" d="M460.5,136.88c0-22.31,18.08-40.39,40.39-40.39s40.39,18.08,40.39,40.39-18.08,40.39-40.39,40.39-40.39-18.08-40.39-40.39h0Z"/>
  <path class="b" d="M553.61,138.97c0-22.31,18.08-40.39,40.39-40.39s40.39,18.08,40.39,40.39-18.08,40.39-40.39,40.39-40.39-18.08-40.39-40.39h0Z"/>
  <path class="b" d="M645.9,148.18c0-22.31,18.08-40.39,40.39-40.39s40.39,18.08,40.39,40.39-18.08,40.39-40.39,40.39-40.39-18.08-40.39-40.39h0Z"/>
  <path class="b" d="M637.54,240.65c0-22.31,18.08-40.39,40.39-40.39s40.39,18.08,40.39,40.39-18.08,40.39-40.39,40.39-40.39-18.08-40.39-40.39h0Z"/>
  <path class="b" d="M545.13,231.1c0-22.31,18.08-40.39,40.39-40.39s40.39,18.08,40.39,40.39-18.08,40.39-40.39,40.39-40.39-18.08-40.39-40.39h0Z"/>
  <path class="b" d="M452.17,229.11c0-22.31,18.08-40.39,40.39-40.39s40.39,18.08,40.39,40.39-18.08,40.39-40.39,40.39-40.39-18.08-40.39-40.39h0Z"/>
  <path class="b" d="M375.18,173.73c0-22.31,18.08-40.39,40.39-40.39s40.39,18.08,40.39,40.39-18.08,40.39-40.39,40.39-40.39-18.08-40.39-40.39h0Z"/>
  <path class="b" d="M367.36,266.19c0-22.31,18.08-40.39,40.39-40.39s40.39,18.08,40.39,40.39-18.08,40.39-40.39,40.39-40.39-18.08-40.39-40.39h0Z"/>
  <path class="b" d="M290.06,211.79c0-22.31,18.08-40.39,40.39-40.39s40.39,18.08,40.39,40.39-18.08,40.39-40.39,40.39-40.39-18.08-40.39-40.39h0Z"/>
  <path class="b" d="M206.01,173.44c0-22.31,18.08-40.39,40.39-40.39s40.39,18.08,40.39,40.39-18.08,40.39-40.39,40.39-40.39-18.08-40.39-40.39h0Z"/>
  <path class="b" d="M113.01,171.51c0-22.31,18.08-40.39,40.39-40.39s40.39,18.08,40.39,40.39-18.08,40.39-40.39,40.39-40.39-18.08-40.39-40.39h0Z"/>
  <path class="b" d="M333.37,379.97c0-22.31,18.08-40.39,40.39-40.39s40.39,18.08,40.39,40.39-18.08,40.39-40.39,40.39-40.39-18.08-40.39-40.39h0Z"/>
  <path class="b" d="M23.6,278.01c0-2.74,2.22-4.96,4.96-4.96s4.96,2.22,4.96,4.96-2.22,4.96-4.96,4.96-4.96-2.22-4.96-4.96h0Z"/>
  <path class="b" d="M386.07,80.83c0-22.31,18.08-40.39,40.39-40.39s40.39,18.08,40.39,40.39-18.08,40.39-40.39,40.39-40.39-18.08-40.39-40.39h0Z"/>
  <path class="b" d="M243.98,356.08c0-22.31,18.08-40.39,40.39-40.39s40.39,18.08,40.39,40.39-18.08,40.39-40.39,40.39-40.39-18.08-40.39-40.39h0Z"/>
  <path class="b" d="M442.06,321.3c0-22.31,18.08-40.39,40.39-40.39s40.39,18.08,40.39,40.39-18.08,40.39-40.39,40.39-40.39-18.08-40.39-40.39h0Z"/>
  <rect class="b" x="116.55" y="32.8" width="62.19" height="31.35"/>
</svg>