<?xml version="1.0" encoding="UTF-8"?>
<svg id="a" data-name="Layer 1" xmlns="http://www.w3.org/2000/svg" viewBox="0 0 454.48 442.63">
  <defs>
    <style>
      .b {
        stroke-linejoin: round;
      }

      .b, .c {
        fill: none;
        stroke: #000;
        stroke-linecap: round;
      }

      .c {
        stroke-linejoin: bevel;
      }
    </style>
  </defs>
  <g>
    <polygon class="b" points="453.98 190.58 453.98 17.78 453.86 17.78 453.74 15.5 453.26 13.34 452.54 11.18 451.58 9.14 450.26 7.22 448.82 5.54 447.14 4.1 445.22 2.78 443.18 1.82 441.02 1.1 438.86 .62 436.58 .5 17.78 .5 15.5 .62 13.34 1.1 11.18 1.82 9.14 2.78 7.22 4.1 5.54 5.54 4.1 7.22 2.78 9.14 1.82 11.18 1.1 13.34 .62 15.5 .5 17.78 .5 190.58 .62 192.98 1.22 195.5 2.06 197.78 3.26 199.94 4.7 201.86 6.5 203.66 8.42 205.1 10.58 206.3 12.86 207.14 15.38 207.74 17.78 207.86 436.58 207.86 438.86 207.74 441.02 207.26 443.18 206.54 445.22 205.58 447.14 204.26 448.82 202.82 450.26 201.14 451.58 199.22 452.54 197.18 453.26 195.02 453.74 192.86 453.86 190.58 453.98 190.58"/>
    <polygon class="c" points="441.86 17.78 441.74 16.58 441.26 15.38 440.54 14.42 439.58 13.58 438.5 13.1 437.3 12.86 435.98 12.98 434.9 13.34 433.82 13.94 432.98 14.9 432.38 15.98 432.02 17.18 432.02 18.38 432.38 19.58 432.98 20.66 433.82 21.62 434.9 22.22 435.98 22.58 437.3 22.7 438.5 22.46 439.58 21.98 440.54 21.14 441.26 20.18 441.74 18.98 441.86 17.78"/>
    <polygon class="c" points="22.46 17.78 22.34 16.58 21.86 15.38 21.14 14.42 20.18 13.58 19.1 13.1 17.9 12.86 16.58 12.98 15.5 13.34 14.42 13.94 13.58 14.9 12.98 15.98 12.62 17.18 12.62 18.38 12.98 19.58 13.58 20.66 14.42 21.62 15.5 22.22 16.58 22.58 17.9 22.7 19.1 22.46 20.18 21.98 21.14 21.14 21.86 20.18 22.34 18.98 22.46 17.78"/>
    <polygon class="c" points="441.86 190.58 441.74 189.38 441.26 188.18 440.54 187.22 439.58 186.38 438.5 185.9 437.3 185.66 435.98 185.78 434.9 186.14 433.82 186.74 432.98 187.7 432.38 188.78 432.02 189.98 432.02 191.18 432.38 192.38 432.98 193.46 433.82 194.42 434.9 195.02 435.98 195.38 437.3 195.5 438.5 195.26 439.58 194.78 440.54 193.94 441.26 192.98 441.74 191.78 441.86 190.58"/>
    <polygon class="c" points="22.46 190.58 22.34 189.38 21.86 188.18 21.14 187.22 20.18 186.38 19.1 185.9 17.9 185.66 16.58 185.78 15.5 186.14 14.42 186.74 13.58 187.7 12.98 188.78 12.62 189.98 12.62 191.18 12.98 192.38 13.58 193.46 14.42 194.42 15.5 195.02 16.58 195.38 17.9 195.5 19.1 195.26 20.18 194.78 21.14 193.94 21.86 192.98 22.34 191.78 22.46 190.58"/>
    <polygon class="c" points="63.86 17.42 63.74 15.74 63.26 14.06 62.54 12.5 61.58 11.06 60.38 9.86 58.94 8.9 57.38 8.18 55.7 7.7 54.02 7.58 52.34 7.7 50.66 8.18 49.1 8.9 47.66 9.86 46.46 11.06 45.5 12.5 44.78 14.06 44.3 15.74 44.18 17.42 44.3 19.1 44.78 20.78 45.5 22.34 46.46 23.78 47.66 24.98 49.1 25.94 50.66 26.66 52.34 27.14 54.02 27.26 55.7 27.14 57.38 26.66 58.94 25.94 60.38 24.98 61.58 23.78 62.54 22.34 63.26 20.78 63.74 19.1 63.86 17.42"/>
    <polygon class="c" points="95.06 17.42 94.94 15.74 94.46 14.06 93.74 12.5 92.78 11.06 91.58 9.86 90.14 8.9 88.58 8.18 86.9 7.7 85.22 7.58 83.54 7.7 81.86 8.18 80.3 8.9 78.86 9.86 77.66 11.06 76.7 12.5 75.98 14.06 75.5 15.74 75.38 17.42 75.5 19.1 75.98 20.78 76.7 22.34 77.66 23.78 78.86 24.98 80.3 25.94 81.86 26.66 83.54 27.14 85.22 27.26 86.9 27.14 88.58 26.66 90.14 25.94 91.58 24.98 92.78 23.78 93.74 22.34 94.46 20.78 94.94 19.1 95.06 17.42"/>
    <polygon class="c" points="126.26 17.42 126.14 15.74 125.66 14.06 124.94 12.5 123.98 11.06 122.78 9.86 121.34 8.9 119.78 8.18 118.1 7.7 116.42 7.58 114.74 7.7 113.06 8.18 111.5 8.9 110.06 9.86 108.86 11.06 107.9 12.5 107.18 14.06 106.7 15.74 106.58 17.42 106.7 19.1 107.18 20.78 107.9 22.34 108.86 23.78 110.06 24.98 111.5 25.94 113.06 26.66 114.74 27.14 116.42 27.26 118.1 27.14 119.78 26.66 121.34 25.94 122.78 24.98 123.98 23.78 124.94 22.34 125.66 20.78 126.14 19.1 126.26 17.42"/>
    <polygon class="c" points="157.34 17.42 157.22 15.74 156.74 14.06 156.02 12.5 155.06 11.06 153.86 9.86 152.42 8.9 150.86 8.18 149.18 7.7 147.5 7.58 145.82 7.7 144.14 8.18 142.58 8.9 141.14 9.86 139.94 11.06 138.98 12.5 138.26 14.06 137.78 15.74 137.66 17.42 137.78 19.1 138.26 20.78 138.98 22.34 139.94 23.78 141.14 24.98 142.58 25.94 144.14 26.66 145.82 27.14 147.5 27.26 149.18 27.14 150.86 26.66 152.42 25.94 153.86 24.98 155.06 23.78 156.02 22.34 156.74 20.78 157.22 19.1 157.34 17.42"/>
    <polygon class="c" points="188.54 17.42 188.42 15.74 187.94 14.06 187.22 12.5 186.26 11.06 185.06 9.86 183.62 8.9 182.06 8.18 180.38 7.7 178.7 7.58 177.02 7.7 175.34 8.18 173.78 8.9 172.34 9.86 171.14 11.06 170.18 12.5 169.46 14.06 168.98 15.74 168.86 17.42 168.98 19.1 169.46 20.78 170.18 22.34 171.14 23.78 172.34 24.98 173.78 25.94 175.34 26.66 177.02 27.14 178.7 27.26 180.38 27.14 182.06 26.66 183.62 25.94 185.06 24.98 186.26 23.78 187.22 22.34 187.94 20.78 188.42 19.1 188.54 17.42"/>
    <polygon class="c" points="219.74 17.42 219.62 15.74 219.14 14.06 218.42 12.5 217.46 11.06 216.26 9.86 214.82 8.9 213.26 8.18 211.58 7.7 209.9 7.58 208.22 7.7 206.54 8.18 204.98 8.9 203.54 9.86 202.34 11.06 201.38 12.5 200.66 14.06 200.18 15.74 200.06 17.42 200.18 19.1 200.66 20.78 201.38 22.34 202.34 23.78 203.54 24.98 204.98 25.94 206.54 26.66 208.22 27.14 209.9 27.26 211.58 27.14 213.26 26.66 214.82 25.94 216.26 24.98 217.46 23.78 218.42 22.34 219.14 20.78 219.62 19.1 219.74 17.42"/>
    <rect class="b" x="98.49" y="61.89" width="39.71" height="39.71" transform="translate(1.1 165.05) rotate(-70.03)"/>
    <rect class="b" x="29.01" y="94.17" width="39.71" height="39.71" transform="translate(-74.99 121) rotate(-70.03)"/>
    <rect class="b" x="80.01" y="112.77" width="39.71" height="39.71" transform="translate(-58.89 181.19) rotate(-70.03)"/>
    <rect class="b" x="131.24" y="131.48" width="39.59" height="39.59" transform="translate(-42.82 241.38) rotate(-69.97)"/>
    <rect class="b" x="226.22" y="78.02" width="39.72" height="39.72"/>
    <rect class="b" x="280.82" y="63.74" width="39.72" height="39.72"/>
    <rect class="b" x="335.06" y="63.74" width="39.72" height="39.72"/>
    <rect class="b" x="389.66" y="77.78" width="39.72" height="39.6"/>
    <rect class="b" x="389.54" y="132.26" width="39.6" height="39.72"/>
    <rect class="b" x="335.06" y="118.1" width="39.72" height="39.72"/>
    <rect class="b" x="280.82" y="117.98" width="39.72" height="39.72"/>
    <rect class="b" x="226.46" y="132.02" width="39.6" height="39.72"/>
  </g>
  <g>
    <polygon class="b" points="17.84 234.77 436.64 234.77 438.92 234.89 441.08 235.37 443.24 236.09 445.28 237.05 447.2 238.37 448.88 239.81 450.32 241.49 451.64 243.41 452.6 245.45 453.32 247.61 453.8 249.77 453.92 252.05 453.92 424.85 453.8 427.13 453.32 429.29 452.6 431.45 451.64 433.49 450.32 435.41 448.88 437.09 447.2 438.53 445.28 439.85 443.24 440.81 441.08 441.53 438.92 442.01 436.64 442.13 17.84 442.13 15.44 442.01 12.92 441.41 10.64 440.57 8.48 439.37 6.56 437.93 4.76 436.13 3.32 434.21 2.12 432.05 1.28 429.77 .68 427.25 .56 424.85 .56 252.05 .68 249.77 1.16 247.61 1.88 245.45 2.84 243.41 4.16 241.49 5.6 239.81 7.28 238.37 9.2 237.05 11.24 236.09 13.4 235.37 15.56 234.89 17.84 234.77"/>
    <polygon class="c" points="22.4 252.05 22.28 250.85 21.8 249.65 21.08 248.69 20.12 247.85 19.04 247.37 17.84 247.13 16.52 247.25 15.44 247.61 14.36 248.21 13.52 249.17 12.92 250.25 12.56 251.45 12.56 252.65 12.92 253.85 13.52 254.93 14.36 255.89 15.44 256.49 16.52 256.85 17.84 256.97 19.04 256.73 20.12 256.25 21.08 255.41 21.8 254.45 22.28 253.25 22.4 252.05"/>
    <polygon class="c" points="441.92 252.05 441.8 250.85 441.32 249.65 440.6 248.69 439.64 247.85 438.56 247.37 437.36 247.13 436.04 247.25 434.96 247.61 433.88 248.21 433.04 249.17 432.44 250.25 432.08 251.45 432.08 252.65 432.44 253.85 433.04 254.93 433.88 255.89 434.96 256.49 436.04 256.85 437.36 256.97 438.56 256.73 439.64 256.25 440.6 255.41 441.32 254.45 441.8 253.25 441.92 252.05"/>
    <polygon class="c" points="22.4 424.85 22.28 423.65 21.8 422.45 21.08 421.49 20.12 420.65 19.04 420.17 17.84 419.93 16.52 420.05 15.44 420.41 14.36 421.01 13.52 421.97 12.92 423.05 12.56 424.25 12.56 425.45 12.92 426.65 13.52 427.73 14.36 428.69 15.44 429.29 16.52 429.65 17.84 429.77 19.04 429.53 20.12 429.05 21.08 428.21 21.8 427.25 22.28 426.05 22.4 424.85"/>
    <polygon class="c" points="441.92 424.85 441.8 423.65 441.32 422.45 440.6 421.49 439.64 420.65 438.56 420.17 437.36 419.93 436.04 420.05 434.96 420.41 433.88 421.01 433.04 421.97 432.44 423.05 432.08 424.25 432.08 425.45 432.44 426.65 433.04 427.73 433.88 428.69 434.96 429.29 436.04 429.65 437.36 429.77 438.56 429.53 439.64 429.05 440.6 428.21 441.32 427.25 441.8 426.05 441.92 424.85"/>
    <polygon class="c" points="130.4 271.61 130.28 270.77 129.8 269.93 129.2 269.33 128.36 268.97 127.4 268.85 126.56 269.09 125.72 269.57 125.24 270.29 124.88 271.13 124.88 272.09 125.24 272.93 125.72 273.65 126.56 274.13 127.4 274.37 128.36 274.25 129.2 273.89 129.8 273.29 130.28 272.45 130.4 271.61"/>
  </g>
</svg>