<?xml version="1.0" encoding="UTF-8"?>
<svg id="a" data-name="Layer 1" xmlns="http://www.w3.org/2000/svg" viewBox="0 0 926.02 638.68">
  <defs>
    <style>
      .b {
        fill: none;
        stroke: #000;
        stroke-miterlimit: 10;
      }
    </style>
  </defs>
  <path class="b" d="M925.46,9.62l.06-.03c0-5.02-4.07-9.09-9.09-9.09l-.03.06h-141.6l.03-.06c-5.02,0-9.09,4.07-9.09,9.09v110.61-.03c0,1.24-1.01,2.25-2.25,2.25l-.03.06H162.5l.03-.06c-1.24,0-2.25-1.01-2.25-2.25l-.06.03V9.62l.06-.03c0-5.02-4.07-9.09-9.09-9.09l-.03.06H9.56l.03-.06C4.57.5.5,4.57.5,9.59v619.5c0,5.02,4.07,9.09,9.09,9.09h906.84c5.02,0,9.09-4.07,9.09-9.09l-.06.03V9.62Z"/>
  <circle class="b" cx="651.65" cy="233.39" r="45.33"/>
  <circle class="b" cx="553.01" cy="220.79" r="45.33"/>
  <circle class="b" cx="459.47" cy="254.81" r="45.33" transform="translate(103.45 641.19) rotate(-76.35)"/>
  <path class="b" d="M215.69,336.98c-17.21,0-31.17-13.95-31.17-31.17s13.96-31.17,31.17-31.17,31.17,13.96,31.17,31.17-13.96,31.17-31.17,31.17Z"/>
  <circle class="b" cx="449.57" cy="363.95" r="45.33"/>
  <path class="b" d="M543.11,375.26c-25.04,0-45.33-20.29-45.33-45.33s20.29-45.33,45.33-45.33,45.33,20.29,45.33,45.33-20.29,45.33-45.33,45.33Z"/>
  <circle class="b" cx="641.75" cy="342.65" r="45.33" transform="translate(-8.07 669.74) rotate(-54.82)"/>
  <circle class="b" cx="740.39" cy="373.85" r="45.33"/>
  <circle class="b" cx="744.65" cy="264.71" r="45.33"/>
  <path class="b" d="M845.33,101.72c-20.36,0-36.87-16.51-36.87-36.87s16.51-36.87,36.87-36.87,36.87,16.51,36.87,36.87-16.51,36.87-36.87,36.87Z"/>
</svg>