<?xml version="1.0" encoding="UTF-8"?>
<svg id="a" data-name="Layer 1" xmlns="http://www.w3.org/2000/svg" viewBox="0 0 960.24 591.74">
  <defs>
    <style>
      .b {
        fill: none;
        stroke: #000;
        stroke-linecap: round;
        stroke-linejoin: round;
      }
    </style>
  </defs>
  <path class="b" d="M.5,111.76v434.98c0,24.58,19.92,44.5,44.5,44.5h870.24c24.58,0,44.5-19.93,44.5-44.5V30.83c0-16.75-13.58-30.33-30.33-30.33h-432.74c-4.56,0-8.77,2.43-11.05,6.38l-38.01,65.83c-4.33,7.5-12.33,12.12-20.99,12.12H27.43c-14.87,0-26.93,12.06-26.93,26.93Z"/>
  <circle class="b" cx="821.7" cy="69.1" r="37.13" transform="translate(191.81 601.27) rotate(-45)"/>
  <path class="b" d="M299.56,290.2c0-20.04-16.25-36.28-36.28-36.28s-36.28,16.24-36.28,36.28,16.24,36.28,36.28,36.28,36.28-16.24,36.28-36.28Z"/>
  <path class="b" d="M551.7,261.85c0-24.66-19.99-44.65-44.65-44.65s-44.64,19.99-44.64,44.65,19.99,44.65,44.64,44.65,44.65-19.99,44.65-44.65Z"/>
  <path class="b" d="M645.24,222.17c0-24.66-19.99-44.65-44.65-44.65s-44.64,19.99-44.64,44.65,19.99,44.65,44.64,44.65,44.65-19.99,44.65-44.65Z"/>
  <path class="b" d="M747.29,222.17c0-24.66-19.99-44.65-44.65-44.65s-44.64,19.99-44.64,44.65,19.99,44.65,44.64,44.65,44.65-19.99,44.65-44.65Z"/>
  <path class="b" d="M849.33,222.17c0-24.66-19.99-44.65-44.65-44.65s-44.64,19.99-44.64,44.65,19.99,44.65,44.64,44.65,44.65-19.99,44.65-44.65Z"/>
  <path class="b" d="M829.49,332.72c0-24.66-19.99-44.65-44.65-44.65s-44.64,19.99-44.64,44.65,19.99,44.65,44.64,44.65,44.65-19.99,44.65-44.65Z"/>
  <path class="b" d="M727.44,332.72c0-24.66-19.99-44.65-44.65-44.65s-44.64,19.99-44.64,44.65,19.99,44.65,44.64,44.65,44.65-19.99,44.65-44.65Z"/>
  <path class="b" d="M625.4,332.72c0-24.66-19.99-44.65-44.65-44.65s-44.64,19.99-44.64,44.65,19.99,44.65,44.64,44.65,44.65-19.99,44.65-44.65Z"/>
  <path class="b" d="M531.85,369.57c0-24.66-19.99-44.65-44.65-44.65s-44.64,19.99-44.64,44.65,19.99,44.65,44.64,44.65,44.65-19.99,44.65-44.65Z"/>
</svg>