<?xml version="1.0" encoding="UTF-8"?>
<svg id="a" data-name="Layer 1" xmlns="http://www.w3.org/2000/svg" viewBox="0 0 556.36 355.24">
  <defs>
    <style>
      .b {
        stroke-linejoin: round;
      }

      .b, .c {
        fill: none;
        stroke: #000;
        stroke-linecap: round;
      }

      .c {
        stroke-linejoin: bevel;
      }
    </style>
  </defs>
  <polygon class="c" points="513.38 .5 517.1 .62 520.7 1.1 524.42 1.94 527.9 3.02 531.38 4.46 534.62 6.14 537.74 8.18 540.74 10.46 543.38 12.98 545.9 15.62 548.18 18.62 550.22 21.74 551.9 24.98 553.34 28.46 554.42 31.94 555.26 35.66 555.74 39.26 555.86 42.98 555.86 312.26 555.74 315.98 555.26 319.58 554.42 323.3 553.34 326.78 551.9 330.26 550.22 333.5 548.18 336.62 545.9 339.62 543.38 342.26 540.74 344.78 537.74 347.06 534.62 349.1 531.38 350.78 527.9 352.22 524.42 353.3 520.7 354.14 517.1 354.62 513.38 354.74 42.98 354.74 39.26 354.62 35.66 354.14 31.94 353.3 28.46 352.22 24.98 350.78 21.74 349.1 18.62 347.06 15.62 344.78 12.98 342.26 10.46 339.62 8.18 336.62 6.14 333.5 4.46 330.26 3.02 326.78 1.94 323.3 1.1 319.58 .62 315.98 .5 312.26 .5 42.98 .62 39.26 1.1 35.66 1.94 31.94 3.02 28.46 4.46 24.98 6.14 21.74 8.18 18.62 10.46 15.62 12.98 12.98 15.62 10.46 18.62 8.18 21.74 6.14 24.98 4.46 28.46 3.02 31.94 1.94 35.66 1.1 39.26 .62 42.98 .5 513.38 .5"/>
  <polygon class="c" points="183.74 49.58 183.62 46.34 183.14 43.1 182.42 39.86 181.34 36.74 180.02 33.86 178.46 30.98 176.54 28.22 174.5 25.7 172.22 23.42 169.7 21.38 166.94 19.46 164.06 17.9 161.18 16.58 158.06 15.5 154.82 14.78 151.58 14.3 148.34 14.18 145.1 14.3 141.86 14.78 138.62 15.5 135.5 16.58 132.62 17.9 129.74 19.46 126.98 21.38 124.46 23.42 122.18 25.7 120.14 28.22 118.22 30.98 116.66 33.86 115.34 36.74 114.26 39.86 113.54 43.1 113.06 46.34 112.94 49.58 113.06 52.82 113.54 56.06 114.26 59.3 115.34 62.42 116.66 65.3 118.22 68.18 120.14 70.94 122.18 73.46 124.46 75.74 126.98 77.78 129.74 79.7 132.62 81.26 135.5 82.58 138.62 83.66 141.86 84.38 145.1 84.86 148.34 84.98 151.58 84.86 154.82 84.38 158.06 83.66 161.18 82.58 164.06 81.26 166.94 79.7 169.7 77.78 172.22 75.74 174.5 73.46 176.54 70.94 178.46 68.18 180.02 65.3 181.34 62.42 182.42 59.3 183.14 56.06 183.62 52.82 183.74 49.58"/>
  <polygon class="c" points="82.82 124.1 82.7 120.86 82.22 117.62 81.5 114.38 80.42 111.26 79.1 108.38 77.54 105.5 75.62 102.74 73.58 100.22 71.3 97.94 68.78 95.9 66.02 93.98 63.14 92.42 60.26 91.1 57.14 90.02 53.9 89.3 50.66 88.82 47.42 88.7 44.18 88.82 40.94 89.3 37.7 90.02 34.58 91.1 31.7 92.42 28.82 93.98 26.06 95.9 23.54 97.94 21.26 100.22 19.22 102.74 17.3 105.5 15.74 108.38 14.42 111.26 13.34 114.38 12.62 117.62 12.14 120.86 12.02 124.1 12.14 127.34 12.62 130.58 13.34 133.82 14.42 136.94 15.74 139.82 17.3 142.7 19.22 145.46 21.26 147.98 23.54 150.26 26.06 152.3 28.82 154.22 31.7 155.78 34.58 157.1 37.7 158.18 40.94 158.9 44.18 159.38 47.42 159.5 50.66 159.38 53.9 158.9 57.14 158.18 60.26 157.1 63.14 155.78 66.02 154.22 68.78 152.3 71.3 150.26 73.58 147.98 75.62 145.46 77.54 142.7 79.1 139.82 80.42 136.94 81.5 133.82 82.22 130.58 82.7 127.34 82.82 124.1"/>
  <polygon class="c" points="163.46 124.1 163.34 120.86 162.86 117.62 162.14 114.38 161.06 111.26 159.74 108.38 158.18 105.5 156.26 102.74 154.22 100.22 151.94 97.94 149.42 95.9 146.66 93.98 143.78 92.42 140.9 91.1 137.78 90.02 134.54 89.3 131.3 88.82 128.06 88.7 124.82 88.82 121.58 89.3 118.34 90.02 115.22 91.1 112.34 92.42 109.46 93.98 106.7 95.9 104.18 97.94 101.9 100.22 99.86 102.74 97.94 105.5 96.38 108.38 95.06 111.26 93.98 114.38 93.26 117.62 92.78 120.86 92.66 124.1 92.78 127.34 93.26 130.58 93.98 133.82 95.06 136.94 96.38 139.82 97.94 142.7 99.86 145.46 101.9 147.98 104.18 150.26 106.7 152.3 109.46 154.22 112.34 155.78 115.22 157.1 118.34 158.18 121.58 158.9 124.82 159.38 128.06 159.5 131.3 159.38 134.54 158.9 137.78 158.18 140.9 157.1 143.78 155.78 146.66 154.22 149.42 152.3 151.94 150.26 154.22 147.98 156.26 145.46 158.18 142.7 159.74 139.82 161.06 136.94 162.14 133.82 162.86 130.58 163.34 127.34 163.46 124.1"/>
  <polygon class="c" points="235.7 159.38 235.58 156.14 235.1 152.9 234.38 149.66 233.3 146.54 231.98 143.66 230.42 140.78 228.5 138.02 226.46 135.5 224.18 133.22 221.66 131.18 218.9 129.26 216.02 127.7 213.14 126.38 210.02 125.3 206.78 124.58 203.54 124.1 200.3 123.98 197.06 124.1 193.82 124.58 190.58 125.3 187.46 126.38 184.58 127.7 181.7 129.26 178.94 131.18 176.42 133.22 174.14 135.5 172.1 138.02 170.18 140.78 168.62 143.66 167.3 146.54 166.22 149.66 165.5 152.9 165.02 156.14 164.9 159.38 165.02 162.62 165.5 165.86 166.22 169.1 167.3 172.22 168.62 175.1 170.18 177.98 172.1 180.74 174.14 183.26 176.42 185.54 178.94 187.58 181.7 189.5 184.58 191.06 187.46 192.38 190.58 193.46 193.82 194.18 197.06 194.66 200.3 194.78 203.54 194.66 206.78 194.18 210.02 193.46 213.14 192.38 216.02 191.06 218.9 189.5 221.66 187.58 224.18 185.54 226.46 183.26 228.5 180.74 230.42 177.98 231.98 175.1 233.3 172.22 234.38 169.1 235.1 165.86 235.58 162.62 235.7 159.38"/>
  <polygon class="c" points="312.5 126.74 312.38 123.5 311.9 120.26 311.18 117.02 310.1 113.9 308.78 111.02 307.22 108.14 305.3 105.38 303.26 102.86 300.98 100.58 298.46 98.54 295.7 96.62 292.82 95.06 289.94 93.74 286.82 92.66 283.58 91.94 280.34 91.46 277.1 91.34 273.86 91.46 270.62 91.94 267.38 92.66 264.26 93.74 261.38 95.06 258.5 96.62 255.74 98.54 253.22 100.58 250.94 102.86 248.9 105.38 246.98 108.14 245.42 111.02 244.1 113.9 243.02 117.02 242.3 120.26 241.82 123.5 241.7 126.74 241.82 129.98 242.3 133.22 243.02 136.46 244.1 139.58 245.42 142.46 246.98 145.34 248.9 148.1 250.94 150.62 253.22 152.9 255.74 154.94 258.5 156.86 261.38 158.42 264.26 159.74 267.38 160.82 270.62 161.54 273.86 162.02 277.1 162.14 280.34 162.02 283.58 161.54 286.82 160.82 289.94 159.74 292.82 158.42 295.7 156.86 298.46 154.94 300.98 152.9 303.26 150.62 305.3 148.1 307.22 145.34 308.78 142.46 310.1 139.58 311.18 136.46 311.9 133.22 312.38 129.98 312.5 126.74"/>
  <polygon class="c" points="386.54 94.46 386.42 91.22 385.94 87.98 385.22 84.74 384.14 81.62 382.82 78.74 381.26 75.86 379.34 73.1 377.3 70.58 375.02 68.3 372.5 66.26 369.74 64.34 366.86 62.78 363.98 61.46 360.86 60.38 357.62 59.66 354.38 59.18 351.14 59.06 347.9 59.18 344.66 59.66 341.42 60.38 338.3 61.46 335.42 62.78 332.54 64.34 329.78 66.26 327.26 68.3 324.98 70.58 322.94 73.1 321.02 75.86 319.46 78.74 318.14 81.62 317.06 84.74 316.34 87.98 315.86 91.22 315.74 94.46 315.86 97.7 316.34 100.94 317.06 104.18 318.14 107.3 319.46 110.18 321.02 113.06 322.94 115.82 324.98 118.34 327.26 120.62 329.78 122.66 332.54 124.58 335.42 126.14 338.3 127.46 341.42 128.54 344.66 129.26 347.9 129.74 351.14 129.86 354.38 129.74 357.62 129.26 360.86 128.54 363.98 127.46 366.86 126.14 369.74 124.58 372.5 122.66 375.02 120.62 377.3 118.34 379.34 115.82 381.26 113.06 382.82 110.18 384.14 107.3 385.22 104.18 385.94 100.94 386.42 97.7 386.54 94.46"/>
  <polygon class="c" points="465.38 96.74 465.26 93.5 464.78 90.26 464.06 87.02 462.98 83.9 461.66 81.02 460.1 78.14 458.18 75.38 456.14 72.86 453.86 70.58 451.34 68.54 448.58 66.62 445.7 65.06 442.82 63.74 439.7 62.66 436.46 61.94 433.22 61.46 429.98 61.34 426.74 61.46 423.5 61.94 420.26 62.66 417.14 63.74 414.26 65.06 411.38 66.62 408.62 68.54 406.1 70.58 403.82 72.86 401.78 75.38 399.86 78.14 398.3 81.02 396.98 83.9 395.9 87.02 395.18 90.26 394.7 93.5 394.58 96.74 394.7 99.98 395.18 103.22 395.9 106.46 396.98 109.58 398.3 112.46 399.86 115.34 401.78 118.1 403.82 120.62 406.1 122.9 408.62 124.94 411.38 126.86 414.26 128.42 417.14 129.74 420.26 130.82 423.5 131.54 426.74 132.02 429.98 132.14 433.22 132.02 436.46 131.54 439.7 130.82 442.82 129.74 445.7 128.42 448.58 126.86 451.34 124.94 453.86 122.9 456.14 120.62 458.18 118.1 460.1 115.34 461.66 112.46 462.98 109.58 464.06 106.46 464.78 103.22 465.26 99.98 465.38 96.74"/>
  <polygon class="c" points="544.82 110.54 544.7 107.3 544.22 104.06 543.5 100.82 542.42 97.7 541.1 94.82 539.54 91.94 537.62 89.18 535.58 86.66 533.3 84.38 530.78 82.34 528.02 80.42 525.14 78.86 522.26 77.54 519.14 76.46 515.9 75.74 512.66 75.26 509.42 75.14 506.18 75.26 502.94 75.74 499.7 76.46 496.58 77.54 493.7 78.86 490.82 80.42 488.06 82.34 485.54 84.38 483.26 86.66 481.22 89.18 479.3 91.94 477.74 94.82 476.42 97.7 475.34 100.82 474.62 104.06 474.14 107.3 474.02 110.54 474.14 113.78 474.62 117.02 475.34 120.26 476.42 123.38 477.74 126.26 479.3 129.14 481.22 131.9 483.26 134.42 485.54 136.7 488.06 138.74 490.82 140.66 493.7 142.22 496.58 143.54 499.7 144.62 502.94 145.34 506.18 145.82 509.42 145.94 512.66 145.82 515.9 145.34 519.14 144.62 522.26 143.54 525.14 142.22 528.02 140.66 530.78 138.74 533.3 136.7 535.58 134.42 537.62 131.9 539.54 129.14 541.1 126.26 542.42 123.38 543.5 120.26 544.22 117.02 544.7 113.78 544.82 110.54"/>
  <polygon class="c" points="543.98 190.46 543.86 187.22 543.38 183.98 542.66 180.74 541.58 177.62 540.26 174.74 538.7 171.86 536.78 169.1 534.74 166.58 532.46 164.3 529.94 162.26 527.18 160.34 524.3 158.78 521.42 157.46 518.3 156.38 515.06 155.66 511.82 155.18 508.58 155.06 505.34 155.18 502.1 155.66 498.86 156.38 495.74 157.46 492.86 158.78 489.98 160.34 487.22 162.26 484.7 164.3 482.42 166.58 480.38 169.1 478.46 171.86 476.9 174.74 475.58 177.62 474.5 180.74 473.78 183.98 473.3 187.22 473.18 190.46 473.3 193.7 473.78 196.94 474.5 200.18 475.58 203.3 476.9 206.18 478.46 209.06 480.38 211.82 482.42 214.34 484.7 216.62 487.22 218.66 489.98 220.58 492.86 222.14 495.74 223.46 498.86 224.54 502.1 225.26 505.34 225.74 508.58 225.86 511.82 225.74 515.06 225.26 518.3 224.54 521.42 223.46 524.3 222.14 527.18 220.58 529.94 218.66 532.46 216.62 534.74 214.34 536.78 211.82 538.7 209.06 540.26 206.18 541.58 203.3 542.66 200.18 543.38 196.94 543.86 193.7 543.98 190.46"/>
  <polygon class="c" points="464.78 176.78 464.66 173.54 464.18 170.3 463.46 167.06 462.38 163.94 461.06 161.06 459.5 158.18 457.58 155.42 455.54 152.9 453.26 150.62 450.74 148.58 447.98 146.66 445.1 145.1 442.22 143.78 439.1 142.7 435.86 141.98 432.62 141.5 429.38 141.38 426.14 141.5 422.9 141.98 419.66 142.7 416.54 143.78 413.66 145.1 410.78 146.66 408.02 148.58 405.5 150.62 403.22 152.9 401.18 155.42 399.26 158.18 397.7 161.06 396.38 163.94 395.3 167.06 394.58 170.3 394.1 173.54 393.98 176.78 394.1 180.02 394.58 183.26 395.3 186.5 396.38 189.62 397.7 192.5 399.26 195.38 401.18 198.14 403.22 200.66 405.5 202.94 408.02 204.98 410.78 206.9 413.66 208.46 416.54 209.78 419.66 210.86 422.9 211.58 426.14 212.06 429.38 212.18 432.62 212.06 435.86 211.58 439.1 210.86 442.22 209.78 445.1 208.46 447.98 206.9 450.74 204.98 453.26 202.94 455.54 200.66 457.58 198.14 459.5 195.38 461.06 192.5 462.38 189.62 463.46 186.5 464.18 183.26 464.66 180.02 464.78 176.78"/>
  <polygon class="c" points="382.1 176.78 381.98 173.54 381.5 170.3 380.78 167.06 379.7 163.94 378.38 161.06 376.82 158.18 374.9 155.42 372.86 152.9 370.58 150.62 368.06 148.58 365.3 146.66 362.42 145.1 359.54 143.78 356.42 142.7 353.18 141.98 349.94 141.5 346.7 141.38 343.46 141.5 340.22 141.98 336.98 142.7 333.86 143.78 330.98 145.1 328.1 146.66 325.34 148.58 322.82 150.62 320.54 152.9 318.5 155.42 316.58 158.18 315.02 161.06 313.7 163.94 312.62 167.06 311.9 170.3 311.42 173.54 311.3 176.78 311.42 180.02 311.9 183.26 312.62 186.5 313.7 189.62 315.02 192.5 316.58 195.38 318.5 198.14 320.54 200.66 322.82 202.94 325.34 204.98 328.1 206.9 330.98 208.46 333.86 209.78 336.98 210.86 340.22 211.58 343.46 212.06 346.7 212.18 349.94 212.06 353.18 211.58 356.42 210.86 359.54 209.78 362.42 208.46 365.3 206.9 368.06 204.98 370.58 202.94 372.86 200.66 374.9 198.14 376.82 195.38 378.38 192.5 379.7 189.62 380.78 186.5 381.5 183.26 381.98 180.02 382.1 176.78"/>
  <polygon class="c" points="305.18 207.5 305.06 204.26 304.58 201.02 303.86 197.78 302.78 194.66 301.46 191.78 299.9 188.9 297.98 186.14 295.94 183.62 293.66 181.34 291.14 179.3 288.38 177.38 285.5 175.82 282.62 174.5 279.5 173.42 276.26 172.7 273.02 172.22 269.78 172.1 266.54 172.22 263.3 172.7 260.06 173.42 256.94 174.5 254.06 175.82 251.18 177.38 248.42 179.3 245.9 181.34 243.62 183.62 241.58 186.14 239.66 188.9 238.1 191.78 236.78 194.66 235.7 197.78 234.98 201.02 234.5 204.26 234.38 207.5 234.5 210.74 234.98 213.98 235.7 217.22 236.78 220.34 238.1 223.22 239.66 226.1 241.58 228.86 243.62 231.38 245.9 233.66 248.42 235.7 251.18 237.62 254.06 239.18 256.94 240.5 260.06 241.58 263.3 242.3 266.54 242.78 269.78 242.9 273.02 242.78 276.26 242.3 279.5 241.58 282.62 240.5 285.5 239.18 288.38 237.62 291.14 235.7 293.66 233.66 295.94 231.38 297.98 228.86 299.9 226.1 301.46 223.22 302.78 220.34 303.86 217.22 304.58 213.98 305.06 210.74 305.18 207.5"/>
  <polygon class="c" points="282.5 303.74 282.38 300.26 281.9 296.9 281.18 293.54 280.1 290.18 278.78 287.06 277.22 283.94 275.3 281.06 273.26 278.3 270.86 275.78 268.34 273.38 265.58 271.34 262.7 269.42 259.58 267.86 256.46 266.54 253.1 265.46 249.74 264.74 246.38 264.26 242.9 264.14 239.42 264.26 236.06 264.74 232.7 265.46 229.34 266.54 226.22 267.86 223.1 269.42 220.22 271.34 217.46 273.38 214.94 275.78 212.54 278.3 210.5 281.06 208.58 283.94 207.02 287.06 205.7 290.18 204.62 293.54 203.9 296.9 203.42 300.26 203.3 303.74 203.42 307.22 203.9 310.58 204.62 313.94 205.7 317.3 207.02 320.42 208.58 323.54 210.5 326.42 212.54 329.18 214.94 331.7 217.46 334.1 220.22 336.14 223.1 338.06 226.22 339.62 229.34 340.94 232.7 342.02 236.06 342.74 239.42 343.22 242.9 343.34 246.38 343.22 249.74 342.74 253.1 342.02 256.46 340.94 259.58 339.62 262.7 338.06 265.58 336.14 268.34 334.1 270.86 331.7 273.26 329.18 275.3 326.42 277.22 323.54 278.78 320.42 280.1 317.3 281.18 313.94 281.9 310.58 282.38 307.22 282.5 303.74"/>
  <polygon class="c" points="402.02 28.82 401.9 27.14 401.42 25.46 400.7 23.9 399.74 22.46 398.54 21.26 397.1 20.3 395.54 19.58 393.86 19.1 392.18 18.98 390.5 19.1 388.82 19.58 387.26 20.3 385.82 21.26 384.62 22.46 383.66 23.9 382.94 25.46 382.46 27.14 382.34 28.82 382.46 30.5 382.94 32.18 383.66 33.74 384.62 35.18 385.82 36.38 387.26 37.34 388.82 38.06 390.5 38.54 392.18 38.66 393.86 38.54 395.54 38.06 397.1 37.34 398.54 36.38 399.74 35.18 400.7 33.74 401.42 32.18 401.9 30.5 402.02 28.82"/>
  <polygon class="c" points="436.22 28.82 436.1 27.14 435.62 25.46 434.9 23.9 433.94 22.46 432.74 21.26 431.3 20.3 429.74 19.58 428.06 19.1 426.38 18.98 424.7 19.1 423.02 19.58 421.46 20.3 420.02 21.26 418.82 22.46 417.86 23.9 417.14 25.46 416.66 27.14 416.54 28.82 416.66 30.5 417.14 32.18 417.86 33.74 418.82 35.18 420.02 36.38 421.46 37.34 423.02 38.06 424.7 38.54 426.38 38.66 428.06 38.54 429.74 38.06 431.3 37.34 432.74 36.38 433.94 35.18 434.9 33.74 435.62 32.18 436.1 30.5 436.22 28.82"/>
  <polygon class="c" points="470.3 28.82 470.18 27.14 469.7 25.46 468.98 23.9 468.02 22.46 466.82 21.26 465.38 20.3 463.82 19.58 462.14 19.1 460.46 18.98 458.78 19.1 457.1 19.58 455.54 20.3 454.1 21.26 452.9 22.46 451.94 23.9 451.22 25.46 450.74 27.14 450.62 28.82 450.74 30.5 451.22 32.18 451.94 33.74 452.9 35.18 454.1 36.38 455.54 37.34 457.1 38.06 458.78 38.54 460.46 38.66 462.14 38.54 463.82 38.06 465.38 37.34 466.82 36.38 468.02 35.18 468.98 33.74 469.7 32.18 470.18 30.5 470.3 28.82"/>
  <polygon class="c" points="504.38 28.82 504.26 27.14 503.78 25.46 503.06 23.9 502.1 22.46 500.9 21.26 499.46 20.3 497.9 19.58 496.22 19.1 494.54 18.98 492.86 19.1 491.18 19.58 489.62 20.3 488.18 21.26 486.98 22.46 486.02 23.9 485.3 25.46 484.82 27.14 484.7 28.82 484.82 30.5 485.3 32.18 486.02 33.74 486.98 35.18 488.18 36.38 489.62 37.34 491.18 38.06 492.86 38.54 494.54 38.66 496.22 38.54 497.9 38.06 499.46 37.34 500.9 36.38 502.1 35.18 503.06 33.74 503.78 32.18 504.26 30.5 504.38 28.82"/>
  <polygon class="c" points="33.02 28.82 32.9 27.62 32.42 26.54 31.7 25.7 30.74 24.98 29.78 24.5 28.58 24.38 27.38 24.5 26.3 24.98 25.46 25.7 24.74 26.54 24.26 27.62 24.14 28.82 24.26 30.02 24.74 30.98 25.46 31.94 26.3 32.66 27.38 33.14 28.58 33.26 29.78 33.14 30.74 32.66 31.7 31.94 32.42 30.98 32.9 30.02 33.02 28.82"/>
  <polygon class="c" points="71.3 28.82 71.18 27.14 70.7 25.46 69.98 23.9 69.02 22.46 67.82 21.26 66.38 20.3 64.82 19.58 63.14 19.1 61.46 18.98 59.78 19.1 58.1 19.58 56.54 20.3 55.1 21.26 53.9 22.46 52.94 23.9 52.22 25.46 51.74 27.14 51.62 28.82 51.74 30.5 52.22 32.18 52.94 33.74 53.9 35.18 55.1 36.38 56.54 37.34 58.1 38.06 59.78 38.54 61.46 38.66 63.14 38.54 64.82 38.06 66.38 37.34 67.82 36.38 69.02 35.18 69.98 33.74 70.7 32.18 71.18 30.5 71.3 28.82"/>
  <polygon class="c" points="250.1 28.82 249.98 27.62 249.5 26.54 248.78 25.7 247.82 24.98 246.86 24.5 245.66 24.38 244.46 24.5 243.38 24.98 242.54 25.7 241.82 26.54 241.34 27.62 241.22 28.82 241.34 30.02 241.82 30.98 242.54 31.94 243.38 32.66 244.46 33.14 245.66 33.26 246.86 33.14 247.82 32.66 248.78 31.94 249.5 30.98 249.98 30.02 250.1 28.82"/>
  <polygon class="c" points="531.86 28.82 531.74 27.62 531.26 26.54 530.54 25.7 529.58 24.98 528.62 24.5 527.42 24.38 526.22 24.5 525.14 24.98 524.3 25.7 523.58 26.54 523.1 27.62 522.98 28.82 523.1 30.02 523.58 30.98 524.3 31.94 525.14 32.66 526.22 33.14 527.42 33.26 528.62 33.14 529.58 32.66 530.54 31.94 531.26 30.98 531.74 30.02 531.86 28.82"/>
  <polygon class="c" points="531.86 326.66 531.74 325.46 531.26 324.38 530.54 323.54 529.58 322.82 528.62 322.34 527.42 322.22 526.22 322.34 525.14 322.82 524.3 323.54 523.58 324.38 523.1 325.46 522.98 326.66 523.1 327.86 523.58 328.82 524.3 329.78 525.14 330.5 526.22 330.98 527.42 331.1 528.62 330.98 529.58 330.5 530.54 329.78 531.26 328.82 531.74 327.86 531.86 326.66"/>
  <polygon class="c" points="296.66 326.42 296.54 325.22 296.06 324.14 295.34 323.3 294.38 322.58 293.42 322.1 292.22 321.98 291.02 322.1 289.94 322.58 289.1 323.3 288.38 324.14 287.9 325.22 287.78 326.42 287.9 327.62 288.38 328.58 289.1 329.54 289.94 330.26 291.02 330.74 292.22 330.86 293.42 330.74 294.38 330.26 295.34 329.54 296.06 328.58 296.54 327.62 296.66 326.42"/>
  <polygon class="c" points="33.02 326.66 32.9 325.46 32.42 324.38 31.7 323.54 30.74 322.82 29.78 322.34 28.58 322.22 27.38 322.34 26.3 322.82 25.46 323.54 24.74 324.38 24.26 325.46 24.14 326.66 24.26 327.86 24.74 328.82 25.46 329.78 26.3 330.5 27.38 330.98 28.58 331.1 29.78 330.98 30.74 330.5 31.7 329.78 32.42 328.82 32.9 327.86 33.02 326.66"/>
  <polygon class="c" points="368.06 28.82 367.94 27.14 367.46 25.46 366.74 23.9 365.78 22.46 364.58 21.26 363.14 20.3 361.58 19.58 359.9 19.1 358.22 18.98 356.54 19.1 354.86 19.58 353.3 20.3 351.86 21.26 350.66 22.46 349.7 23.9 348.98 25.46 348.5 27.14 348.38 28.82 348.5 30.5 348.98 32.18 349.7 33.74 350.66 35.18 351.86 36.38 353.3 37.34 354.86 38.06 356.54 38.54 358.22 38.66 359.9 38.54 361.58 38.06 363.14 37.34 364.58 36.38 365.78 35.18 366.74 33.74 367.46 32.18 367.94 30.5 368.06 28.82"/>
  <polygon class="c" points="333.98 28.82 333.86 27.14 333.38 25.46 332.66 23.9 331.7 22.46 330.5 21.26 329.06 20.3 327.5 19.58 325.82 19.1 324.14 18.98 322.46 19.1 320.78 19.58 319.22 20.3 317.78 21.26 316.58 22.46 315.62 23.9 314.9 25.46 314.42 27.14 314.3 28.82 314.42 30.5 314.9 32.18 315.62 33.74 316.58 35.18 317.78 36.38 319.22 37.34 320.78 38.06 322.46 38.54 324.14 38.66 325.82 38.54 327.5 38.06 329.06 37.34 330.5 36.38 331.7 35.18 332.66 33.74 333.38 32.18 333.86 30.5 333.98 28.82"/>
  <rect class="b" x="49.58" y="192.02" width="61.68" height="30.84"/>
</svg>