<?xml version="1.0" encoding="UTF-8"?>
<svg id="a" data-name="Layer 1" xmlns="http://www.w3.org/2000/svg" viewBox="0 0 556.48 355.12">
  <defs>
    <style>
      .b {
        fill: none;
        stroke: #000;
        stroke-linecap: round;
        stroke-linejoin: bevel;
      }
    </style>
  </defs>
  <polygon class="b" points="42.98 .5 39.26 .62 35.66 1.1 31.94 1.94 28.46 3.02 24.98 4.46 21.74 6.14 18.62 8.18 15.62 10.46 12.98 12.98 10.46 15.62 8.18 18.62 6.14 21.74 4.46 24.98 3.02 28.46 1.94 31.94 1.1 35.66 .62 39.26 .5 42.98 .5 312.14 .62 315.86 1.1 319.46 1.94 323.18 3.02 326.66 4.46 330.14 6.14 333.38 8.18 336.5 10.46 339.5 12.98 342.14 15.62 344.66 18.62 346.94 21.74 348.98 24.98 350.66 28.46 352.1 31.94 353.18 35.66 354.02 39.26 354.5 42.98 354.62 513.5 354.62 517.22 354.5 520.82 354.02 524.54 353.18 528.02 352.1 531.5 350.66 534.74 348.98 537.86 346.94 540.86 344.66 543.5 342.14 546.02 339.5 548.3 336.5 550.34 333.38 552.02 330.14 553.46 326.66 554.54 323.18 555.38 319.46 555.86 315.86 555.98 312.14 555.98 42.98 555.86 39.26 555.38 35.66 554.54 31.94 553.46 28.46 552.02 24.98 550.34 21.74 548.3 18.62 546.02 15.62 543.5 12.98 540.86 10.46 537.86 8.18 534.74 6.14 531.5 4.46 528.02 3.02 524.54 1.94 520.82 1.1 517.22 .62 513.5 .5 42.98 .5"/>
  <polygon class="b" points="532.82 28.82 532.7 27.62 532.22 26.42 531.5 25.46 530.54 24.62 529.46 24.14 528.26 23.9 526.94 24.02 525.86 24.38 524.78 24.98 523.94 25.94 523.34 27.02 522.98 28.22 522.98 29.42 523.34 30.62 523.94 31.7 524.78 32.66 525.86 33.26 526.94 33.62 528.26 33.74 529.46 33.5 530.54 33.02 531.5 32.18 532.22 31.22 532.7 30.02 532.82 28.82"/>
  <polygon class="b" points="315.62 28.82 315.5 27.62 315.02 26.42 314.3 25.46 313.34 24.62 312.26 24.14 311.06 23.9 309.74 24.02 308.66 24.38 307.58 24.98 306.74 25.94 306.14 27.02 305.78 28.22 305.78 29.42 306.14 30.62 306.74 31.7 307.58 32.66 308.66 33.26 309.74 33.62 311.06 33.74 312.26 33.5 313.34 33.02 314.3 32.18 315.02 31.22 315.5 30.02 315.62 28.82"/>
  <polygon class="b" points="33.86 28.82 33.74 27.62 33.26 26.42 32.54 25.46 31.58 24.62 30.5 24.14 29.3 23.9 27.98 24.02 26.9 24.38 25.82 24.98 24.98 25.94 24.38 27.02 24.02 28.22 24.02 29.42 24.38 30.62 24.98 31.7 25.82 32.66 26.9 33.26 27.98 33.62 29.3 33.74 30.5 33.5 31.58 33.02 32.54 32.18 33.26 31.22 33.74 30.02 33.86 28.82"/>
  <polygon class="b" points="33.86 326.66 33.74 325.46 33.26 324.26 32.54 323.3 31.58 322.46 30.5 321.98 29.3 321.74 27.98 321.86 26.9 322.22 25.82 322.82 24.98 323.78 24.38 324.86 24.02 326.06 24.02 327.26 24.38 328.46 24.98 329.54 25.82 330.5 26.9 331.1 27.98 331.46 29.3 331.58 30.5 331.34 31.58 330.86 32.54 330.02 33.26 329.06 33.74 327.86 33.86 326.66"/>
  <polygon class="b" points="269.18 326.3 269.06 325.1 268.58 323.9 267.86 322.94 266.9 322.1 265.82 321.62 264.62 321.38 263.3 321.5 262.22 321.86 261.14 322.46 260.3 323.42 259.7 324.5 259.34 325.7 259.34 326.9 259.7 328.1 260.3 329.18 261.14 330.14 262.22 330.74 263.3 331.1 264.62 331.22 265.82 330.98 266.9 330.5 267.86 329.66 268.58 328.7 269.06 327.5 269.18 326.3"/>
  <polygon class="b" points="532.82 326.66 532.7 325.46 532.22 324.26 531.5 323.3 530.54 322.46 529.46 321.98 528.26 321.74 526.94 321.86 525.86 322.22 524.78 322.82 523.94 323.78 523.34 324.86 522.98 326.06 522.98 327.26 523.34 328.46 523.94 329.54 524.78 330.5 525.86 331.1 526.94 331.46 528.26 331.58 529.46 331.34 530.54 330.86 531.5 330.02 532.22 329.06 532.7 327.86 532.82 326.66"/>
  <polygon class="b" points="513.26 79.46 513.14 78.62 512.66 77.78 512.06 77.18 511.22 76.82 510.26 76.7 509.42 76.94 508.58 77.42 508.1 78.14 507.74 78.98 507.74 79.94 508.1 80.78 508.58 81.5 509.42 81.98 510.26 82.22 511.22 82.1 512.06 81.74 512.66 81.14 513.14 80.3 513.26 79.46"/>
</svg>