<?xml version="1.0" encoding="UTF-8"?>
<svg id="a" data-name="Layer 1" xmlns="http://www.w3.org/2000/svg" viewBox="0 0 1033.63 493.06">
  <defs>
    <style>
      .b {
        stroke-miterlimit: 10;
      }

      .b, .c {
        fill: none;
        stroke: #000;
      }

      .c {
        stroke-linecap: round;
        stroke-linejoin: round;
      }
    </style>
  </defs>
  <circle class="c" cx="280.12" cy="320.09" r="35.57" transform="translate(-95.76 519.18) rotate(-76.72)"/>
  <circle class="c" cx="27.84" cy="458.7" r="8.5" transform="translate(-406.6 308.88) rotate(-67.5)"/>
  <circle class="c" cx="27.84" cy="28.12" r="8.5" transform="translate(-5.93 48.75) rotate(-76.72)"/>
  <circle class="c" cx="473.16" cy="379.9" r="49.32" transform="translate(-54.74 80.7) rotate(-9.22)"/>
  <circle class="c" cx="483.65" cy="262.26" r="49.32" transform="translate(-63.55 205.05) rotate(-22.5)"/>
  <circle class="c" cx="569.54" cy="333.13" r="49.32"/>
  <circle class="c" cx="674.42" cy="333.13" r="49.32"/>
  <circle class="c" cx="516.81" cy="465.79" r="8.5" transform="translate(-138.91 233.23) rotate(-22.5)"/>
  <circle class="c" cx="516.81" cy="116.76" r="8.5" transform="translate(211.17 549.55) rotate(-67.5)"/>
  <circle class="c" cx="373.66" cy="28.12" r="8.5" transform="translate(260.44 385.33) rotate(-76.72)"/>
  <circle class="c" cx="590.51" cy="222.58" r="49.32" transform="translate(-40.23 242.92) rotate(-22.5)"/>
  <circle class="c" cx="695.4" cy="222.58" r="49.32" transform="translate(-32.24 283.06) rotate(-22.5)"/>
  <circle class="c" cx="659.96" cy="28.12" r="8.5" transform="translate(381.42 627.09) rotate(-67.5)"/>
  <circle class="c" cx="779.3" cy="333.13" r="49.32"/>
  <circle class="c" cx="800.28" cy="222.58" r="49.32" transform="translate(-24.26 323.2) rotate(-22.5)"/>
  <circle class="c" cx="1005.79" cy="28.12" r="8.5" transform="translate(594.91 946.59) rotate(-67.5)"/>
  <circle class="c" cx="1005.79" cy="458.7" r="8.5" transform="translate(-98.98 419.82) rotate(-22.5)"/>
  <path class="b" d="M5.44.5C2.72.5.5,2.72.5,5.44v482.17c0,2.73,2.22,4.94,4.94,4.94h1022.74c2.73,0,4.95-2.22,4.95-4.94V5.44c0-2.73-2.22-4.94-4.95-4.94h-398.2c-.38,0-.69.31-.69.69l.08,57.26c0,.65-.25,1.26-.71,1.72l-15.37,15.43c-.46.46-1.07.71-1.72.71h-189.63c-.64,0-1.25-.25-1.7-.7l-15.39-15.41c-.45-.46-.7-1.06-.7-1.71V1.19c0-.38-.31-.69-.69-.69H5.44Z"/>
</svg>