<?xml version="1.0" encoding="UTF-8"?>
<svg id="a" data-name="Layer 1" xmlns="http://www.w3.org/2000/svg" viewBox="0 0 675.65 467.15">
  <defs>
    <style>
      .b {
        fill: none;
        stroke: #000;
        stroke-linecap: round;
        stroke-linejoin: round;
      }
    </style>
  </defs>
  <circle class="b" cx="203.93" cy="356.28" r="42.24"/>
  <circle class="b" cx="401.99" cy="321.7" r="42.24"/>
  <circle class="b" cx="345.96" cy="81.48" r="42.24"/>
  <path class="b" d="M.5,458.15V9c0-4.7,3.81-8.5,8.5-8.5,0,0,657.64,0,657.64,0,4.7,0,8.5,3.81,8.5,8.5v449.14c-.01,1.05-.2,2.12-.59,3.11-.2.5-.44.98-.73,1.44s-.63.9-1.01,1.3c-.78.82-1.72,1.48-2.76,1.94s-2.25.73-3.42.72H9c-1.16,0-2.34-.24-3.42-.72s-1.98-1.12-2.76-1.94-1.35-1.72-1.74-2.74-.57-2.05-.59-3.11Z"/>
  <rect class="b" x="30.93" y="8" width="83.62" height="52.44" rx="3.4" ry="3.4"/>
  <circle class="b" cx="415.39" cy="26.01" r="11.34"/>
  <circle class="b" cx="382.99" cy="26.01" r="3.54"/>
  <circle class="b" cx="488.64" cy="26.01" r="11.34"/>
  <circle class="b" cx="452.02" cy="26.01" r="11.34"/>
  <circle class="b" cx="561.89" cy="26.01" r="11.34"/>
  <circle class="b" cx="525.26" cy="26.01" r="11.34"/>
  <circle class="b" cx="635.13" cy="26.01" r="11.34"/>
  <circle class="b" cx="598.51" cy="26.01" r="11.34"/>
  <circle class="b" cx="327.2" cy="266.47" r="42.24"/>
  <circle class="b" cx="293.74" cy="377.51" r="42.24"/>
  <circle class="b" cx="166.12" cy="173.45" r="42.24"/>
  <circle class="b" cx="73.17" cy="171.14" r="42.24"/>
  <circle class="b" cx="335.52" cy="173.87" r="42.24"/>
  <circle class="b" cx="250.72" cy="211.99" r="42.24"/>
  <circle class="b" cx="186.65" cy="84.22" r="42.24"/>
  <circle class="b" cx="597.85" cy="240.92" r="42.24"/>
  <circle class="b" cx="420.75" cy="136.71" r="42.24"/>
  <circle class="b" cx="505.34" cy="231.57" r="42.24"/>
  <circle class="b" cx="412.42" cy="229.32" r="42.24"/>
  <circle class="b" cx="513.67" cy="138.97" r="42.24"/>
  <circle class="b" cx="606.18" cy="148.31" r="42.24"/>
</svg>