<?xml version="1.0" encoding="UTF-8"?>
<svg id="a" data-name="Layer 1" xmlns="http://www.w3.org/2000/svg" viewBox="0 0 556.36 355.36">
  <defs>
    <style>
      .b {
        stroke-linejoin: round;
      }

      .b, .c {
        fill: none;
        stroke: #000;
        stroke-linecap: round;
      }

      .c {
        stroke-linejoin: bevel;
      }
    </style>
  </defs>
  <polyline class="c" points="513.38 354.74 517.1 354.62 520.7 354.14 524.42 353.3 527.9 352.22 531.38 350.78 534.62 349.1 537.74 347.06 540.74 344.78 543.38 342.26 545.9 339.62 548.18 336.62 550.22 333.5 551.9 330.26 553.34 326.78 554.42 323.3 555.26 319.58 555.74 315.98 555.86 312.26 555.86 42.98 555.74 39.26 555.26 35.66 554.42 31.94 553.34 28.46 551.9 24.98 550.22 21.74 548.18 18.62 545.9 15.62 543.38 12.98 540.74 10.46 537.74 8.18 534.62 6.14 531.38 4.46 527.9 3.02 524.42 1.94 520.7 1.1 517.1 .62 513.38 .5 42.98 .5 39.26 .62 35.66 1.1 31.94 1.94 28.46 3.02 24.98 4.46 21.74 6.14 18.62 8.18 15.62 10.46 12.98 12.98 10.46 15.62 8.18 18.62 6.14 21.74 4.46 24.98 3.02 28.46 1.94 31.94 1.1 35.66 .62 39.26 .5 42.98 .5 312.26 .62 315.98 1.1 319.58 1.94 323.3 3.02 326.78 4.46 330.26 6.14 333.5 8.18 336.62 10.46 339.62 12.98 342.26 15.62 344.78 18.62 347.06 21.74 349.1 24.98 350.78 28.46 352.22 31.94 353.3 35.66 354.14 39.26 354.62 42.98 354.74 42.98 354.86 513.38 354.86"/>
  <polygon class="c" points="183.74 49.7 183.62 46.46 183.14 43.22 182.42 39.98 181.34 36.86 180.02 33.98 178.46 31.1 176.54 28.34 174.5 25.82 172.22 23.54 169.7 21.5 166.94 19.58 164.06 18.02 161.18 16.7 158.06 15.62 154.82 14.9 151.58 14.42 148.34 14.3 145.1 14.42 141.86 14.9 138.62 15.62 135.5 16.7 132.62 18.02 129.74 19.58 126.98 21.5 124.46 23.54 122.18 25.82 120.14 28.34 118.22 31.1 116.66 33.98 115.34 36.86 114.26 39.98 113.54 43.22 113.06 46.46 112.94 49.7 113.06 52.94 113.54 56.18 114.26 59.42 115.34 62.54 116.66 65.42 118.22 68.3 120.14 71.06 122.18 73.58 124.46 75.86 126.98 77.9 129.74 79.82 132.62 81.38 135.5 82.7 138.62 83.78 141.86 84.5 145.1 84.98 148.34 85.1 151.58 84.98 154.82 84.5 158.06 83.78 161.18 82.7 164.06 81.38 166.94 79.82 169.7 77.9 172.22 75.86 174.5 73.58 176.54 71.06 178.46 68.3 180.02 65.42 181.34 62.54 182.42 59.42 183.14 56.18 183.62 52.94 183.74 49.7"/>
  <polygon class="c" points="82.82 124.1 82.7 120.86 82.22 117.62 81.5 114.38 80.42 111.26 79.1 108.38 77.54 105.5 75.62 102.74 73.58 100.22 71.3 97.94 68.78 95.9 66.02 93.98 63.14 92.42 60.26 91.1 57.14 90.02 53.9 89.3 50.66 88.82 47.42 88.7 44.18 88.82 40.94 89.3 37.7 90.02 34.58 91.1 31.7 92.42 28.82 93.98 26.06 95.9 23.54 97.94 21.26 100.22 19.22 102.74 17.3 105.5 15.74 108.38 14.42 111.26 13.34 114.38 12.62 117.62 12.14 120.86 12.02 124.1 12.14 127.34 12.62 130.58 13.34 133.82 14.42 136.94 15.74 139.82 17.3 142.7 19.22 145.46 21.26 147.98 23.54 150.26 26.06 152.3 28.82 154.22 31.7 155.78 34.58 157.1 37.7 158.18 40.94 158.9 44.18 159.38 47.42 159.5 50.66 159.38 53.9 158.9 57.14 158.18 60.26 157.1 63.14 155.78 66.02 154.22 68.78 152.3 71.3 150.26 73.58 147.98 75.62 145.46 77.54 142.7 79.1 139.82 80.42 136.94 81.5 133.82 82.22 130.58 82.7 127.34 82.82 124.1"/>
  <polygon class="c" points="163.46 124.1 163.34 120.86 162.86 117.62 162.14 114.38 161.06 111.26 159.74 108.38 158.18 105.5 156.26 102.74 154.22 100.22 151.94 97.94 149.42 95.9 146.66 93.98 143.78 92.42 140.9 91.1 137.78 90.02 134.54 89.3 131.3 88.82 128.06 88.7 124.82 88.82 121.58 89.3 118.34 90.02 115.22 91.1 112.34 92.42 109.46 93.98 106.7 95.9 104.18 97.94 101.9 100.22 99.86 102.74 97.94 105.5 96.38 108.38 95.06 111.26 93.98 114.38 93.26 117.62 92.78 120.86 92.66 124.1 92.78 127.34 93.26 130.58 93.98 133.82 95.06 136.94 96.38 139.82 97.94 142.7 99.86 145.46 101.9 147.98 104.18 150.26 106.7 152.3 109.46 154.22 112.34 155.78 115.22 157.1 118.34 158.18 121.58 158.9 124.82 159.38 128.06 159.5 131.3 159.38 134.54 158.9 137.78 158.18 140.9 157.1 143.78 155.78 146.66 154.22 149.42 152.3 151.94 150.26 154.22 147.98 156.26 145.46 158.18 142.7 159.74 139.82 161.06 136.94 162.14 133.82 162.86 130.58 163.34 127.34 163.46 124.1"/>
  <polygon class="c" points="235.7 159.5 235.58 156.26 235.1 153.02 234.38 149.78 233.3 146.66 231.98 143.78 230.42 140.9 228.5 138.14 226.46 135.62 224.18 133.34 221.66 131.3 218.9 129.38 216.02 127.82 213.14 126.5 210.02 125.42 206.78 124.7 203.54 124.22 200.3 124.1 197.06 124.22 193.82 124.7 190.58 125.42 187.46 126.5 184.58 127.82 181.7 129.38 178.94 131.3 176.42 133.34 174.14 135.62 172.1 138.14 170.18 140.9 168.62 143.78 167.3 146.66 166.22 149.78 165.5 153.02 165.02 156.26 164.9 159.5 165.02 162.74 165.5 165.98 166.22 169.22 167.3 172.34 168.62 175.22 170.18 178.1 172.1 180.86 174.14 183.38 176.42 185.66 178.94 187.7 181.7 189.62 184.58 191.18 187.46 192.5 190.58 193.58 193.82 194.3 197.06 194.78 200.3 194.9 203.54 194.78 206.78 194.3 210.02 193.58 213.14 192.5 216.02 191.18 218.9 189.62 221.66 187.7 224.18 185.66 226.46 183.38 228.5 180.86 230.42 178.1 231.98 175.22 233.3 172.34 234.38 169.22 235.1 165.98 235.58 162.74 235.7 159.5"/>
  <polygon class="c" points="322.58 49.1 322.46 45.86 321.98 42.62 321.26 39.38 320.18 36.26 318.86 33.38 317.3 30.5 315.38 27.74 313.34 25.22 311.06 22.94 308.54 20.9 305.78 18.98 302.9 17.42 300.02 16.1 296.9 15.02 293.66 14.3 290.42 13.82 287.18 13.7 283.94 13.82 280.7 14.3 277.46 15.02 274.34 16.1 271.46 17.42 268.58 18.98 265.82 20.9 263.3 22.94 261.02 25.22 258.98 27.74 257.06 30.5 255.5 33.38 254.18 36.26 253.1 39.38 252.38 42.62 251.9 45.86 251.78 49.1 251.9 52.34 252.38 55.58 253.1 58.82 254.18 61.94 255.5 64.82 257.06 67.7 258.98 70.46 261.02 72.98 263.3 75.26 265.82 77.3 268.58 79.22 271.46 80.78 274.34 82.1 277.46 83.18 280.7 83.9 283.94 84.38 287.18 84.5 290.42 84.38 293.66 83.9 296.9 83.18 300.02 82.1 302.9 80.78 305.78 79.22 308.54 77.3 311.06 75.26 313.34 72.98 315.38 70.46 317.3 67.7 318.86 64.82 320.18 61.94 321.26 58.82 321.98 55.58 322.46 52.34 322.58 49.1"/>
  <polygon class="c" points="312.38 126.74 312.26 123.5 311.78 120.26 311.06 117.02 309.98 113.9 308.66 111.02 307.1 108.14 305.18 105.38 303.14 102.86 300.86 100.58 298.34 98.54 295.58 96.62 292.7 95.06 289.82 93.74 286.7 92.66 283.46 91.94 280.22 91.46 276.98 91.34 273.74 91.46 270.5 91.94 267.26 92.66 264.14 93.74 261.26 95.06 258.38 96.62 255.62 98.54 253.1 100.58 250.82 102.86 248.78 105.38 246.86 108.14 245.3 111.02 243.98 113.9 242.9 117.02 242.18 120.26 241.7 123.5 241.58 126.74 241.7 129.98 242.18 133.22 242.9 136.46 243.98 139.58 245.3 142.46 246.86 145.34 248.78 148.1 250.82 150.62 253.1 152.9 255.62 154.94 258.38 156.86 261.26 158.42 264.14 159.74 267.26 160.82 270.5 161.54 273.74 162.02 276.98 162.14 280.22 162.02 283.46 161.54 286.7 160.82 289.82 159.74 292.7 158.42 295.58 156.86 298.34 154.94 300.86 152.9 303.14 150.62 305.18 148.1 307.1 145.34 308.66 142.46 309.98 139.58 311.06 136.46 311.78 133.22 312.26 129.98 312.38 126.74"/>
  <polygon class="c" points="386.54 94.46 386.42 91.22 385.94 87.98 385.22 84.74 384.14 81.62 382.82 78.74 381.26 75.86 379.34 73.1 377.3 70.58 375.02 68.3 372.5 66.26 369.74 64.34 366.86 62.78 363.98 61.46 360.86 60.38 357.62 59.66 354.38 59.18 351.14 59.06 347.9 59.18 344.66 59.66 341.42 60.38 338.3 61.46 335.42 62.78 332.54 64.34 329.78 66.26 327.26 68.3 324.98 70.58 322.94 73.1 321.02 75.86 319.46 78.74 318.14 81.62 317.06 84.74 316.34 87.98 315.86 91.22 315.74 94.46 315.86 97.7 316.34 100.94 317.06 104.18 318.14 107.3 319.46 110.18 321.02 113.06 322.94 115.82 324.98 118.34 327.26 120.62 329.78 122.66 332.54 124.58 335.42 126.14 338.3 127.46 341.42 128.54 344.66 129.26 347.9 129.74 351.14 129.86 354.38 129.74 357.62 129.26 360.86 128.54 363.98 127.46 366.86 126.14 369.74 124.58 372.5 122.66 375.02 120.62 377.3 118.34 379.34 115.82 381.26 113.06 382.82 110.18 384.14 107.3 385.22 104.18 385.94 100.94 386.42 97.7 386.54 94.46"/>
  <polygon class="c" points="465.26 96.74 465.14 93.5 464.66 90.26 463.94 87.02 462.86 83.9 461.54 81.02 459.98 78.14 458.06 75.38 456.02 72.86 453.74 70.58 451.22 68.54 448.46 66.62 445.58 65.06 442.7 63.74 439.58 62.66 436.34 61.94 433.1 61.46 429.86 61.34 426.62 61.46 423.38 61.94 420.14 62.66 417.02 63.74 414.14 65.06 411.26 66.62 408.5 68.54 405.98 70.58 403.7 72.86 401.66 75.38 399.74 78.14 398.18 81.02 396.86 83.9 395.78 87.02 395.06 90.26 394.58 93.5 394.46 96.74 394.58 99.98 395.06 103.22 395.78 106.46 396.86 109.58 398.18 112.46 399.74 115.34 401.66 118.1 403.7 120.62 405.98 122.9 408.5 124.94 411.26 126.86 414.14 128.42 417.02 129.74 420.14 130.82 423.38 131.54 426.62 132.02 429.86 132.14 433.1 132.02 436.34 131.54 439.58 130.82 442.7 129.74 445.58 128.42 448.46 126.86 451.22 124.94 453.74 122.9 456.02 120.62 458.06 118.1 459.98 115.34 461.54 112.46 462.86 109.58 463.94 106.46 464.66 103.22 465.14 99.98 465.26 96.74"/>
  <polygon class="c" points="544.82 110.66 544.7 107.42 544.22 104.18 543.5 100.94 542.42 97.82 541.1 94.94 539.54 92.06 537.62 89.3 535.58 86.78 533.3 84.5 530.78 82.46 528.02 80.54 525.14 78.98 522.26 77.66 519.14 76.58 515.9 75.86 512.66 75.38 509.42 75.26 506.18 75.38 502.94 75.86 499.7 76.58 496.58 77.66 493.7 78.98 490.82 80.54 488.06 82.46 485.54 84.5 483.26 86.78 481.22 89.3 479.3 92.06 477.74 94.94 476.42 97.82 475.34 100.94 474.62 104.18 474.14 107.42 474.02 110.66 474.14 113.9 474.62 117.14 475.34 120.38 476.42 123.5 477.74 126.38 479.3 129.26 481.22 132.02 483.26 134.54 485.54 136.82 488.06 138.86 490.82 140.78 493.7 142.34 496.58 143.66 499.7 144.74 502.94 145.46 506.18 145.94 509.42 146.06 512.66 145.94 515.9 145.46 519.14 144.74 522.26 143.66 525.14 142.34 528.02 140.78 530.78 138.86 533.3 136.82 535.58 134.54 537.62 132.02 539.54 129.26 541.1 126.38 542.42 123.5 543.5 120.38 544.22 117.14 544.7 113.9 544.82 110.66"/>
  <polygon class="c" points="543.98 190.46 543.86 187.22 543.38 183.98 542.66 180.74 541.58 177.62 540.26 174.74 538.7 171.86 536.78 169.1 534.74 166.58 532.46 164.3 529.94 162.26 527.18 160.34 524.3 158.78 521.42 157.46 518.3 156.38 515.06 155.66 511.82 155.18 508.58 155.06 505.34 155.18 502.1 155.66 498.86 156.38 495.74 157.46 492.86 158.78 489.98 160.34 487.22 162.26 484.7 164.3 482.42 166.58 480.38 169.1 478.46 171.86 476.9 174.74 475.58 177.62 474.5 180.74 473.78 183.98 473.3 187.22 473.18 190.46 473.3 193.7 473.78 196.94 474.5 200.18 475.58 203.3 476.9 206.18 478.46 209.06 480.38 211.82 482.42 214.34 484.7 216.62 487.22 218.66 489.98 220.58 492.86 222.14 495.74 223.46 498.86 224.54 502.1 225.26 505.34 225.74 508.58 225.86 511.82 225.74 515.06 225.26 518.3 224.54 521.42 223.46 524.3 222.14 527.18 220.58 529.94 218.66 532.46 216.62 534.74 214.34 536.78 211.82 538.7 209.06 540.26 206.18 541.58 203.3 542.66 200.18 543.38 196.94 543.86 193.7 543.98 190.46"/>
  <polygon class="c" points="464.78 176.78 464.66 173.54 464.18 170.3 463.46 167.06 462.38 163.94 461.06 161.06 459.5 158.18 457.58 155.42 455.54 152.9 453.26 150.62 450.74 148.58 447.98 146.66 445.1 145.1 442.22 143.78 439.1 142.7 435.86 141.98 432.62 141.5 429.38 141.38 426.14 141.5 422.9 141.98 419.66 142.7 416.54 143.78 413.66 145.1 410.78 146.66 408.02 148.58 405.5 150.62 403.22 152.9 401.18 155.42 399.26 158.18 397.7 161.06 396.38 163.94 395.3 167.06 394.58 170.3 394.1 173.54 393.98 176.78 394.1 180.02 394.58 183.26 395.3 186.5 396.38 189.62 397.7 192.5 399.26 195.38 401.18 198.14 403.22 200.66 405.5 202.94 408.02 204.98 410.78 206.9 413.66 208.46 416.54 209.78 419.66 210.86 422.9 211.58 426.14 212.06 429.38 212.18 432.62 212.06 435.86 211.58 439.1 210.86 442.22 209.78 445.1 208.46 447.98 206.9 450.74 204.98 453.26 202.94 455.54 200.66 457.58 198.14 459.5 195.38 461.06 192.5 462.38 189.62 463.46 186.5 464.18 183.26 464.66 180.02 464.78 176.78"/>
  <polygon class="c" points="381.98 176.78 381.86 173.54 381.38 170.3 380.66 167.06 379.58 163.94 378.26 161.06 376.7 158.18 374.78 155.42 372.74 152.9 370.46 150.62 367.94 148.58 365.18 146.66 362.3 145.1 359.42 143.78 356.3 142.7 353.06 141.98 349.82 141.5 346.58 141.38 343.34 141.5 340.1 141.98 336.86 142.7 333.74 143.78 330.86 145.1 327.98 146.66 325.22 148.58 322.7 150.62 320.42 152.9 318.38 155.42 316.46 158.18 314.9 161.06 313.58 163.94 312.5 167.06 311.78 170.3 311.3 173.54 311.18 176.78 311.3 180.02 311.78 183.26 312.5 186.5 313.58 189.62 314.9 192.5 316.46 195.38 318.38 198.14 320.42 200.66 322.7 202.94 325.22 204.98 327.98 206.9 330.86 208.46 333.74 209.78 336.86 210.86 340.1 211.58 343.34 212.06 346.58 212.18 349.82 212.06 353.06 211.58 356.3 210.86 359.42 209.78 362.3 208.46 365.18 206.9 367.94 204.98 370.46 202.94 372.74 200.66 374.78 198.14 376.7 195.38 378.26 192.5 379.58 189.62 380.66 186.5 381.38 183.26 381.86 180.02 381.98 176.78"/>
  <polygon class="c" points="305.18 207.5 305.06 204.26 304.58 201.02 303.86 197.78 302.78 194.66 301.46 191.78 299.9 188.9 297.98 186.14 295.94 183.62 293.66 181.34 291.14 179.3 288.38 177.38 285.5 175.82 282.62 174.5 279.5 173.42 276.26 172.7 273.02 172.22 269.78 172.1 266.54 172.22 263.3 172.7 260.06 173.42 256.94 174.5 254.06 175.82 251.18 177.38 248.42 179.3 245.9 181.34 243.62 183.62 241.58 186.14 239.66 188.9 238.1 191.78 236.78 194.66 235.7 197.78 234.98 201.02 234.5 204.26 234.38 207.5 234.5 210.74 234.98 213.98 235.7 217.22 236.78 220.34 238.1 223.22 239.66 226.1 241.58 228.86 243.62 231.38 245.9 233.66 248.42 235.7 251.18 237.62 254.06 239.18 256.94 240.5 260.06 241.58 263.3 242.3 266.54 242.78 269.78 242.9 273.02 242.78 276.26 242.3 279.5 241.58 282.62 240.5 285.5 239.18 288.38 237.62 291.14 235.7 293.66 233.66 295.94 231.38 297.98 228.86 299.9 226.1 301.46 223.22 302.78 220.34 303.86 217.22 304.58 213.98 305.06 210.74 305.18 207.5"/>
  <polygon class="c" points="370.1 258.74 369.98 255.5 369.5 252.26 368.78 249.02 367.7 245.9 366.38 243.02 364.82 240.14 362.9 237.38 360.86 234.86 358.58 232.58 356.06 230.54 353.3 228.62 350.42 227.06 347.54 225.74 344.42 224.66 341.18 223.94 337.94 223.46 334.7 223.34 331.46 223.46 328.22 223.94 324.98 224.66 321.86 225.74 318.98 227.06 316.1 228.62 313.34 230.54 310.82 232.58 308.54 234.86 306.5 237.38 304.58 240.14 303.02 243.02 301.7 245.9 300.62 249.02 299.9 252.26 299.42 255.5 299.3 258.74 299.42 261.98 299.9 265.22 300.62 268.46 301.7 271.58 303.02 274.46 304.58 277.34 306.5 280.1 308.54 282.62 310.82 284.9 313.34 286.94 316.1 288.86 318.98 290.42 321.86 291.74 324.98 292.82 328.22 293.54 331.46 294.02 334.7 294.14 337.94 294.02 341.18 293.54 344.42 292.82 347.54 291.74 350.42 290.42 353.3 288.86 356.06 286.94 358.58 284.9 360.86 282.62 362.9 280.1 364.82 277.34 366.38 274.46 367.7 271.58 368.78 268.46 369.5 265.22 369.98 261.98 370.1 258.74"/>
  <polygon class="c" points="187.1 296.3 186.98 293.06 186.5 289.82 185.78 286.58 184.7 283.46 183.38 280.58 181.82 277.7 179.9 274.94 177.86 272.42 175.58 270.14 173.06 268.1 170.3 266.18 167.42 264.62 164.54 263.3 161.42 262.22 158.18 261.5 154.94 261.02 151.7 260.9 148.46 261.02 145.22 261.5 141.98 262.22 138.86 263.3 135.98 264.62 133.1 266.18 130.34 268.1 127.82 270.14 125.54 272.42 123.5 274.94 121.58 277.7 120.02 280.58 118.7 283.46 117.62 286.58 116.9 289.82 116.42 293.06 116.3 296.3 116.42 299.54 116.9 302.78 117.62 306.02 118.7 309.14 120.02 312.02 121.58 314.9 123.5 317.66 125.54 320.18 127.82 322.46 130.34 324.5 133.1 326.42 135.98 327.98 138.86 329.3 141.98 330.38 145.22 331.1 148.46 331.58 151.7 331.7 154.94 331.58 158.18 331.1 161.42 330.38 164.54 329.3 167.42 327.98 170.3 326.42 173.06 324.5 175.58 322.46 177.86 320.18 179.9 317.66 181.82 314.9 183.38 312.02 184.7 309.14 185.78 306.02 186.5 302.78 186.98 299.54 187.1 296.3"/>
  <polygon class="c" points="282.5 303.86 282.38 300.38 281.9 297.02 281.18 293.66 280.1 290.3 278.78 287.18 277.22 284.06 275.3 281.18 273.26 278.42 270.86 275.9 268.34 273.5 265.58 271.46 262.7 269.54 259.58 267.98 256.46 266.66 253.1 265.58 249.74 264.86 246.38 264.38 242.9 264.26 239.42 264.38 236.06 264.86 232.7 265.58 229.34 266.66 226.22 267.98 223.1 269.54 220.22 271.46 217.46 273.5 214.94 275.9 212.54 278.42 210.5 281.18 208.58 284.06 207.02 287.18 205.7 290.3 204.62 293.66 203.9 297.02 203.42 300.38 203.3 303.86 203.42 307.34 203.9 310.7 204.62 314.06 205.7 317.42 207.02 320.54 208.58 323.66 210.5 326.54 212.54 329.3 214.94 331.82 217.46 334.22 220.22 336.26 223.1 338.18 226.22 339.74 229.34 341.06 232.7 342.14 236.06 342.86 239.42 343.34 242.9 343.46 246.38 343.34 249.74 342.86 253.1 342.14 256.46 341.06 259.58 339.74 262.7 338.18 265.58 336.26 268.34 334.22 270.86 331.82 273.26 329.3 275.3 326.54 277.22 323.66 278.78 320.54 280.1 317.42 281.18 314.06 281.9 310.7 282.38 307.34 282.5 303.86"/>
  <polygon class="c" points="402.02 28.82 401.9 27.14 401.42 25.46 400.7 23.9 399.74 22.46 398.54 21.26 397.1 20.3 395.54 19.58 393.86 19.1 392.18 18.98 390.5 19.1 388.82 19.58 387.26 20.3 385.82 21.26 384.62 22.46 383.66 23.9 382.94 25.46 382.46 27.14 382.34 28.82 382.46 30.5 382.94 32.18 383.66 33.74 384.62 35.18 385.82 36.38 387.26 37.34 388.82 38.06 390.5 38.54 392.18 38.66 393.86 38.54 395.54 38.06 397.1 37.34 398.54 36.38 399.74 35.18 400.7 33.74 401.42 32.18 401.9 30.5 402.02 28.82"/>
  <polygon class="c" points="436.22 28.82 436.1 27.14 435.62 25.46 434.9 23.9 433.94 22.46 432.74 21.26 431.3 20.3 429.74 19.58 428.06 19.1 426.38 18.98 424.7 19.1 423.02 19.58 421.46 20.3 420.02 21.26 418.82 22.46 417.86 23.9 417.14 25.46 416.66 27.14 416.54 28.82 416.66 30.5 417.14 32.18 417.86 33.74 418.82 35.18 420.02 36.38 421.46 37.34 423.02 38.06 424.7 38.54 426.38 38.66 428.06 38.54 429.74 38.06 431.3 37.34 432.74 36.38 433.94 35.18 434.9 33.74 435.62 32.18 436.1 30.5 436.22 28.82"/>
  <polygon class="c" points="470.3 28.82 470.18 27.14 469.7 25.46 468.98 23.9 468.02 22.46 466.82 21.26 465.38 20.3 463.82 19.58 462.14 19.1 460.46 18.98 458.78 19.1 457.1 19.58 455.54 20.3 454.1 21.26 452.9 22.46 451.94 23.9 451.22 25.46 450.74 27.14 450.62 28.82 450.74 30.5 451.22 32.18 451.94 33.74 452.9 35.18 454.1 36.38 455.54 37.34 457.1 38.06 458.78 38.54 460.46 38.66 462.14 38.54 463.82 38.06 465.38 37.34 466.82 36.38 468.02 35.18 468.98 33.74 469.7 32.18 470.18 30.5 470.3 28.82"/>
  <polygon class="c" points="504.38 28.82 504.26 27.14 503.78 25.46 503.06 23.9 502.1 22.46 500.9 21.26 499.46 20.3 497.9 19.58 496.22 19.1 494.54 18.98 492.86 19.1 491.18 19.58 489.62 20.3 488.18 21.26 486.98 22.46 486.02 23.9 485.3 25.46 484.82 27.14 484.7 28.82 484.82 30.5 485.3 32.18 486.02 33.74 486.98 35.18 488.18 36.38 489.62 37.34 491.18 38.06 492.86 38.54 494.54 38.66 496.22 38.54 497.9 38.06 499.46 37.34 500.9 36.38 502.1 35.18 503.06 33.74 503.78 32.18 504.26 30.5 504.38 28.82"/>
  <polygon class="c" points="33.02 28.82 32.9 27.62 32.42 26.54 31.7 25.7 30.74 24.98 29.78 24.5 28.58 24.38 27.38 24.5 26.3 24.98 25.46 25.7 24.74 26.54 24.26 27.62 24.14 28.82 24.26 30.02 24.74 30.98 25.46 31.94 26.3 32.66 27.38 33.14 28.58 33.26 29.78 33.14 30.74 32.66 31.7 31.94 32.42 30.98 32.9 30.02 33.02 28.82"/>
  <polygon class="c" points="71.3 28.82 71.18 27.14 70.7 25.46 69.98 23.9 69.02 22.46 67.82 21.26 66.38 20.3 64.82 19.58 63.14 19.1 61.46 18.98 59.78 19.1 58.1 19.58 56.54 20.3 55.1 21.26 53.9 22.46 52.94 23.9 52.22 25.46 51.74 27.14 51.62 28.82 51.74 30.5 52.22 32.18 52.94 33.74 53.9 35.18 55.1 36.38 56.54 37.34 58.1 38.06 59.78 38.54 61.46 38.66 63.14 38.54 64.82 38.06 66.38 37.34 67.82 36.38 69.02 35.18 69.98 33.74 70.7 32.18 71.18 30.5 71.3 28.82"/>
  <polygon class="c" points="250.1 28.82 249.98 27.62 249.5 26.54 248.78 25.7 247.82 24.98 246.86 24.5 245.66 24.38 244.46 24.5 243.38 24.98 242.54 25.7 241.82 26.54 241.34 27.62 241.22 28.82 241.34 30.02 241.82 30.98 242.54 31.94 243.38 32.66 244.46 33.14 245.66 33.26 246.86 33.14 247.82 32.66 248.78 31.94 249.5 30.98 249.98 30.02 250.1 28.82"/>
  <polygon class="c" points="531.86 28.82 531.74 27.62 531.26 26.54 530.54 25.7 529.58 24.98 528.62 24.5 527.42 24.38 526.22 24.5 525.14 24.98 524.3 25.7 523.58 26.54 523.1 27.62 522.98 28.82 523.1 30.02 523.58 30.98 524.3 31.94 525.14 32.66 526.22 33.14 527.42 33.26 528.62 33.14 529.58 32.66 530.54 31.94 531.26 30.98 531.74 30.02 531.86 28.82"/>
  <polygon class="c" points="531.86 326.78 531.74 325.58 531.26 324.5 530.54 323.66 529.58 322.94 528.62 322.46 527.42 322.34 526.22 322.46 525.14 322.94 524.3 323.66 523.58 324.5 523.1 325.58 522.98 326.78 523.1 327.98 523.58 328.94 524.3 329.9 525.14 330.62 526.22 331.1 527.42 331.22 528.62 331.1 529.58 330.62 530.54 329.9 531.26 328.94 531.74 327.98 531.86 326.78"/>
  <polygon class="c" points="296.54 326.42 296.42 325.22 295.94 324.14 295.22 323.3 294.26 322.58 293.3 322.1 292.1 321.98 290.9 322.1 289.82 322.58 288.98 323.3 288.26 324.14 287.78 325.22 287.66 326.42 287.78 327.62 288.26 328.58 288.98 329.54 289.82 330.26 290.9 330.74 292.1 330.86 293.3 330.74 294.26 330.26 295.22 329.54 295.94 328.58 296.42 327.62 296.54 326.42"/>
  <polygon class="c" points="33.02 326.78 32.9 325.58 32.42 324.5 31.7 323.66 30.74 322.94 29.78 322.46 28.58 322.34 27.38 322.46 26.3 322.94 25.46 323.66 24.74 324.5 24.26 325.58 24.14 326.78 24.26 327.98 24.74 328.94 25.46 329.9 26.3 330.62 27.38 331.1 28.58 331.22 29.78 331.1 30.74 330.62 31.7 329.9 32.42 328.94 32.9 327.98 33.02 326.78"/>
  <rect class="b" x="49.58" y="192.14" width="61.68" height="30.72"/>
</svg>