<?xml version="1.0" encoding="UTF-8"?>
<svg id="a" data-name="Layer 1" xmlns="http://www.w3.org/2000/svg" viewBox="0 0 845.68 563.44">
  <defs>
    <style>
      .b {
        fill: none;
        stroke: #000;
        stroke-linecap: round;
        stroke-linejoin: round;
      }
    </style>
  </defs>
  <line class="b" x1="836.66" y1=".5" x2="9.02" y2=".5"/>
  <polygon class="b" points="420.98 377.42 420.74 372.98 420.02 368.66 418.94 364.34 417.38 360.26 415.34 356.3 412.94 352.58 410.18 349.22 407.06 346.1 403.58 343.34 399.86 340.82 395.9 338.9 391.82 337.34 387.5 336.14 383.18 335.42 378.74 335.18 374.3 335.42 369.98 336.14 365.66 337.34 361.58 338.9 357.62 340.82 353.9 343.34 350.54 346.1 347.42 349.22 344.54 352.58 342.14 356.3 340.22 360.26 338.54 364.34 337.46 368.66 336.74 372.98 336.5 377.42 336.74 381.86 337.46 386.18 338.54 390.5 340.22 394.58 342.14 398.54 344.54 402.26 347.42 405.74 350.54 408.86 353.9 411.62 357.62 414.02 361.58 416.06 365.66 417.62 369.98 418.82 374.3 419.42 378.74 419.66 383.18 419.42 387.5 418.82 391.82 417.62 395.9 416.06 399.86 414.02 403.58 411.62 407.06 408.86 410.18 405.74 412.94 402.26 415.34 398.54 417.38 394.58 418.94 390.5 420.02 386.18 420.74 381.86 420.98 377.42"/>
  <polygon class="b" points="200.42 171.14 200.18 166.7 199.46 162.26 198.38 158.06 196.82 153.86 194.78 150.02 192.38 146.3 189.62 142.82 186.5 139.7 183.02 136.94 179.3 134.54 175.34 132.5 171.26 130.94 166.94 129.74 162.62 129.14 158.18 128.9 153.74 129.14 149.42 129.74 145.1 130.94 141.02 132.5 137.06 134.54 133.34 136.94 129.98 139.7 126.86 142.82 123.98 146.3 121.58 150.02 119.66 153.86 117.98 158.06 116.9 162.26 116.18 166.7 115.94 171.14 116.18 175.46 116.9 179.9 117.98 184.1 119.66 188.3 121.58 192.26 123.98 195.86 126.86 199.34 129.98 202.46 133.34 205.22 137.06 207.62 141.02 209.66 145.1 211.22 149.42 212.42 153.74 213.14 158.18 213.38 162.62 213.14 166.94 212.42 171.26 211.22 175.34 209.66 179.3 207.62 183.02 205.22 186.5 202.46 189.62 199.34 192.38 195.86 194.78 192.26 196.82 188.3 198.38 184.1 199.46 179.9 200.18 175.46 200.42 171.14"/>
  <polygon class="b" points="199.7 57.02 199.7 11.42 199.58 10.22 198.98 9.26 198.26 8.54 197.3 7.94 196.22 7.82 119.3 7.82 118.22 7.94 117.26 8.54 116.54 9.26 115.94 10.22 115.82 11.42 115.82 57.02 115.94 58.1 116.54 59.06 117.26 59.9 118.22 60.38 119.3 60.5 196.22 60.5 197.3 60.38 198.26 59.9 198.98 59.06 199.58 58.1 199.7 57.02"/>
  <polygon class="b" points="293.42 173.42 293.18 168.98 292.46 164.66 291.26 160.34 289.7 156.26 287.66 152.3 285.26 148.58 282.5 145.1 279.38 141.98 276.02 139.22 272.3 136.82 268.34 134.78 264.14 133.22 259.94 132.14 255.5 131.42 251.18 131.18 246.74 131.42 242.3 132.14 238.1 133.22 233.9 134.78 230.06 136.82 226.34 139.22 222.86 141.98 219.74 145.1 216.98 148.58 214.58 152.3 212.54 156.26 210.98 160.34 209.78 164.66 209.18 168.98 208.94 173.42 209.18 177.86 209.78 182.18 210.98 186.5 212.54 190.58 214.58 194.54 216.98 198.26 219.74 201.62 222.86 204.74 226.34 207.62 230.06 210.02 233.9 211.94 238.1 213.62 242.3 214.7 246.74 215.42 251.18 215.66 255.5 215.42 259.94 214.7 264.14 213.62 268.34 211.94 272.3 210.02 276.02 207.62 279.38 204.74 282.5 201.62 285.26 198.26 287.66 194.54 289.7 190.58 291.26 186.5 292.46 182.18 293.18 177.86 293.42 173.42"/>
  <polygon class="b" points="454.46 266.42 454.22 261.98 453.5 257.66 452.42 253.34 450.74 249.26 448.82 245.3 446.42 241.58 443.66 238.1 440.42 234.98 437.06 232.22 433.34 229.82 429.38 227.78 425.3 226.22 420.98 225.14 416.66 224.42 412.22 224.18 407.78 224.42 403.46 225.14 399.14 226.22 395.06 227.78 391.1 229.82 387.38 232.22 383.9 234.98 380.78 238.1 378.02 241.58 375.62 245.3 373.58 249.26 372.02 253.34 370.94 257.66 370.22 261.98 369.98 266.42 370.22 270.86 370.94 275.18 372.02 279.5 373.58 283.58 375.62 287.54 378.02 291.26 380.78 294.62 383.9 297.86 387.38 300.62 391.1 303.02 395.06 305.06 399.14 306.62 403.46 307.7 407.78 308.42 412.22 308.66 416.66 308.42 420.98 307.7 425.3 306.62 429.38 305.06 433.34 303.02 437.06 300.62 440.42 297.86 443.66 294.62 446.42 291.26 448.82 287.54 450.74 283.58 452.42 279.5 453.5 275.18 454.22 270.86 454.46 266.42"/>
  <polygon class="b" points="378.02 211.94 377.78 207.5 377.06 203.18 375.86 198.86 374.3 194.78 372.26 190.82 369.86 187.1 367.1 183.74 363.98 180.5 360.62 177.74 356.9 175.34 352.94 173.3 348.74 171.74 344.54 170.66 340.1 169.94 335.78 169.7 331.34 169.94 327.02 170.66 322.7 171.74 318.62 173.3 314.66 175.34 310.94 177.74 307.46 180.5 304.34 183.74 301.58 187.1 299.18 190.82 297.14 194.78 295.58 198.86 294.38 203.18 293.78 207.5 293.54 211.94 293.78 216.38 294.38 220.7 295.58 225.02 297.14 229.1 299.18 233.06 301.58 236.78 304.34 240.26 307.46 243.38 310.94 246.14 314.66 248.54 318.62 250.58 322.7 252.14 327.02 253.22 331.34 253.94 335.78 254.18 340.1 253.94 344.54 253.22 348.74 252.14 352.94 250.58 356.9 248.54 360.62 246.14 363.98 243.38 367.1 240.26 369.86 236.78 372.26 233.06 374.3 229.1 375.86 225.02 377.06 220.7 377.78 216.38 378.02 211.94"/>
  <polygon class="b" points="462.74 173.78 462.5 169.46 461.9 165.02 460.7 160.82 459.14 156.62 457.1 152.66 454.7 148.94 451.94 145.58 448.82 142.46 445.34 139.7 441.62 137.3 437.78 135.26 433.58 133.7 429.38 132.5 424.94 131.78 420.5 131.54 416.18 131.78 411.74 132.5 407.54 133.7 403.34 135.26 399.38 137.3 395.66 139.7 392.3 142.46 389.18 145.58 386.42 148.94 384.02 152.66 381.98 156.62 380.42 160.82 379.22 165.02 378.5 169.46 378.26 173.78 378.5 178.22 379.22 182.66 380.42 186.86 381.98 190.94 384.02 194.9 386.42 198.62 389.18 202.1 392.3 205.22 395.66 207.98 399.38 210.38 403.34 212.42 407.54 213.98 411.74 215.18 416.18 215.78 420.5 216.02 424.94 215.78 429.38 215.18 433.58 213.98 437.78 212.42 441.62 210.38 445.34 207.98 448.82 205.22 451.94 202.1 454.7 198.62 457.1 194.9 459.14 190.94 460.7 186.86 461.9 182.66 462.5 178.22 462.74 173.78"/>
  <polygon class="b" points="539.66 229.22 539.42 224.9 538.7 220.46 537.62 216.26 536.06 212.06 534.02 208.1 531.62 204.5 528.86 201.02 525.74 197.9 522.26 195.14 518.54 192.74 514.58 190.7 510.5 189.14 506.18 187.94 501.86 187.22 497.42 186.98 492.98 187.22 488.66 187.94 484.34 189.14 480.26 190.7 476.3 192.74 472.58 195.14 469.22 197.9 466.1 201.02 463.22 204.5 460.82 208.1 458.9 212.06 457.22 216.26 456.14 220.46 455.42 224.9 455.18 229.22 455.42 233.66 456.14 238.1 457.22 242.3 458.9 246.5 460.82 250.34 463.22 254.06 466.1 257.54 469.22 260.66 472.58 263.42 476.3 265.82 480.26 267.86 484.34 269.42 488.66 270.62 492.98 271.22 497.42 271.46 501.86 271.22 506.18 270.62 510.5 269.42 514.58 267.86 518.54 265.82 522.26 263.42 525.74 260.66 528.86 257.54 531.62 254.06 534.02 250.34 536.06 246.5 537.62 242.3 538.7 238.1 539.42 233.66 539.66 229.22"/>
  <polygon class="b" points="548.06 136.7 547.82 132.26 547.1 127.94 545.9 123.62 544.34 119.54 542.3 115.58 539.9 111.86 537.14 108.38 534.02 105.26 530.54 102.5 526.94 100.1 522.98 98.06 518.78 96.5 514.58 95.3 510.14 94.7 505.82 94.46 501.38 94.7 496.94 95.3 492.74 96.5 488.54 98.06 484.7 100.1 480.98 102.5 477.5 105.26 474.38 108.38 471.62 111.86 469.22 115.58 467.18 119.54 465.62 123.62 464.42 127.94 463.82 132.26 463.58 136.7 463.82 141.14 464.42 145.46 465.62 149.66 467.18 153.86 469.22 157.82 471.62 161.54 474.38 164.9 477.5 168.02 480.98 170.78 484.7 173.3 488.54 175.22 492.74 176.78 496.94 177.98 501.38 178.7 505.82 178.94 510.14 178.7 514.58 177.98 518.78 176.78 522.98 175.22 526.94 173.3 530.54 170.78 534.02 168.02 537.14 164.9 539.9 161.54 542.3 157.82 544.34 153.86 545.9 149.66 547.1 145.46 547.82 141.14 548.06 136.7"/>
  <polygon class="b" points="632.54 231.5 632.3 227.06 631.7 222.74 630.5 218.42 628.94 214.34 626.9 210.38 624.5 206.66 621.74 203.3 618.62 200.18 615.14 197.3 611.42 194.9 607.58 192.98 603.38 191.3 599.18 190.22 594.74 189.5 590.3 189.26 585.98 189.5 581.54 190.22 577.34 191.3 573.14 192.98 569.18 194.9 565.58 197.3 562.1 200.18 558.98 203.3 556.22 206.66 553.82 210.38 551.78 214.34 550.22 218.42 549.02 222.74 548.3 227.06 548.06 231.5 548.3 235.94 549.02 240.26 550.22 244.58 551.78 248.66 553.82 252.62 556.22 256.34 558.98 259.82 562.1 262.94 565.58 265.7 569.18 268.1 573.14 270.14 577.34 271.7 581.54 272.78 585.98 273.5 590.3 273.74 594.74 273.5 599.18 272.78 603.38 271.7 607.58 270.14 611.42 268.1 615.14 265.7 618.62 262.94 621.74 259.82 624.5 256.34 626.9 252.62 628.94 248.66 630.5 244.58 631.7 240.26 632.3 235.94 632.54 231.5"/>
  <polygon class="b" points="640.94 138.98 640.7 134.54 639.98 130.1 638.9 125.9 637.22 121.7 635.3 117.86 632.9 114.14 630.02 110.66 626.9 107.54 623.54 104.78 619.82 102.38 615.86 100.34 611.78 98.78 607.46 97.58 603.14 96.98 598.7 96.74 594.26 96.98 589.94 97.58 585.62 98.78 581.54 100.34 577.58 102.38 573.86 104.78 570.38 107.54 567.26 110.66 564.5 114.14 562.1 117.86 560.06 121.7 558.5 125.9 557.42 130.1 556.7 134.54 556.46 138.98 556.7 143.3 557.42 147.74 558.5 151.94 560.06 156.14 562.1 160.1 564.5 163.7 567.26 167.18 570.38 170.3 573.86 173.06 577.58 175.46 581.54 177.5 585.62 179.06 589.94 180.26 594.26 180.98 598.7 181.22 603.14 180.98 607.46 180.26 611.78 179.06 615.86 177.5 619.82 175.46 623.54 173.06 626.9 170.3 630.02 167.18 632.9 163.7 635.3 160.1 637.22 156.14 638.9 151.94 639.98 147.74 640.7 143.3 640.94 138.98"/>
  <polygon class="b" points="511.7 25.94 511.58 23.78 510.86 21.62 509.78 19.7 508.46 17.9 506.66 16.58 504.74 15.5 502.58 14.9 500.42 14.66 498.14 14.9 496.1 15.5 494.06 16.58 492.38 17.9 490.94 19.7 489.98 21.62 489.26 23.78 489.02 25.94 489.26 28.22 489.98 30.26 490.94 32.3 492.38 33.98 494.06 35.42 496.1 36.5 498.14 37.1 500.42 37.34 502.58 37.1 504.74 36.5 506.66 35.42 508.46 33.98 509.78 32.3 510.86 30.26 511.58 28.22 511.7 25.94"/>
  <polygon class="b" points="548.42 25.94 548.18 23.78 547.46 21.62 546.5 19.7 545.06 17.9 543.38 16.58 541.34 15.5 539.3 14.9 537.02 14.66 534.86 14.9 532.7 15.5 530.78 16.58 528.98 17.9 527.66 19.7 526.58 21.62 525.86 23.78 525.74 25.94 525.86 28.22 526.58 30.26 527.66 32.3 528.98 33.98 530.78 35.42 532.7 36.5 534.86 37.1 537.02 37.34 539.3 37.1 541.34 36.5 543.38 35.42 545.06 33.98 546.5 32.3 547.46 30.26 548.18 28.22 548.42 25.94"/>
  <polygon class="b" points="585.02 25.94 584.78 23.78 584.18 21.62 583.1 19.7 581.66 17.9 579.98 16.58 577.94 15.5 575.9 14.9 573.62 14.66 571.46 14.9 569.3 15.5 567.38 16.58 565.58 17.9 564.26 19.7 563.18 21.62 562.58 23.78 562.34 25.94 562.58 28.22 563.18 30.26 564.26 32.3 565.58 33.98 567.38 35.42 569.3 36.5 571.46 37.1 573.62 37.34 575.9 37.1 577.94 36.5 579.98 35.42 581.66 33.98 583.1 32.3 584.18 30.26 584.78 28.22 585.02 25.94"/>
  <polygon class="b" points="621.62 25.94 621.38 23.78 620.78 21.62 619.7 19.7 618.26 17.9 616.58 16.58 614.66 15.5 612.5 14.9 610.22 14.66 608.06 14.9 605.9 15.5 603.98 16.58 602.3 17.9 600.86 19.7 599.78 21.62 599.18 23.78 598.94 25.94 599.18 28.22 599.78 30.26 600.86 32.3 602.3 33.98 603.98 35.42 605.9 36.5 608.06 37.1 610.22 37.34 612.5 37.1 614.66 36.5 616.58 35.42 618.26 33.98 619.7 32.3 620.78 30.26 621.38 28.22 621.62 25.94"/>
  <polygon class="b" points="725.06 240.86 724.82 236.42 724.22 232.1 723.02 227.78 721.46 223.7 719.42 219.74 717.02 216.02 714.26 212.66 711.14 209.42 707.66 206.66 703.94 204.26 700.1 202.34 695.9 200.66 691.7 199.58 687.26 198.86 682.82 198.62 678.5 198.86 674.06 199.58 669.86 200.66 665.66 202.34 661.7 204.26 657.98 206.66 654.62 209.42 651.5 212.66 648.74 216.02 646.34 219.74 644.3 223.7 642.74 227.78 641.54 232.1 640.82 236.42 640.58 240.86 640.82 245.3 641.54 249.62 642.74 253.94 644.3 258.02 646.34 261.98 648.74 265.7 651.5 269.18 654.62 272.3 657.98 275.06 661.7 277.46 665.66 279.5 669.86 281.06 674.06 282.14 678.5 282.86 682.82 283.1 687.26 282.86 691.7 282.14 695.9 281.06 700.1 279.5 703.94 277.46 707.66 275.06 711.14 272.3 714.26 269.18 717.02 265.7 719.42 261.98 721.46 258.02 723.02 253.94 724.22 249.62 724.82 245.3 725.06 240.86"/>
  <polygon class="b" points="733.46 148.22 733.22 143.9 732.5 139.46 731.3 135.26 729.74 131.06 727.82 127.1 725.42 123.5 722.54 120.02 719.42 116.9 716.06 114.14 712.34 111.74 708.38 109.7 704.3 108.14 699.98 106.94 695.66 106.22 691.22 105.98 686.78 106.22 682.46 106.94 678.14 108.14 674.06 109.7 670.1 111.74 666.38 114.14 662.9 116.9 659.78 120.02 657.02 123.5 654.62 127.1 652.58 131.06 651.02 135.26 649.82 139.46 649.22 143.9 648.98 148.22 649.22 152.66 649.82 157.1 651.02 161.3 652.58 165.5 654.62 169.34 657.02 173.06 659.78 176.54 662.9 179.66 666.38 182.42 670.1 184.82 674.06 186.86 678.14 188.42 682.46 189.62 686.78 190.22 691.22 190.46 695.66 190.22 699.98 189.62 704.3 188.42 708.38 186.86 712.34 184.82 716.06 182.42 719.42 179.66 722.54 176.54 725.42 173.06 727.82 169.34 729.74 165.5 731.3 161.3 732.5 157.1 733.22 152.66 733.46 148.22"/>
  <polygon class="b" points="658.22 25.94 657.98 23.78 657.38 21.62 656.3 19.7 654.86 17.9 653.18 16.58 651.26 15.5 649.1 14.9 646.94 14.66 644.66 14.9 642.62 15.5 640.58 16.58 638.9 17.9 637.46 19.7 636.38 21.62 635.78 23.78 635.54 25.94 635.78 28.22 636.38 30.26 637.46 32.3 638.9 33.98 640.58 35.42 642.62 36.5 644.66 37.1 646.94 37.34 649.1 37.1 651.26 36.5 653.18 35.42 654.86 33.98 656.3 32.3 657.38 30.26 657.98 28.22 658.22 25.94"/>
  <polygon class="b" points="694.82 25.94 694.7 23.78 693.98 21.62 692.9 19.7 691.58 17.9 689.78 16.58 687.86 15.5 685.7 14.9 683.54 14.66 681.26 14.9 679.22 15.5 677.18 16.58 675.5 17.9 674.06 19.7 673.1 21.62 672.38 23.78 672.14 25.94 672.38 28.22 673.1 30.26 674.06 32.3 675.5 33.98 677.18 35.42 679.22 36.5 681.26 37.1 683.54 37.34 685.7 37.1 687.86 36.5 689.78 35.42 691.58 33.98 692.9 32.3 693.98 30.26 694.7 28.22 694.82 25.94"/>
  <polygon class="b" points="731.54 25.94 731.3 23.78 730.58 21.62 729.62 19.7 728.18 17.9 726.5 16.58 724.46 15.5 722.3 14.9 720.14 14.66 717.98 14.9 715.82 15.5 713.9 16.58 712.1 17.9 710.66 19.7 709.7 21.62 708.98 23.78 708.86 25.94 708.98 28.22 709.7 30.26 710.66 32.3 712.1 33.98 713.9 35.42 715.82 36.5 717.98 37.1 720.14 37.34 722.3 37.1 724.46 36.5 726.5 35.42 728.18 33.98 729.62 32.3 730.58 30.26 731.3 28.22 731.54 25.94"/>
  <polygon class="b" points="9.02 562.94 7.1 562.7 5.3 562.1 3.74 561.14 2.3 559.7 1.34 558.14 .74 556.34 .5 554.42 .5 9.02 .74 7.1 1.34 5.3 2.3 3.62 3.74 2.3 5.3 1.34 7.1 .62 9.02 .5 836.66 .5 838.58 .62 840.38 1.34 841.94 2.3 843.38 3.62 844.34 5.3 844.94 7.1 845.18 9.02 845.18 554.42 844.94 556.34 844.34 558.14 843.38 559.7 841.94 561.14 840.38 562.1 838.58 562.7 836.66 562.94 9.02 562.94"/>
</svg>