<?xml version="1.0" encoding="UTF-8"?>
<svg id="a" data-name="Layer 1" xmlns="http://www.w3.org/2000/svg" viewBox="0 0 562.12 278.68">
  <defs>
    <style>
      .b {
        fill: none;
        stroke: #000;
        stroke-linecap: round;
        stroke-linejoin: round;
      }
    </style>
  </defs>
  <polygon class="b" points="255.02 261.14 255.26 259.82 255.86 258.5 256.82 257.54 258.14 256.82 259.58 256.7 260.9 256.82 262.22 257.54 263.18 258.5 263.9 259.82 264.02 261.14 263.9 262.58 263.18 263.9 262.22 264.86 260.9 265.46 259.58 265.7 258.14 265.46 256.82 264.86 255.86 263.9 255.26 262.58 255.02 261.14"/>
  <polygon class="b" points="298.1 17.42 298.34 16.1 298.94 14.78 300.02 13.82 301.22 13.1 302.66 12.98 304.1 13.1 305.3 13.82 306.38 14.78 306.98 16.1 307.22 17.42 306.98 18.86 306.38 20.06 305.3 21.14 304.1 21.74 302.66 21.98 301.22 21.74 300.02 21.14 298.94 20.06 298.34 18.86 298.1 17.42"/>
  <polygon class="b" points="549.26 261.14 549.02 259.82 548.3 258.5 547.34 257.54 546.02 256.82 544.7 256.7 543.26 256.82 542.06 257.54 540.98 258.5 540.38 259.82 540.14 261.14 540.38 262.58 540.98 263.9 542.06 264.86 543.26 265.46 544.7 265.7 546.02 265.46 547.34 264.86 548.3 263.9 549.02 262.58 549.26 261.14"/>
  <polygon class="b" points="549.26 17.42 549.02 16.1 548.3 14.78 547.34 13.82 546.02 13.1 544.7 12.98 543.26 13.1 542.06 13.82 540.98 14.78 540.38 16.1 540.14 17.42 540.38 18.86 540.98 20.06 542.06 21.14 543.26 21.74 544.7 21.98 546.02 21.74 547.34 21.14 548.3 20.06 549.02 18.86 549.26 17.42"/>
  <polygon class="b" points="22.1 261.14 21.86 259.82 21.14 258.5 20.18 257.54 18.98 256.82 17.54 256.7 16.1 256.82 14.9 257.54 13.82 258.5 13.22 259.82 12.98 261.14 13.22 262.58 13.82 263.9 14.9 264.86 16.1 265.46 17.54 265.7 18.98 265.46 20.18 264.86 21.14 263.9 21.86 262.58 22.1 261.14"/>
  <polygon class="b" points="22.1 17.42 21.86 16.1 21.14 14.78 20.18 13.82 18.98 13.1 17.54 12.98 16.1 13.1 14.9 13.82 13.82 14.78 13.22 16.1 12.98 17.42 13.22 18.86 13.82 20.06 14.9 21.14 16.1 21.74 17.54 21.98 18.98 21.74 20.18 21.14 21.14 20.06 21.86 18.86 22.1 17.42"/>
  <rect class="b" x="175.58" y="213.02" width="39.72" height="39.6"/>
  <rect class="b" x="275.42" y="71.3" width="39.72" height="39.72"/>
  <rect class="b" x="303.74" y="213.02" width="39.72" height="39.6"/>
  <rect class="b" x="332.06" y="156.26" width="39.72" height="39.72"/>
  <rect class="b" x="445.46" y="25.94" width="39.72" height="39.72"/>
  <rect class="b" x="388.82" y="25.94" width="39.6" height="39.72"/>
  <rect class="b" x="332.06" y="42.98" width="39.72" height="39.6"/>
  <rect class="b" x="445.46" y="82.58" width="39.72" height="39.72"/>
  <rect class="b" x="388.82" y="82.58" width="39.6" height="39.72"/>
  <rect class="b" x="332.06" y="99.62" width="39.72" height="39.72"/>
  <polygon class="b" points="89.78 64.22 128.06 74.42 138.38 36.14 100.1 25.94 89.78 64.22"/>
  <rect class="b" x="134.34" y="99.78" width="39.65" height="39.65" transform="translate(-1.44 237.31) rotate(-74.91)"/>
  <polygon class="b" points="75.14 118.94 113.42 129.26 123.74 90.86 85.34 80.66 75.14 118.94"/>
  <polygon class="b" points="20.3 104.3 58.7 114.5 68.9 76.22 30.62 66.02 20.3 104.3"/>
  <polygon class="b" points="177.98 17.42 177.74 15.26 177.02 13.1 175.82 11.3 174.26 9.74 172.34 8.54 170.3 7.82 168.02 7.58 165.86 7.82 163.7 8.54 161.9 9.74 160.34 11.3 159.14 13.1 158.42 15.26 158.18 17.42 158.42 19.7 159.14 21.74 160.34 23.66 161.9 25.22 163.7 26.42 165.86 27.14 168.02 27.38 170.3 27.14 172.34 26.42 174.26 25.22 175.82 23.66 177.02 21.74 177.74 19.7 177.98 17.42"/>
  <polygon class="b" points="60.02 17.42 59.78 15.26 59.06 13.1 57.86 11.3 56.3 9.74 54.38 8.54 52.34 7.82 50.06 7.58 47.9 7.82 45.86 8.54 43.94 9.74 42.38 11.3 41.18 13.1 40.46 15.26 40.22 17.42 40.46 19.7 41.18 21.74 42.38 23.66 43.94 25.22 45.86 26.42 47.9 27.14 50.06 27.38 52.34 27.14 54.38 26.42 56.3 25.22 57.86 23.66 59.06 21.74 59.78 19.7 60.02 17.42"/>
  <polygon class="b" points="279.98 17.42 279.74 15.26 279.02 13.1 277.82 11.3 276.26 9.74 274.34 8.54 272.3 7.82 270.02 7.58 267.86 7.82 265.82 8.54 263.9 9.74 262.34 11.3 261.14 13.1 260.42 15.26 260.18 17.42 260.42 19.7 261.14 21.74 262.34 23.66 263.9 25.22 265.82 26.42 267.86 27.14 270.02 27.38 272.3 27.14 274.34 26.42 276.26 25.22 277.82 23.66 279.02 21.74 279.74 19.7 279.98 17.42"/>
  <polygon class="b" points="246.02 17.42 245.78 15.26 244.94 13.1 243.86 11.3 242.3 9.74 240.38 8.54 238.22 7.82 236.06 7.58 233.9 7.82 231.74 8.54 229.82 9.74 228.26 11.3 227.18 13.1 226.34 15.26 226.1 17.42 226.34 19.7 227.18 21.74 228.26 23.66 229.82 25.22 231.74 26.42 233.9 27.14 236.06 27.38 238.22 27.14 240.38 26.42 242.3 25.22 243.86 23.66 244.94 21.74 245.78 19.7 246.02 17.42"/>
  <polygon class="b" points="211.94 17.42 211.7 15.26 210.98 13.1 209.78 11.3 208.22 9.74 206.3 8.54 204.26 7.82 202.1 7.58 199.82 7.82 197.78 8.54 195.86 9.74 194.3 11.3 193.1 13.1 192.38 15.26 192.14 17.42 192.38 19.7 193.1 21.74 194.3 23.66 195.86 25.22 197.78 26.42 199.82 27.14 202.1 27.38 204.26 27.14 206.3 26.42 208.22 25.22 209.78 23.66 210.98 21.74 211.7 19.7 211.94 17.42"/>
  <polygon class="b" points=".5 261.14 .74 263.78 1.34 266.42 2.42 268.94 3.74 271.22 5.54 273.26 7.58 274.94 9.86 276.38 12.26 277.34 14.9 277.94 17.54 278.18 544.7 278.18 547.34 277.94 549.98 277.34 552.38 276.38 554.66 274.94 556.7 273.26 558.38 271.22 559.82 268.94 560.9 266.42 561.5 263.78 561.62 261.14 561.62 17.42 561.5 14.78 560.9 12.14 559.82 9.74 558.38 7.46 556.7 5.42 554.66 3.74 552.38 2.3 549.98 1.34 547.34 .62 544.7 .5 17.54 .5 14.9 .62 12.26 1.34 9.86 2.3 7.58 3.74 5.54 5.42 3.74 7.46 2.42 9.74 1.34 12.14 .74 14.78 .5 17.42 .5 261.14"/>
  <rect class="b" x="502.1" y="42.98" width="39.72" height="39.6"/>
  <rect class="b" x="502.1" y="99.62" width="39.72" height="39.72"/>
</svg>