<?xml version="1.0" encoding="UTF-8"?>
<svg id="a" data-name="Layer 1" xmlns="http://www.w3.org/2000/svg" viewBox="0 0 556.32 354.96">
  <defs>
    <style>
      .b {
        stroke-linejoin: round;
      }

      .b, .c {
        fill: none;
        stroke: #000;
        stroke-linecap: round;
        stroke-width: .72px;
      }

      .c {
        stroke-linejoin: bevel;
      }
    </style>
  </defs>
  <polygon class="c" points="382.2 94.32 382.08 91.32 381.6 88.32 380.88 85.32 379.8 82.56 378.6 79.8 377.04 77.16 375.24 74.76 373.2 72.48 370.92 70.44 368.52 68.64 365.88 67.08 363.12 65.88 360.36 64.8 357.36 64.08 354.36 63.6 351.36 63.48 348.36 63.6 345.36 64.08 342.36 64.8 339.6 65.88 336.84 67.08 334.2 68.64 331.8 70.44 329.52 72.48 327.48 74.76 325.68 77.16 324.12 79.8 322.92 82.56 321.84 85.32 321.12 88.32 320.64 91.32 320.52 94.32 320.64 97.32 321.12 100.32 321.84 103.32 322.92 106.08 324.12 108.84 325.68 111.48 327.48 113.88 329.52 116.16 331.8 118.2 334.2 120 336.84 121.56 339.6 122.76 342.36 123.84 345.36 124.56 348.36 125.04 351.36 125.16 354.36 125.04 357.36 124.56 360.36 123.84 363.12 122.76 365.88 121.56 368.52 120 370.92 118.2 373.2 116.16 375.24 113.88 377.04 111.48 378.6 108.84 379.8 106.08 380.88 103.32 381.6 100.32 382.08 97.32 382.2 94.32"/>
  <polygon class="c" points="461.04 96.6 460.92 93.6 460.44 90.6 459.72 87.6 458.64 84.84 457.44 82.08 455.88 79.44 454.08 77.04 452.04 74.76 449.76 72.72 447.36 70.92 444.72 69.36 441.96 68.16 439.2 67.08 436.2 66.36 433.2 65.88 430.2 65.76 427.2 65.88 424.2 66.36 421.2 67.08 418.44 68.16 415.68 69.36 413.04 70.92 410.64 72.72 408.36 74.76 406.32 77.04 404.52 79.44 402.96 82.08 401.76 84.84 400.68 87.6 399.96 90.6 399.48 93.6 399.36 96.6 399.48 99.6 399.96 102.6 400.68 105.6 401.76 108.36 402.96 111.12 404.52 113.76 406.32 116.16 408.36 118.44 410.64 120.48 413.04 122.28 415.68 123.84 418.44 125.04 421.2 126.12 424.2 126.84 427.2 127.32 430.2 127.44 433.2 127.32 436.2 126.84 439.2 126.12 441.96 125.04 444.72 123.84 447.36 122.28 449.76 120.48 452.04 118.44 454.08 116.16 455.88 113.76 457.44 111.12 458.64 108.36 459.72 105.6 460.44 102.6 460.92 99.6 461.04 96.6"/>
  <polygon class="c" points="540.48 110.52 540.36 107.52 539.88 104.52 539.16 101.52 538.08 98.76 536.88 96 535.32 93.36 533.52 90.96 531.48 88.68 529.2 86.64 526.8 84.84 524.16 83.28 521.4 82.08 518.64 81 515.64 80.28 512.64 79.8 509.64 79.68 506.64 79.8 503.64 80.28 500.64 81 497.88 82.08 495.12 83.28 492.48 84.84 490.08 86.64 487.8 88.68 485.76 90.96 483.96 93.36 482.4 96 481.2 98.76 480.12 101.52 479.4 104.52 478.92 107.52 478.8 110.52 478.92 113.52 479.4 116.52 480.12 119.52 481.2 122.28 482.4 125.04 483.96 127.68 485.76 130.08 487.8 132.36 490.08 134.4 492.48 136.2 495.12 137.76 497.88 138.96 500.64 140.04 503.64 140.76 506.64 141.24 509.64 141.36 512.64 141.24 515.64 140.76 518.64 140.04 521.4 138.96 524.16 137.76 526.8 136.2 529.2 134.4 531.48 132.36 533.52 130.08 535.32 127.68 536.88 125.04 538.08 122.28 539.16 119.52 539.88 116.52 540.36 113.52 540.48 110.52"/>
  <polygon class="c" points="539.64 190.32 539.52 187.32 539.04 184.32 538.32 181.32 537.24 178.56 536.04 175.8 534.48 173.16 532.68 170.76 530.64 168.48 528.36 166.44 525.96 164.64 523.32 163.08 520.56 161.88 517.8 160.8 514.8 160.08 511.8 159.6 508.8 159.48 505.8 159.6 502.8 160.08 499.8 160.8 497.04 161.88 494.28 163.08 491.64 164.64 489.24 166.44 486.96 168.48 484.92 170.76 483.12 173.16 481.56 175.8 480.36 178.56 479.28 181.32 478.56 184.32 478.08 187.32 477.96 190.32 478.08 193.32 478.56 196.32 479.28 199.32 480.36 202.08 481.56 204.84 483.12 207.48 484.92 209.88 486.96 212.16 489.24 214.2 491.64 216 494.28 217.56 497.04 218.76 499.8 219.84 502.8 220.56 505.8 221.04 508.8 221.16 511.8 221.04 514.8 220.56 517.8 219.84 520.56 218.76 523.32 217.56 525.96 216 528.36 214.2 530.64 212.16 532.68 209.88 534.48 207.48 536.04 204.84 537.24 202.08 538.32 199.32 539.04 196.32 539.52 193.32 539.64 190.32"/>
  <polygon class="c" points="460.44 176.64 460.32 173.64 459.84 170.64 459.12 167.64 458.04 164.88 456.84 162.12 455.28 159.48 453.48 157.08 451.44 154.8 449.16 152.76 446.76 150.96 444.12 149.4 441.36 148.2 438.6 147.12 435.6 146.4 432.6 145.92 429.6 145.8 426.6 145.92 423.6 146.4 420.6 147.12 417.84 148.2 415.08 149.4 412.44 150.96 410.04 152.76 407.76 154.8 405.72 157.08 403.92 159.48 402.36 162.12 401.16 164.88 400.08 167.64 399.36 170.64 398.88 173.64 398.76 176.64 398.88 179.64 399.36 182.64 400.08 185.64 401.16 188.4 402.36 191.16 403.92 193.8 405.72 196.2 407.76 198.48 410.04 200.52 412.44 202.32 415.08 203.88 417.84 205.08 420.6 206.16 423.6 206.88 426.6 207.36 429.6 207.48 432.6 207.36 435.6 206.88 438.6 206.16 441.36 205.08 444.12 203.88 446.76 202.32 449.16 200.52 451.44 198.48 453.48 196.2 455.28 193.8 456.84 191.16 458.04 188.4 459.12 185.64 459.84 182.64 460.32 179.64 460.44 176.64"/>
  <polygon class="c" points="377.64 176.64 377.52 173.64 377.04 170.64 376.32 167.64 375.24 164.88 374.04 162.12 372.48 159.48 370.68 157.08 368.64 154.8 366.36 152.76 363.96 150.96 361.32 149.4 358.56 148.2 355.8 147.12 352.8 146.4 349.8 145.92 346.8 145.8 343.8 145.92 340.8 146.4 337.8 147.12 335.04 148.2 332.28 149.4 329.64 150.96 327.24 152.76 324.96 154.8 322.92 157.08 321.12 159.48 319.56 162.12 318.36 164.88 317.28 167.64 316.56 170.64 316.08 173.64 315.96 176.64 316.08 179.64 316.56 182.64 317.28 185.64 318.36 188.4 319.56 191.16 321.12 193.8 322.92 196.2 324.96 198.48 327.24 200.52 329.64 202.32 332.28 203.88 335.04 205.08 337.8 206.16 340.8 206.88 343.8 207.36 346.8 207.48 349.8 207.36 352.8 206.88 355.8 206.16 358.56 205.08 361.32 203.88 363.96 202.32 366.36 200.52 368.64 198.48 370.68 196.2 372.48 193.8 374.04 191.16 375.24 188.4 376.32 185.64 377.04 182.64 377.52 179.64 377.64 176.64"/>
  <polygon class="c" points="308.04 126.6 307.92 123.6 307.44 120.6 306.72 117.6 305.64 114.84 304.44 112.08 302.88 109.44 301.08 107.04 299.04 104.76 296.76 102.72 294.36 100.92 291.72 99.36 288.96 98.16 286.2 97.08 283.2 96.36 280.2 95.88 277.2 95.76 274.2 95.88 271.2 96.36 268.2 97.08 265.44 98.16 262.68 99.36 260.04 100.92 257.64 102.72 255.36 104.76 253.32 107.04 251.52 109.44 249.96 112.08 248.76 114.84 247.68 117.6 246.96 120.6 246.48 123.6 246.36 126.6 246.48 129.6 246.96 132.6 247.68 135.6 248.76 138.36 249.96 141.12 251.52 143.76 253.32 146.16 255.36 148.44 257.64 150.48 260.04 152.28 262.68 153.84 265.44 155.04 268.2 156.12 271.2 156.84 274.2 157.32 277.2 157.44 280.2 157.32 283.2 156.84 286.2 156.12 288.96 155.04 291.72 153.84 294.36 152.28 296.76 150.48 299.04 148.44 301.08 146.16 302.88 143.76 304.44 141.12 305.64 138.36 306.72 135.6 307.44 132.6 307.92 129.6 308.04 126.6"/>
  <polygon class="c" points="300.84 207.36 300.72 204.36 300.24 201.36 299.52 198.36 298.44 195.6 297.24 192.84 295.68 190.2 293.88 187.8 291.84 185.52 289.56 183.48 287.16 181.68 284.52 180.12 281.76 178.92 279 177.84 276 177.12 273 176.64 270 176.52 267 176.64 264 177.12 261 177.84 258.24 178.92 255.48 180.12 252.84 181.68 250.44 183.48 248.16 185.52 246.12 187.8 244.32 190.2 242.76 192.84 241.56 195.6 240.48 198.36 239.76 201.36 239.28 204.36 239.16 207.36 239.28 210.36 239.76 213.36 240.48 216.36 241.56 219.12 242.76 221.88 244.32 224.52 246.12 226.92 248.16 229.2 250.44 231.24 252.84 233.04 255.48 234.6 258.24 235.8 261 236.88 264 237.6 267 238.08 270 238.2 273 238.08 276 237.6 279 236.88 281.76 235.8 284.52 234.6 287.16 233.04 289.56 231.24 291.84 229.2 293.88 226.92 295.68 224.52 297.24 221.88 298.44 219.12 299.52 216.36 300.24 213.36 300.72 210.36 300.84 207.36"/>
  <polygon class="c" points="231.36 159.36 231.24 156.36 230.76 153.36 230.04 150.36 228.96 147.6 227.76 144.84 226.2 142.2 224.4 139.8 222.36 137.52 220.08 135.48 217.68 133.68 215.04 132.12 212.28 130.92 209.52 129.84 206.52 129.12 203.52 128.64 200.52 128.52 197.52 128.64 194.52 129.12 191.52 129.84 188.76 130.92 186 132.12 183.36 133.68 180.96 135.48 178.68 137.52 176.64 139.8 174.84 142.2 173.28 144.84 172.08 147.6 171 150.36 170.28 153.36 169.8 156.36 169.68 159.36 169.8 162.36 170.28 165.36 171 168.36 172.08 171.12 173.28 173.88 174.84 176.52 176.64 178.92 178.68 181.2 180.96 183.24 183.36 185.04 186 186.6 188.76 187.8 191.52 188.88 194.52 189.6 197.52 190.08 200.52 190.2 203.52 190.08 206.52 189.6 209.52 188.88 212.28 187.8 215.04 186.6 217.68 185.04 220.08 183.24 222.36 181.2 224.4 178.92 226.2 176.52 227.76 173.88 228.96 171.12 230.04 168.36 230.76 165.36 231.24 162.36 231.36 159.36"/>
  <polygon class="c" points="159 123.96 158.88 120.96 158.4 117.96 157.68 114.96 156.6 112.2 155.4 109.44 153.84 106.8 152.04 104.4 150 102.12 147.72 100.08 145.32 98.28 142.68 96.72 139.92 95.52 137.16 94.44 134.16 93.72 131.16 93.24 128.16 93.12 125.16 93.24 122.16 93.72 119.16 94.44 116.4 95.52 113.64 96.72 111 98.28 108.6 100.08 106.32 102.12 104.28 104.4 102.48 106.8 100.92 109.44 99.72 112.2 98.64 114.96 97.92 117.96 97.44 120.96 97.32 123.96 97.44 126.96 97.92 129.96 98.64 132.96 99.72 135.72 100.92 138.48 102.48 141.12 104.28 143.52 106.32 145.8 108.6 147.84 111 149.64 113.64 151.2 116.4 152.4 119.16 153.48 122.16 154.2 125.16 154.68 128.16 154.8 131.16 154.68 134.16 154.2 137.16 153.48 139.92 152.4 142.68 151.2 145.32 149.64 147.72 147.84 150 145.8 152.04 143.52 153.84 141.12 155.4 138.48 156.6 135.72 157.68 132.96 158.4 129.96 158.88 126.96 159 123.96"/>
  <polygon class="c" points="78.36 124.08 78.24 121.08 77.76 118.08 77.04 115.08 75.96 112.32 74.76 109.56 73.2 106.92 71.4 104.52 69.36 102.24 67.08 100.2 64.68 98.4 62.04 96.84 59.28 95.64 56.52 94.56 53.52 93.84 50.52 93.36 47.52 93.24 44.52 93.36 41.52 93.84 38.52 94.56 35.76 95.64 33 96.84 30.36 98.4 27.96 100.2 25.68 102.24 23.64 104.52 21.84 106.92 20.28 109.56 19.08 112.32 18 115.08 17.28 118.08 16.8 121.08 16.68 124.08 16.8 127.08 17.28 130.08 18 133.08 19.08 135.84 20.28 138.6 21.84 141.24 23.64 143.64 25.68 145.92 27.96 147.96 30.36 149.76 33 151.32 35.76 152.52 38.52 153.6 41.52 154.32 44.52 154.8 47.52 154.92 50.52 154.8 53.52 154.32 56.52 153.6 59.28 152.52 62.04 151.32 64.68 149.76 67.08 147.96 69.36 145.92 71.4 143.64 73.2 141.24 74.76 138.6 75.96 135.84 77.04 133.08 77.76 130.08 78.24 127.08 78.36 124.08"/>
  <polygon class="c" points="281.76 303.72 281.64 300.36 281.16 296.88 280.44 293.64 279.36 290.28 278.04 287.16 276.48 284.16 274.56 281.28 272.52 278.64 270.12 276.12 267.6 273.84 264.84 271.8 261.96 270 258.84 268.44 255.72 267.24 252.48 266.16 249.12 265.56 245.64 265.2 242.28 265.08 238.8 265.32 235.44 265.8 232.2 266.64 228.96 267.84 225.84 269.16 222.84 270.84 219.96 272.76 217.32 274.92 214.92 277.32 212.64 279.96 210.72 282.72 208.92 285.6 207.48 288.72 206.28 291.96 205.44 295.2 204.84 298.56 204.48 302.04 204.48 305.4 204.84 308.88 205.44 312.24 206.28 315.48 207.48 318.72 208.92 321.84 210.72 324.72 212.64 327.48 214.92 330.12 217.32 332.52 219.96 334.68 222.84 336.6 225.84 338.28 228.96 339.6 232.2 340.8 235.44 341.64 238.8 342.12 242.28 342.36 245.64 342.24 249.12 341.88 252.48 341.28 255.72 340.2 258.84 339 261.96 337.44 264.84 335.64 267.6 333.6 270.12 331.32 272.52 328.8 274.56 326.16 276.48 323.28 278.04 320.28 279.36 317.16 280.44 313.8 281.16 310.56 281.64 307.08 281.76 303.72"/>
  <polygon class="c" points="402.24 28.8 402.12 27.12 401.64 25.44 400.92 23.88 399.96 22.44 398.76 21.24 397.32 20.28 395.76 19.56 394.08 19.08 392.4 18.96 390.72 19.08 389.04 19.56 387.48 20.28 386.04 21.24 384.84 22.44 383.88 23.88 383.16 25.44 382.68 27.12 382.56 28.8 382.68 30.48 383.16 32.16 383.88 33.72 384.84 35.16 386.04 36.36 387.48 37.32 389.04 38.04 390.72 38.52 392.4 38.64 394.08 38.52 395.76 38.04 397.32 37.32 398.76 36.36 399.96 35.16 400.92 33.72 401.64 32.16 402.12 30.48 402.24 28.8"/>
  <polygon class="c" points="436.44 28.8 436.32 27.12 435.84 25.44 435.12 23.88 434.16 22.44 432.96 21.24 431.52 20.28 429.96 19.56 428.28 19.08 426.6 18.96 424.92 19.08 423.24 19.56 421.68 20.28 420.24 21.24 419.04 22.44 418.08 23.88 417.36 25.44 416.88 27.12 416.76 28.8 416.88 30.48 417.36 32.16 418.08 33.72 419.04 35.16 420.24 36.36 421.68 37.32 423.24 38.04 424.92 38.52 426.6 38.64 428.28 38.52 429.96 38.04 431.52 37.32 432.96 36.36 434.16 35.16 435.12 33.72 435.84 32.16 436.32 30.48 436.44 28.8"/>
  <polygon class="c" points="470.52 28.8 470.4 27.12 469.92 25.44 469.2 23.88 468.24 22.44 467.04 21.24 465.6 20.28 464.04 19.56 462.36 19.08 460.68 18.96 459 19.08 457.32 19.56 455.76 20.28 454.32 21.24 453.12 22.44 452.16 23.88 451.44 25.44 450.96 27.12 450.84 28.8 450.96 30.48 451.44 32.16 452.16 33.72 453.12 35.16 454.32 36.36 455.76 37.32 457.32 38.04 459 38.52 460.68 38.64 462.36 38.52 464.04 38.04 465.6 37.32 467.04 36.36 468.24 35.16 469.2 33.72 469.92 32.16 470.4 30.48 470.52 28.8"/>
  <polygon class="c" points="504.6 28.8 504.48 27.12 504 25.44 503.28 23.88 502.32 22.44 501.12 21.24 499.68 20.28 498.12 19.56 496.44 19.08 494.76 18.96 493.08 19.08 491.4 19.56 489.84 20.28 488.4 21.24 487.2 22.44 486.24 23.88 485.52 25.44 485.04 27.12 484.92 28.8 485.04 30.48 485.52 32.16 486.24 33.72 487.2 35.16 488.4 36.36 489.84 37.32 491.4 38.04 493.08 38.52 494.76 38.64 496.44 38.52 498.12 38.04 499.68 37.32 501.12 36.36 502.32 35.16 503.28 33.72 504 32.16 504.48 30.48 504.6 28.8"/>
  <polygon class="c" points="33.6 326.52 33.48 325.32 33 324.12 32.28 323.16 31.32 322.32 30.24 321.84 29.04 321.6 27.72 321.72 26.64 322.08 25.56 322.68 24.72 323.64 24.12 324.72 23.76 325.92 23.76 327.12 24.12 328.32 24.72 329.4 25.56 330.36 26.64 330.96 27.72 331.32 29.04 331.44 30.24 331.2 31.32 330.72 32.28 329.88 33 328.92 33.48 327.72 33.6 326.52"/>
  <polygon class="c" points="297.24 326.28 297.12 325.08 296.64 323.88 295.92 322.92 294.96 322.08 293.88 321.6 292.68 321.36 291.36 321.48 290.28 321.84 289.2 322.44 288.36 323.4 287.76 324.48 287.4 325.68 287.4 326.88 287.76 328.08 288.36 329.16 289.2 330.12 290.28 330.72 291.36 331.08 292.68 331.2 293.88 330.96 294.96 330.48 295.92 329.64 296.64 328.68 297.12 327.48 297.24 326.28"/>
  <polygon class="c" points="532.56 326.52 532.44 325.32 531.96 324.12 531.24 323.16 530.28 322.32 529.2 321.84 528 321.6 526.68 321.72 525.6 322.08 524.52 322.68 523.68 323.64 523.08 324.72 522.72 325.92 522.72 327.12 523.08 328.32 523.68 329.4 524.52 330.36 525.6 330.96 526.68 331.32 528 331.44 529.2 331.2 530.28 330.72 531.24 329.88 531.96 328.92 532.44 327.72 532.56 326.52"/>
  <polygon class="c" points="532.56 28.68 532.44 27.48 531.96 26.28 531.24 25.32 530.28 24.48 529.2 24 528 23.76 526.68 23.88 525.6 24.24 524.52 24.84 523.68 25.8 523.08 26.88 522.72 28.08 522.72 29.28 523.08 30.48 523.68 31.56 524.52 32.52 525.6 33.12 526.68 33.48 528 33.6 529.2 33.36 530.28 32.88 531.24 32.04 531.96 31.08 532.44 29.88 532.56 28.68"/>
  <polygon class="c" points="33.6 28.68 33.48 27.48 33 26.28 32.28 25.32 31.32 24.48 30.24 24 29.04 23.76 27.72 23.88 26.64 24.24 25.56 24.84 24.72 25.8 24.12 26.88 23.76 28.08 23.76 29.28 24.12 30.48 24.72 31.56 25.56 32.52 26.64 33.12 27.72 33.48 29.04 33.6 30.24 33.36 31.32 32.88 32.28 32.04 33 31.08 33.48 29.88 33.6 28.68"/>
  <polygon class="b" points="42.84 354.6 513.48 354.6 517.2 354.48 520.8 354 524.52 353.16 528 352.08 531.48 350.64 534.72 348.96 537.84 346.92 540.84 344.64 543.48 342.12 546 339.48 548.28 336.48 550.32 333.36 552 330.12 553.44 326.64 554.52 323.16 555.36 319.44 555.84 315.84 555.96 312.12 555.96 42.84 555.84 39.12 555.36 35.52 554.52 31.8 553.44 28.32 552 24.84 550.32 21.6 548.28 18.48 546 15.48 543.48 12.84 540.84 10.32 537.84 8.04 534.72 6 531.48 4.32 528 2.88 524.52 1.8 520.8 .96 517.2 .48 513.48 .36 42.84 .36 39.12 .48 35.52 .96 31.8 1.8 28.32 2.88 24.84 4.32 21.6 6 18.48 8.04 15.48 10.32 12.84 12.84 10.32 15.48 8.04 18.48 6 21.6 4.32 24.84 2.88 28.32 1.8 31.8 .96 35.52 .48 39.12 .36 42.84 .36 312.12 .48 315.84 .96 319.44 1.8 323.16 2.88 326.64 4.32 330.12 6 333.36 8.04 336.48 10.32 339.48 12.84 342.12 15.48 344.64 18.48 346.92 21.6 348.96 24.84 350.64 28.32 352.08 31.8 353.16 35.52 354 39.12 354.48 42.84 354.6"/>
  <polygon class="c" points="250.68 28.68 250.56 27.48 250.08 26.28 249.36 25.32 248.4 24.48 247.32 24 246.12 23.76 244.8 23.88 243.72 24.24 242.64 24.84 241.8 25.8 241.2 26.88 240.84 28.08 240.84 29.28 241.2 30.48 241.8 31.56 242.64 32.52 243.72 33.12 244.8 33.48 246.12 33.6 247.32 33.36 248.4 32.88 249.36 32.04 250.08 31.08 250.56 29.88 250.68 28.68"/>
  <polygon class="c" points="200.16 58.92 200.04 55.92 199.56 52.92 198.84 49.92 197.76 47.16 196.56 44.4 195 41.76 193.2 39.36 191.16 37.08 188.88 35.04 186.48 33.24 183.84 31.68 181.08 30.48 178.32 29.4 175.32 28.68 172.32 28.2 169.32 28.08 166.32 28.2 163.32 28.68 160.32 29.4 157.56 30.48 154.8 31.68 152.16 33.24 149.76 35.04 147.48 37.08 145.44 39.36 143.64 41.76 142.08 44.4 140.88 47.16 139.8 49.92 139.08 52.92 138.6 55.92 138.48 58.92 138.6 61.92 139.08 64.92 139.8 67.92 140.88 70.68 142.08 73.44 143.64 76.08 145.44 78.48 147.48 80.76 149.76 82.8 152.16 84.6 154.8 86.16 157.56 87.36 160.32 88.44 163.32 89.16 166.32 89.64 169.32 89.76 172.32 89.64 175.32 89.16 178.32 88.44 181.08 87.36 183.84 86.16 186.48 84.6 188.88 82.8 191.16 80.76 193.2 78.48 195 76.08 196.56 73.44 197.76 70.68 198.84 67.92 199.56 64.92 200.04 61.92 200.16 58.92"/>
  <polygon class="c" points="34.44 49.08 34.32 47.4 33.84 45.72 33.12 44.16 32.16 42.72 30.96 41.52 29.52 40.56 27.96 39.84 26.28 39.36 24.6 39.24 22.92 39.36 21.24 39.84 19.68 40.56 18.24 41.52 17.04 42.72 16.08 44.16 15.36 45.72 14.88 47.4 14.76 49.08 14.88 50.76 15.36 52.44 16.08 54 17.04 55.44 18.24 56.64 19.68 57.6 21.24 58.32 22.92 58.8 24.6 58.92 26.28 58.8 27.96 58.32 29.52 57.6 30.96 56.64 32.16 55.44 33.12 54 33.84 52.44 34.32 50.76 34.44 49.08"/>
  <polygon class="c" points="368.16 28.8 368.04 27.12 367.56 25.44 366.84 23.88 365.88 22.44 364.68 21.24 363.24 20.28 361.68 19.56 360 19.08 358.32 18.96 356.64 19.08 354.96 19.56 353.4 20.28 351.96 21.24 350.76 22.44 349.8 23.88 349.08 25.44 348.6 27.12 348.48 28.8 348.6 30.48 349.08 32.16 349.8 33.72 350.76 35.16 351.96 36.36 353.4 37.32 354.96 38.04 356.64 38.52 358.32 38.64 360 38.52 361.68 38.04 363.24 37.32 364.68 36.36 365.88 35.16 366.84 33.72 367.56 32.16 368.04 30.48 368.16 28.8"/>
  <polygon class="c" points="334.2 28.8 334.08 27.12 333.6 25.44 332.88 23.88 331.92 22.44 330.72 21.24 329.28 20.28 327.72 19.56 326.04 19.08 324.36 18.96 322.68 19.08 321 19.56 319.44 20.28 318 21.24 316.8 22.44 315.84 23.88 315.12 25.44 314.64 27.12 314.52 28.8 314.64 30.48 315.12 32.16 315.84 33.72 316.8 35.16 318 36.36 319.44 37.32 321 38.04 322.68 38.52 324.36 38.64 326.04 38.52 327.72 38.04 329.28 37.32 330.72 36.36 331.92 35.16 332.88 33.72 333.6 32.16 334.08 30.48 334.2 28.8"/>
  <rect class="b" x="57.84" y="29.88" width="61.56" height="31.68"/>
</svg>