<?xml version="1.0" encoding="UTF-8"?>
<svg id="a" data-name="Layer 1" xmlns="http://www.w3.org/2000/svg" viewBox="0 0 839.92 556.48">
  <defs>
    <style>
      .b {
        stroke-linejoin: round;
      }

      .b, .c {
        fill: none;
        stroke: #000;
        stroke-linecap: round;
      }

      .c {
        stroke-linejoin: bevel;
      }
    </style>
  </defs>
  <polygon class="b" points="811.1 555.98 28.82 555.98 25.82 555.86 22.94 555.38 20.06 554.54 17.3 553.58 14.66 552.14 12.14 550.58 9.86 548.66 7.82 546.62 5.9 544.34 4.34 541.82 2.9 539.18 1.94 536.42 1.1 533.54 .62 530.66 .5 527.66 .5 28.82 .62 25.82 1.1 22.94 1.94 20.06 2.9 17.3 4.34 14.66 5.9 12.14 7.82 9.86 9.86 7.82 12.14 5.9 14.66 4.34 17.3 2.9 20.06 1.94 22.94 1.1 25.82 .62 28.82 .5 811.1 .5 814.1 .62 816.98 1.1 819.86 1.94 822.62 2.9 825.26 4.34 827.78 5.9 830.06 7.82 832.1 9.86 834.02 12.14 835.58 14.66 837.02 17.3 837.98 20.06 838.82 22.94 839.3 25.82 839.42 28.82 839.42 527.66 839.3 530.66 838.82 533.54 837.98 536.42 837.02 539.18 835.58 541.82 834.02 544.34 832.1 546.62 830.06 548.66 827.78 550.58 825.26 552.14 822.62 553.58 819.86 554.54 816.98 555.38 814.1 555.86 811.1 555.98"/>
  <polygon class="c" points="33.86 28.82 33.74 27.62 33.26 26.42 32.54 25.34 31.58 24.62 30.38 24.02 29.18 23.78 27.86 23.9 26.66 24.26 25.58 24.98 24.74 25.82 24.14 27.02 23.78 28.22 23.78 29.42 24.14 30.62 24.74 31.82 25.58 32.66 26.66 33.38 27.86 33.74 29.18 33.86 30.38 33.62 31.58 33.02 32.54 32.3 33.26 31.22 33.74 30.02 33.86 28.82"/>
  <polygon class="c" points="368.3 28.82 368.18 27.62 367.7 26.42 366.98 25.34 366.02 24.62 364.82 24.02 363.62 23.78 362.3 23.9 361.1 24.26 360.02 24.98 359.18 25.82 358.58 27.02 358.22 28.22 358.22 29.42 358.58 30.62 359.18 31.82 360.02 32.66 361.1 33.38 362.3 33.74 363.62 33.86 364.82 33.62 366.02 33.02 366.98 32.3 367.7 31.22 368.18 30.02 368.3 28.82"/>
  <polygon class="c" points="816.14 28.82 816.02 27.62 815.54 26.42 814.82 25.34 813.86 24.62 812.66 24.02 811.46 23.78 810.14 23.9 808.94 24.26 807.86 24.98 807.02 25.82 806.42 27.02 806.06 28.22 806.06 29.42 806.42 30.62 807.02 31.82 807.86 32.66 808.94 33.38 810.14 33.74 811.46 33.86 812.66 33.62 813.86 33.02 814.82 32.3 815.54 31.22 816.02 30.02 816.14 28.82"/>
  <polygon class="c" points="816.14 278.3 816.02 277.1 815.54 275.9 814.82 274.82 813.86 274.1 812.66 273.5 811.46 273.26 810.14 273.38 808.94 273.74 807.86 274.46 807.02 275.3 806.42 276.5 806.06 277.7 806.06 278.9 806.42 280.1 807.02 281.3 807.86 282.14 808.94 282.86 810.14 283.22 811.46 283.34 812.66 283.1 813.86 282.5 814.82 281.78 815.54 280.7 816.02 279.5 816.14 278.3"/>
  <polygon class="c" points="816.14 527.66 816.02 526.46 815.54 525.26 814.82 524.18 813.86 523.46 812.66 522.86 811.46 522.62 810.14 522.74 808.94 523.1 807.86 523.82 807.02 524.66 806.42 525.86 806.06 527.06 806.06 528.26 806.42 529.46 807.02 530.66 807.86 531.5 808.94 532.22 810.14 532.58 811.46 532.7 812.66 532.46 813.86 531.86 814.82 531.14 815.54 530.06 816.02 528.86 816.14 527.66"/>
  <polygon class="c" points="424.94 527.66 424.82 526.46 424.34 525.26 423.62 524.18 422.66 523.46 421.46 522.86 420.26 522.62 418.94 522.74 417.74 523.1 416.66 523.82 415.82 524.66 415.22 525.86 414.86 527.06 414.86 528.26 415.22 529.46 415.82 530.66 416.66 531.5 417.74 532.22 418.94 532.58 420.26 532.7 421.46 532.46 422.66 531.86 423.62 531.14 424.34 530.06 424.82 528.86 424.94 527.66"/>
  <polygon class="c" points="33.86 527.66 33.74 526.46 33.26 525.26 32.54 524.18 31.58 523.46 30.38 522.86 29.18 522.62 27.86 522.74 26.66 523.1 25.58 523.82 24.74 524.66 24.14 525.86 23.78 527.06 23.78 528.26 24.14 529.46 24.74 530.66 25.58 531.5 26.66 532.22 27.86 532.58 29.18 532.7 30.38 532.46 31.58 531.86 32.54 531.14 33.26 530.06 33.74 528.86 33.86 527.66"/>
  <polygon class="c" points="33.86 278.3 33.74 277.1 33.26 275.9 32.54 274.82 31.58 274.1 30.38 273.5 29.18 273.26 27.86 273.38 26.66 273.74 25.58 274.46 24.74 275.3 24.14 276.5 23.78 277.7 23.78 278.9 24.14 280.1 24.74 281.3 25.58 282.14 26.66 282.86 27.86 283.22 29.18 283.34 30.38 283.1 31.58 282.5 32.54 281.78 33.26 280.7 33.74 279.5 33.86 278.3"/>
  <polygon class="c" points="816.14 278.3 816.02 277.1 815.54 275.9 814.82 274.82 813.86 274.1 812.66 273.5 811.46 273.26 810.14 273.38 808.94 273.74 807.86 274.46 807.02 275.3 806.42 276.5 806.06 277.7 806.06 278.9 806.42 280.1 807.02 281.3 807.86 282.14 808.94 282.86 810.14 283.22 811.46 283.34 812.66 283.1 813.86 282.5 814.82 281.78 815.54 280.7 816.02 279.5 816.14 278.3"/>
  <polygon class="c" points="423.98 46.1 423.86 45.02 423.38 43.94 422.66 42.98 421.7 42.38 420.62 42.02 419.54 41.9 418.34 42.14 417.38 42.62 416.54 43.46 415.94 44.42 415.58 45.5 415.58 46.7 415.94 47.78 416.54 48.74 417.38 49.58 418.34 50.06 419.54 50.3 420.62 50.18 421.7 49.82 422.66 49.22 423.38 48.26 423.86 47.18 423.98 46.1"/>
  <polygon class="c" points="481.7 28.82 481.58 27.62 481.1 26.42 480.38 25.34 479.42 24.62 478.22 24.02 477.02 23.78 475.7 23.9 474.5 24.26 473.42 24.98 472.58 25.82 471.98 27.02 471.62 28.22 471.62 29.42 471.98 30.62 472.58 31.82 473.42 32.66 474.5 33.38 475.7 33.74 477.02 33.86 478.22 33.62 479.42 33.02 480.38 32.3 481.1 31.22 481.58 30.02 481.7 28.82"/>
</svg>