<?xml version="1.0" encoding="UTF-8"?>
<svg id="a" data-name="Layer 1" xmlns="http://www.w3.org/2000/svg" viewBox="0 0 845.44 561.88">
  <defs>
    <style>
      .b {
        fill: none;
        stroke: #000;
        stroke-linecap: round;
        stroke-linejoin: round;
      }
    </style>
  </defs>
  <polygon class="b" points="27.38 536.06 27.14 534.14 26.42 532.46 25.34 530.9 23.78 529.82 22.1 529.1 20.18 528.86 18.26 529.1 16.58 529.82 15.02 530.9 13.94 532.46 13.22 534.14 12.98 536.06 13.22 537.86 13.94 539.66 15.02 541.1 16.58 542.3 18.26 543.02 20.18 543.26 22.1 543.02 23.78 542.3 25.34 541.1 26.42 539.66 27.14 537.86 27.38 536.06"/>
  <polygon class="b" points="27.38 278.18 27.14 276.26 26.42 274.58 25.34 273.02 23.78 271.94 22.1 271.22 20.18 270.86 18.26 271.22 16.58 271.94 15.02 273.02 13.94 274.58 13.22 276.26 12.98 278.18 13.22 279.98 13.94 281.78 15.02 283.22 16.58 284.42 18.26 285.14 20.18 285.38 22.1 285.14 23.78 284.42 25.34 283.22 26.42 281.78 27.14 279.98 27.38 278.18"/>
  <polygon class="b" points="27.38 20.3 27.14 18.38 26.42 16.58 25.34 15.14 23.78 13.94 22.1 13.22 20.18 12.98 18.26 13.22 16.58 13.94 15.02 15.14 13.94 16.58 13.22 18.38 12.98 20.3 13.22 22.1 13.94 23.9 15.02 25.34 16.58 26.54 18.26 27.26 20.18 27.5 22.1 27.26 23.78 26.54 25.34 25.34 26.42 23.9 27.14 22.1 27.38 20.3"/>
  <polygon class="b" points="359.06 59.9 358.82 58.1 358.1 56.3 356.9 54.86 355.46 53.66 353.66 52.94 351.86 52.7 349.94 52.94 348.26 53.66 346.7 54.86 345.62 56.3 344.78 58.1 344.54 59.9 344.78 61.82 345.62 63.5 346.7 65.06 348.26 66.14 349.94 66.86 351.86 67.1 353.66 66.86 355.46 66.14 356.9 65.06 358.1 63.5 358.82 61.82 359.06 59.9"/>
  <polygon class="b" points="429.86 536.06 429.62 534.14 428.9 532.46 427.82 530.9 426.26 529.82 424.58 529.1 422.66 528.86 420.86 529.1 419.06 529.82 417.62 530.9 416.42 532.46 415.7 534.14 415.46 536.06 415.7 537.86 416.42 539.66 417.62 541.1 419.06 542.3 420.86 543.02 422.66 543.26 424.58 543.02 426.26 542.3 427.82 541.1 428.9 539.66 429.62 537.86 429.86 536.06"/>
  <polygon class="b" points="832.46 536.06 832.22 534.14 831.5 532.46 830.3 530.9 828.74 529.82 827.06 529.1 825.14 528.86 823.34 529.1 821.54 529.82 820.1 530.9 818.9 532.46 818.18 534.14 817.94 536.06 818.18 537.86 818.9 539.66 820.1 541.1 821.54 542.3 823.34 543.02 825.14 543.26 827.06 543.02 828.74 542.3 830.3 541.1 831.5 539.66 832.22 537.86 832.46 536.06"/>
  <polygon class="b" points="500.78 59.9 500.54 58.1 499.82 56.3 498.62 54.86 497.18 53.66 495.38 52.94 493.58 52.7 491.66 52.94 489.98 53.66 488.42 54.86 487.34 56.3 486.62 58.1 486.26 59.9 486.62 61.82 487.34 63.5 488.42 65.06 489.98 66.14 491.66 66.86 493.58 67.1 495.38 66.86 497.18 66.14 498.62 65.06 499.82 63.5 500.54 61.82 500.78 59.9"/>
  <polygon class="b" points="425.54 48.02 425.3 46.94 424.7 45.98 423.74 45.38 422.66 45.14 421.58 45.38 420.62 45.98 420.02 46.94 419.9 48.02 420.02 49.1 420.62 50.06 421.58 50.66 422.66 50.9 423.74 50.66 424.7 50.06 425.3 49.1 425.54 48.02"/>
  <polygon class="b" points="832.46 278.18 832.22 276.26 831.5 274.58 830.3 273.02 828.74 271.94 827.06 271.22 825.14 270.86 823.34 271.22 821.54 271.94 820.1 273.02 818.9 274.58 818.18 276.26 817.94 278.18 818.18 279.98 818.9 281.78 820.1 283.22 821.54 284.42 823.34 285.14 825.14 285.38 827.06 285.14 828.74 284.42 830.3 283.22 831.5 281.78 832.22 279.98 832.46 278.18"/>
  <polygon class="b" points="836.54 561.38 8.9 561.38 6.98 561.26 5.18 560.54 3.62 559.58 2.3 558.26 1.34 556.7 .74 554.9 .5 553.1 .5 8.9 .74 7.1 1.34 5.3 2.3 3.74 3.62 2.42 5.18 1.34 6.98 .74 8.9 .5 836.54 .5 838.34 .74 840.14 1.34 841.7 2.42 843.02 3.74 844.1 5.3 844.7 7.1 844.94 8.9 844.94 553.1 844.7 554.9 844.1 556.7 843.02 558.26 841.7 559.58 840.14 560.54 838.34 561.26 836.54 561.38"/>
  <polygon class="b" points="832.46 20.3 832.22 18.38 831.5 16.58 830.3 15.14 828.74 13.94 827.06 13.22 825.14 12.98 823.34 13.22 821.54 13.94 820.1 15.14 818.9 16.58 818.18 18.38 817.94 20.3 818.18 22.1 818.9 23.9 820.1 25.34 821.54 26.54 823.34 27.26 825.14 27.5 827.06 27.26 828.74 26.54 830.3 25.34 831.5 23.9 832.22 22.1 832.46 20.3"/>
</svg>