<?xml version="1.0" encoding="UTF-8"?>
<svg id="a" data-name="Layer 1" xmlns="http://www.w3.org/2000/svg" viewBox="0 0 845.68 563.56">
  <defs>
    <style>
      .b {
        fill: none;
        stroke: #000;
        stroke-linecap: round;
        stroke-linejoin: round;
      }
    </style>
  </defs>
  <polygon class="b" points="836.66 563.06 9.02 563.06 7.1 562.82 5.3 562.22 3.74 561.26 2.3 559.82 1.34 558.26 .74 556.46 .5 554.54 .5 9.02 .74 7.22 1.34 5.42 2.3 3.74 3.74 2.42 5.3 1.34 7.1 .74 9.02 .5 836.66 .5 838.46 .74 840.26 1.34 841.94 2.42 843.26 3.74 844.22 5.42 844.94 7.22 845.18 9.02 845.18 554.54 844.94 556.46 844.22 558.26 843.26 559.82 841.94 561.26 840.26 562.22 838.46 562.82 836.66 563.06"/>
  <polygon class="b" points="199.7 57.08 199.7 11.48 199.58 10.28 198.98 9.32 198.26 8.6 197.3 8 196.22 7.88 119.3 7.88 118.22 8 117.26 8.6 116.54 9.32 115.94 10.28 115.82 11.48 115.82 57.08 115.94 58.16 116.54 59.12 117.26 59.96 118.22 60.44 119.3 60.56 196.22 60.56 197.3 60.44 198.26 59.96 198.98 59.12 199.58 58.16 199.7 57.08"/>
  <polygon class="b" points="511.7 26 511.58 23.84 510.86 21.68 509.78 19.76 508.46 17.96 506.66 16.64 504.74 15.56 502.58 14.96 500.42 14.72 498.14 14.96 496.1 15.56 494.06 16.64 492.38 17.96 490.94 19.76 489.98 21.68 489.26 23.84 489.02 26 489.26 28.28 489.98 30.32 490.94 32.36 492.38 34.04 494.06 35.48 496.1 36.56 498.14 37.16 500.42 37.4 502.58 37.16 504.74 36.56 506.66 35.48 508.46 34.04 509.78 32.36 510.86 30.32 511.58 28.28 511.7 26"/>
  <polygon class="b" points="548.42 26 548.18 23.84 547.46 21.68 546.5 19.76 545.06 17.96 543.38 16.64 541.34 15.56 539.3 14.96 537.02 14.72 534.86 14.96 532.7 15.56 530.78 16.64 528.98 17.96 527.66 19.76 526.58 21.68 525.86 23.84 525.74 26 525.86 28.28 526.58 30.32 527.66 32.36 528.98 34.04 530.78 35.48 532.7 36.56 534.86 37.16 537.02 37.4 539.3 37.16 541.34 36.56 543.38 35.48 545.06 34.04 546.5 32.36 547.46 30.32 548.18 28.28 548.42 26"/>
  <polygon class="b" points="585.02 26 584.78 23.84 584.18 21.68 583.1 19.76 581.66 17.96 579.98 16.64 577.94 15.56 575.9 14.96 573.62 14.72 571.46 14.96 569.3 15.56 567.38 16.64 565.58 17.96 564.26 19.76 563.18 21.68 562.58 23.84 562.34 26 562.58 28.28 563.18 30.32 564.26 32.36 565.58 34.04 567.38 35.48 569.3 36.56 571.46 37.16 573.62 37.4 575.9 37.16 577.94 36.56 579.98 35.48 581.66 34.04 583.1 32.36 584.18 30.32 584.78 28.28 585.02 26"/>
  <polygon class="b" points="621.62 26 621.38 23.84 620.78 21.68 619.7 19.76 618.26 17.96 616.58 16.64 614.66 15.56 612.5 14.96 610.22 14.72 608.06 14.96 605.9 15.56 603.98 16.64 602.3 17.96 600.86 19.76 599.78 21.68 599.18 23.84 598.94 26 599.18 28.28 599.78 30.32 600.86 32.36 602.3 34.04 603.98 35.48 605.9 36.56 608.06 37.16 610.22 37.4 612.5 37.16 614.66 36.56 616.58 35.48 618.26 34.04 619.7 32.36 620.78 30.32 621.38 28.28 621.62 26"/>
  <polygon class="b" points="658.22 26 657.98 23.84 657.38 21.68 656.3 19.76 654.86 17.96 653.18 16.64 651.26 15.56 649.1 14.96 646.94 14.72 644.66 14.96 642.62 15.56 640.58 16.64 638.9 17.96 637.46 19.76 636.38 21.68 635.78 23.84 635.54 26 635.78 28.28 636.38 30.32 637.46 32.36 638.9 34.04 640.58 35.48 642.62 36.56 644.66 37.16 646.94 37.4 649.1 37.16 651.26 36.56 653.18 35.48 654.86 34.04 656.3 32.36 657.38 30.32 657.98 28.28 658.22 26"/>
  <polygon class="b" points="694.82 26 694.7 23.84 693.98 21.68 692.9 19.76 691.58 17.96 689.78 16.64 687.86 15.56 685.7 14.96 683.54 14.72 681.26 14.96 679.22 15.56 677.18 16.64 675.5 17.96 674.06 19.76 673.1 21.68 672.38 23.84 672.14 26 672.38 28.28 673.1 30.32 674.06 32.36 675.5 34.04 677.18 35.48 679.22 36.56 681.26 37.16 683.54 37.4 685.7 37.16 687.86 36.56 689.78 35.48 691.58 34.04 692.9 32.36 693.98 30.32 694.7 28.28 694.82 26"/>
  <polygon class="b" points="731.54 26 731.3 23.84 730.58 21.68 729.62 19.76 728.18 17.96 726.5 16.64 724.46 15.56 722.3 14.96 720.14 14.72 717.98 14.96 715.82 15.56 713.9 16.64 712.1 17.96 710.66 19.76 709.7 21.68 708.98 23.84 708.86 26 708.98 28.28 709.7 30.32 710.66 32.36 712.1 34.04 713.9 35.48 715.82 36.56 717.98 37.16 720.14 37.4 722.3 37.16 724.46 36.56 726.5 35.48 728.18 34.04 729.62 32.36 730.58 30.32 731.3 28.28 731.54 26"/>
  <polygon class="b" points="420.98 377.48 420.74 373.04 420.02 368.72 418.94 364.4 417.38 360.32 415.34 356.36 412.94 352.64 410.18 349.28 407.06 346.16 403.58 343.4 399.86 340.88 395.9 338.96 391.82 337.4 387.5 336.2 383.18 335.48 378.74 335.24 374.3 335.48 369.98 336.2 365.66 337.4 361.58 338.96 357.62 340.88 353.9 343.4 350.54 346.16 347.42 349.28 344.54 352.64 342.14 356.36 340.22 360.32 338.54 364.4 337.46 368.72 336.74 373.04 336.5 377.48 336.74 381.92 337.46 386.24 338.54 390.56 340.22 394.64 342.14 398.6 344.54 402.32 347.42 405.8 350.54 408.92 353.9 411.68 357.62 414.08 361.58 416.12 365.66 417.68 369.98 418.88 374.3 419.48 378.74 419.72 383.18 419.48 387.5 418.88 391.82 417.68 395.9 416.12 399.86 414.08 403.58 411.68 407.06 408.92 410.18 405.8 412.94 402.32 415.34 398.6 417.38 394.64 418.94 390.56 420.02 386.24 420.74 381.92 420.98 377.48"/>
  <polygon class="b" points="200.42 171.2 200.18 166.76 199.46 162.32 198.38 158.12 196.82 153.92 194.78 150.08 192.38 146.36 189.62 142.88 186.5 139.76 183.02 137 179.3 134.6 175.34 132.56 171.26 131 166.94 129.8 162.62 129.2 158.18 128.96 153.74 129.2 149.42 129.8 145.1 131 141.02 132.56 137.06 134.6 133.34 137 129.98 139.76 126.86 142.88 123.98 146.36 121.58 150.08 119.66 153.92 117.98 158.12 116.9 162.32 116.18 166.76 115.94 171.2 116.18 175.52 116.9 179.96 117.98 184.16 119.66 188.36 121.58 192.32 123.98 195.92 126.86 199.4 129.98 202.52 133.34 205.28 137.06 207.68 141.02 209.72 145.1 211.28 149.42 212.48 153.74 213.2 158.18 213.44 162.62 213.2 166.94 212.48 171.26 211.28 175.34 209.72 179.3 207.68 183.02 205.28 186.5 202.52 189.62 199.4 192.38 195.92 194.78 192.32 196.82 188.36 198.38 184.16 199.46 179.96 200.18 175.52 200.42 171.2"/>
  <polygon class="b" points="293.42 173.48 293.18 169.04 292.46 164.72 291.26 160.4 289.7 156.32 287.66 152.36 285.26 148.64 282.5 145.16 279.38 142.04 276.02 139.28 272.3 136.88 268.34 134.84 264.14 133.28 259.94 132.2 255.5 131.48 251.18 131.24 246.74 131.48 242.3 132.2 238.1 133.28 233.9 134.84 230.06 136.88 226.34 139.28 222.86 142.04 219.74 145.16 216.98 148.64 214.58 152.36 212.54 156.32 210.98 160.4 209.78 164.72 209.18 169.04 208.94 173.48 209.18 177.92 209.78 182.24 210.98 186.56 212.54 190.64 214.58 194.6 216.98 198.32 219.74 201.68 222.86 204.8 226.34 207.68 230.06 210.08 233.9 212 238.1 213.68 242.3 214.76 246.74 215.48 251.18 215.72 255.5 215.48 259.94 214.76 264.14 213.68 268.34 212 272.3 210.08 276.02 207.68 279.38 204.8 282.5 201.68 285.26 198.32 287.66 194.6 289.7 190.64 291.26 186.56 292.46 182.24 293.18 177.92 293.42 173.48"/>
  <polygon class="b" points="454.46 266.48 454.22 262.04 453.5 257.72 452.42 253.4 450.74 249.32 448.82 245.36 446.42 241.64 443.66 238.16 440.42 235.04 437.06 232.28 433.34 229.88 429.38 227.84 425.3 226.28 420.98 225.2 416.66 224.48 412.22 224.24 407.78 224.48 403.46 225.2 399.14 226.28 395.06 227.84 391.1 229.88 387.38 232.28 383.9 235.04 380.78 238.16 378.02 241.64 375.62 245.36 373.58 249.32 372.02 253.4 370.94 257.72 370.22 262.04 369.98 266.48 370.22 270.92 370.94 275.24 372.02 279.56 373.58 283.64 375.62 287.6 378.02 291.32 380.78 294.68 383.9 297.92 387.38 300.68 391.1 303.08 395.06 305.12 399.14 306.68 403.46 307.76 407.78 308.48 412.22 308.72 416.66 308.48 420.98 307.76 425.3 306.68 429.38 305.12 433.34 303.08 437.06 300.68 440.42 297.92 443.66 294.68 446.42 291.32 448.82 287.6 450.74 283.64 452.42 279.56 453.5 275.24 454.22 270.92 454.46 266.48"/>
  <polygon class="b" points="378.02 212 377.78 207.56 377.06 203.24 375.86 198.92 374.3 194.84 372.26 190.88 369.86 187.16 367.1 183.8 363.98 180.56 360.62 177.8 356.9 175.4 352.94 173.36 348.74 171.8 344.54 170.72 340.1 170 335.78 169.76 331.34 170 327.02 170.72 322.7 171.8 318.62 173.36 314.66 175.4 310.94 177.8 307.46 180.56 304.34 183.8 301.58 187.16 299.18 190.88 297.14 194.84 295.58 198.92 294.38 203.24 293.78 207.56 293.54 212 293.78 216.44 294.38 220.76 295.58 225.08 297.14 229.16 299.18 233.12 301.58 236.84 304.34 240.32 307.46 243.44 310.94 246.2 314.66 248.6 318.62 250.64 322.7 252.2 327.02 253.28 331.34 254 335.78 254.24 340.1 254 344.54 253.28 348.74 252.2 352.94 250.64 356.9 248.6 360.62 246.2 363.98 243.44 367.1 240.32 369.86 236.84 372.26 233.12 374.3 229.16 375.86 225.08 377.06 220.76 377.78 216.44 378.02 212"/>
  <polygon class="b" points="462.74 173.84 462.5 169.52 461.9 165.08 460.7 160.88 459.14 156.68 457.1 152.72 454.7 149 451.94 145.64 448.82 142.52 445.34 139.76 441.62 137.36 437.78 135.32 433.58 133.76 429.38 132.56 424.94 131.84 420.5 131.6 416.18 131.84 411.74 132.56 407.54 133.76 403.34 135.32 399.38 137.36 395.66 139.76 392.3 142.52 389.18 145.64 386.42 149 384.02 152.72 381.98 156.68 380.42 160.88 379.22 165.08 378.5 169.52 378.26 173.84 378.5 178.28 379.22 182.72 380.42 186.92 381.98 191 384.02 194.96 386.42 198.68 389.18 202.16 392.3 205.28 395.66 208.04 399.38 210.44 403.34 212.48 407.54 214.04 411.74 215.24 416.18 215.84 420.5 216.08 424.94 215.84 429.38 215.24 433.58 214.04 437.78 212.48 441.62 210.44 445.34 208.04 448.82 205.28 451.94 202.16 454.7 198.68 457.1 194.96 459.14 191 460.7 186.92 461.9 182.72 462.5 178.28 462.74 173.84"/>
  <polygon class="b" points="539.66 229.28 539.42 224.96 538.7 220.52 537.62 216.32 536.06 212.12 534.02 208.16 531.62 204.56 528.86 201.08 525.74 197.96 522.26 195.2 518.54 192.8 514.58 190.76 510.5 189.2 506.18 188 501.86 187.28 497.42 187.04 492.98 187.28 488.66 188 484.34 189.2 480.26 190.76 476.3 192.8 472.58 195.2 469.22 197.96 466.1 201.08 463.22 204.56 460.82 208.16 458.9 212.12 457.22 216.32 456.14 220.52 455.42 224.96 455.18 229.28 455.42 233.72 456.14 238.16 457.22 242.36 458.9 246.56 460.82 250.4 463.22 254.12 466.1 257.6 469.22 260.72 472.58 263.48 476.3 265.88 480.26 267.92 484.34 269.48 488.66 270.68 492.98 271.28 497.42 271.52 501.86 271.28 506.18 270.68 510.5 269.48 514.58 267.92 518.54 265.88 522.26 263.48 525.74 260.72 528.86 257.6 531.62 254.12 534.02 250.4 536.06 246.56 537.62 242.36 538.7 238.16 539.42 233.72 539.66 229.28"/>
  <polygon class="b" points="548.06 136.76 547.82 132.32 547.1 128 545.9 123.68 544.34 119.6 542.3 115.64 539.9 111.92 537.14 108.44 534.02 105.32 530.54 102.56 526.94 100.16 522.98 98.12 518.78 96.56 514.58 95.36 510.14 94.76 505.82 94.52 501.38 94.76 496.94 95.36 492.74 96.56 488.54 98.12 484.7 100.16 480.98 102.56 477.5 105.32 474.38 108.44 471.62 111.92 469.22 115.64 467.18 119.6 465.62 123.68 464.42 128 463.82 132.32 463.58 136.76 463.82 141.2 464.42 145.52 465.62 149.72 467.18 153.92 469.22 157.88 471.62 161.6 474.38 164.96 477.5 168.08 480.98 170.84 484.7 173.36 488.54 175.28 492.74 176.84 496.94 178.04 501.38 178.76 505.82 179 510.14 178.76 514.58 178.04 518.78 176.84 522.98 175.28 526.94 173.36 530.54 170.84 534.02 168.08 537.14 164.96 539.9 161.6 542.3 157.88 544.34 153.92 545.9 149.72 547.1 145.52 547.82 141.2 548.06 136.76"/>
  <polygon class="b" points="632.54 231.56 632.3 227.12 631.7 222.8 630.5 218.48 628.94 214.4 626.9 210.44 624.5 206.72 621.74 203.36 618.62 200.24 615.14 197.36 611.42 194.96 607.58 193.04 603.38 191.36 599.18 190.28 594.74 189.56 590.3 189.32 585.98 189.56 581.54 190.28 577.34 191.36 573.14 193.04 569.18 194.96 565.58 197.36 562.1 200.24 558.98 203.36 556.22 206.72 553.82 210.44 551.78 214.4 550.22 218.48 549.02 222.8 548.3 227.12 548.06 231.56 548.3 236 549.02 240.32 550.22 244.64 551.78 248.72 553.82 252.68 556.22 256.4 558.98 259.88 562.1 263 565.58 265.76 569.18 268.16 573.14 270.2 577.34 271.76 581.54 272.84 585.98 273.56 590.3 273.8 594.74 273.56 599.18 272.84 603.38 271.76 607.58 270.2 611.42 268.16 615.14 265.76 618.62 263 621.74 259.88 624.5 256.4 626.9 252.68 628.94 248.72 630.5 244.64 631.7 240.32 632.3 236 632.54 231.56"/>
  <polygon class="b" points="640.94 139.04 640.7 134.6 639.98 130.16 638.9 125.96 637.22 121.76 635.3 117.92 632.9 114.2 630.02 110.72 626.9 107.6 623.54 104.84 619.82 102.44 615.86 100.4 611.78 98.84 607.46 97.64 603.14 97.04 598.7 96.8 594.26 97.04 589.94 97.64 585.62 98.84 581.54 100.4 577.58 102.44 573.86 104.84 570.38 107.6 567.26 110.72 564.5 114.2 562.1 117.92 560.06 121.76 558.5 125.96 557.42 130.16 556.7 134.6 556.46 139.04 556.7 143.36 557.42 147.8 558.5 152 560.06 156.2 562.1 160.16 564.5 163.76 567.26 167.24 570.38 170.36 573.86 173.12 577.58 175.52 581.54 177.56 585.62 179.12 589.94 180.32 594.26 181.04 598.7 181.28 603.14 181.04 607.46 180.32 611.78 179.12 615.86 177.56 619.82 175.52 623.54 173.12 626.9 170.36 630.02 167.24 632.9 163.76 635.3 160.16 637.22 156.2 638.9 152 639.98 147.8 640.7 143.36 640.94 139.04"/>
  <polygon class="b" points="725.06 240.92 724.82 236.48 724.22 232.16 723.02 227.84 721.46 223.76 719.42 219.8 717.02 216.08 714.26 212.72 711.14 209.48 707.66 206.72 703.94 204.32 700.1 202.4 695.9 200.72 691.7 199.64 687.26 198.92 682.82 198.68 678.5 198.92 674.06 199.64 669.86 200.72 665.66 202.4 661.7 204.32 657.98 206.72 654.62 209.48 651.5 212.72 648.74 216.08 646.34 219.8 644.3 223.76 642.74 227.84 641.54 232.16 640.82 236.48 640.58 240.92 640.82 245.36 641.54 249.68 642.74 254 644.3 258.08 646.34 262.04 648.74 265.76 651.5 269.24 654.62 272.36 657.98 275.12 661.7 277.52 665.66 279.56 669.86 281.12 674.06 282.2 678.5 282.92 682.82 283.16 687.26 282.92 691.7 282.2 695.9 281.12 700.1 279.56 703.94 277.52 707.66 275.12 711.14 272.36 714.26 269.24 717.02 265.76 719.42 262.04 721.46 258.08 723.02 254 724.22 249.68 724.82 245.36 725.06 240.92"/>
  <polygon class="b" points="733.46 148.28 733.22 143.96 732.5 139.52 731.3 135.32 729.74 131.12 727.82 127.16 725.42 123.56 722.54 120.08 719.42 116.96 716.06 114.2 712.34 111.8 708.38 109.76 704.3 108.2 699.98 107 695.66 106.28 691.22 106.04 686.78 106.28 682.46 107 678.14 108.2 674.06 109.76 670.1 111.8 666.38 114.2 662.9 116.96 659.78 120.08 657.02 123.56 654.62 127.16 652.58 131.12 651.02 135.32 649.82 139.52 649.22 143.96 648.98 148.28 649.22 152.72 649.82 157.16 651.02 161.36 652.58 165.56 654.62 169.4 657.02 173.12 659.78 176.6 662.9 179.72 666.38 182.48 670.1 184.88 674.06 186.92 678.14 188.48 682.46 189.68 686.78 190.28 691.22 190.52 695.66 190.28 699.98 189.68 704.3 188.48 708.38 186.92 712.34 184.88 716.06 182.48 719.42 179.72 722.54 176.6 725.42 173.12 727.82 169.4 729.74 165.56 731.3 161.36 732.5 157.16 733.22 152.72 733.46 148.28"/>
</svg>